{"glyphs":{"0":{"ha":794,"x_min":36,"x_max":758,"o":"m 36 453 q 125 118 36 249 q 397 -14 214 -14 q 669 118 581 -14 q 758 453 758 249 q 669 788 758 657 q 397 920 581 920 q 125 788 214 920 q 36 453 36 657 m 530 453 q 501 204 530 304 q 397 104 472 104 q 293 204 322 104 q 264 453 264 304 q 293 702 264 602 q 397 802 322 802 q 502 702 473 802 q 530 453 530 602 z "},"1":{"ha":591,"x_min":50,"x_max":568,"o":"m 559 -7 q 467 -3 541 -5 q 294 0 393 0 q 195 -3 254 0 q 115 -7 135 -5 l 109 90 l 232 107 q 239 166 233 123 q 244 227 244 210 l 244 672 l 102 618 l 50 704 q 140 773 77 725 q 245 854 204 821 q 280 892 255 863 q 314 933 306 922 l 457 917 q 451 755 456 876 q 446 591 446 635 l 446 268 q 452 165 446 223 q 460 107 458 107 l 568 98 l 559 -7 z "},"2":{"ha":760,"x_min":26,"x_max":703,"o":"m 339 920 q 576 857 493 920 q 659 681 659 794 q 626 538 659 607 q 510 381 593 469 q 275 164 428 293 l 441 164 q 508 170 468 164 q 562 178 547 175 l 585 249 l 595 300 l 703 292 l 692 24 l 650 -4 q 582 -2 630 -4 q 498 0 533 0 l 46 0 l 26 138 q 279 378 193 288 q 399 534 364 469 q 435 663 435 599 q 401 752 435 721 q 310 783 367 783 q 189 750 250 783 q 178 697 178 715 l 178 637 l 68 631 l 58 871 q 339 920 195 920 z "},"3":{"ha":682,"x_min":26,"x_max":628,"o":"m 277 920 q 509 858 429 920 q 589 676 589 796 q 549 555 589 611 q 435 461 509 498 q 572 380 517 443 q 628 241 628 318 q 554 60 628 144 q 349 -79 479 -24 q 57 -146 218 -134 l 26 -40 q 222 10 138 -28 q 354 103 307 47 q 400 227 400 158 q 258 375 400 375 q 208 373 236 375 q 172 370 180 371 l 153 471 q 320 544 262 489 q 378 685 378 599 q 349 769 378 741 q 268 798 321 798 q 167 781 216 798 q 161 755 165 772 q 155 726 157 737 l 155 653 l 46 646 l 26 879 q 277 920 147 919 z "},"4":{"ha":782,"x_min":14,"x_max":736,"o":"m 644 909 q 556 822 621 888 q 479 736 492 755 l 215 379 l 408 379 l 408 514 l 603 581 l 603 392 l 733 399 l 733 253 l 603 253 l 603 222 q 609 140 603 172 q 615 107 615 109 l 736 98 l 729 -7 q 616 -3 704 -5 q 432 0 528 0 q 334 -3 393 0 q 256 -7 275 -5 l 249 90 l 396 107 q 402 156 396 110 q 408 224 408 203 l 408 253 l 117 253 l 14 380 l 505 1026 l 644 909 z "},"5":{"ha":675,"x_min":58,"x_max":625,"o":"m 587 743 q 477 732 559 741 q 368 724 395 724 l 237 724 l 225 526 q 311 532 262 532 q 544 459 463 532 q 625 260 625 387 q 490 -4 625 98 q 90 -146 355 -106 l 60 -43 q 326 62 244 -1 q 408 228 408 125 q 248 389 408 389 q 123 370 191 389 l 58 444 l 93 880 l 119 905 l 241 905 l 579 920 l 587 743 z "},"6":{"ha":766,"x_min":41,"x_max":725,"o":"m 449 574 q 387 570 418 574 q 339 559 355 566 l 347 460 q 365 463 351 461 q 395 464 379 464 q 477 413 452 464 q 503 289 503 363 q 476 163 503 214 q 390 113 450 113 q 292 181 321 113 q 262 342 262 249 q 306 584 262 465 q 444 800 349 703 q 689 946 539 897 l 667 1038 q 325 895 467 1003 q 112 641 183 787 q 41 342 41 494 q 84 154 41 235 q 205 29 126 74 q 392 -16 285 -16 q 560 23 484 -16 q 681 131 636 61 q 725 289 725 200 q 651 497 725 420 q 449 574 578 574 z "},"7":{"ha":709,"x_min":49,"x_max":720,"o":"m 89 918 q 174 911 111 917 q 256 905 236 905 l 697 905 l 720 810 l 281 -146 l 107 -86 l 419 526 q 446 603 426 540 q 481 722 465 667 l 268 722 q 191 717 251 722 q 179 683 185 697 q 170 659 174 668 l 158 595 l 49 599 l 64 890 l 89 918 z "},"8":{"ha":754,"x_min":41,"x_max":710,"o":"m 532 486 q 663 373 615 435 q 710 216 710 311 q 661 89 710 141 q 536 12 612 37 q 375 -14 460 -14 q 211 13 288 -14 q 88 93 135 39 q 41 228 41 147 q 218 475 41 364 q 111 580 151 521 q 72 725 72 639 q 116 846 72 795 q 229 922 160 896 q 376 947 298 947 q 523 921 453 947 q 636 843 593 895 q 679 721 679 791 q 637 592 679 652 q 532 486 595 532 m 376 833 q 301 802 330 833 q 272 724 272 771 q 306 633 272 671 q 407 555 340 595 q 479 720 479 639 q 452 802 479 770 q 376 833 425 833 m 376 100 q 470 133 436 100 q 504 225 504 165 q 465 320 504 282 q 347 401 425 358 q 245 229 245 321 q 281 135 245 170 q 376 100 317 100 z "},"9":{"ha":766,"x_min":41,"x_max":725,"o":"m 332 330 q 428 345 387 331 l 419 444 q 401 441 415 443 q 372 440 387 440 q 294 490 323 440 q 264 615 264 541 q 290 741 264 690 q 376 791 317 791 q 472 726 440 791 q 504 562 504 660 q 408 187 504 354 q 78 -43 313 20 l 109 -146 q 447 -1 309 -111 q 655 260 586 110 q 725 562 725 410 q 684 749 725 668 q 565 874 643 829 q 375 920 486 920 q 208 879 285 920 q 86 768 131 838 q 41 615 41 699 q 119 405 41 480 q 332 330 196 330 z "}," ":{"ha":248,"x_min":0,"x_max":0,"o":""},"!":{"ha":332,"x_min":77,"x_max":296,"o":"m 241 313 q 180 317 224 314 q 100 319 136 319 l 102 411 l 89 989 l 256 1002 l 296 962 q 285 854 293 939 q 269 654 277 770 q 261 441 261 539 q 262 376 261 407 q 265 335 264 346 l 241 313 m 179 200 q 104 170 131 200 q 77 89 77 139 q 104 9 77 39 q 179 -21 131 -21 q 255 9 228 -21 q 282 89 282 39 q 255 170 282 140 q 179 200 228 200 z "},"\"":{"ha":498,"x_min":56,"x_max":443,"o":"m 56 1050 q 70 943 60 1022 q 82 847 81 864 l 81 718 l 203 711 l 221 1050 l 56 1050 m 278 1050 q 292 943 282 1022 q 304 847 302 864 l 302 718 l 425 711 l 443 1050 l 278 1050 z "},"#":{"ha":791,"x_min":45,"x_max":760,"o":"m 566 319 l 732 321 l 732 195 l 545 195 l 511 -21 l 400 -7 l 432 195 l 306 195 l 272 -21 l 161 -7 l 193 195 l 45 195 l 45 314 l 212 315 l 235 456 l 72 454 l 72 581 l 254 581 l 288 794 l 399 781 l 367 581 l 493 581 l 526 794 l 637 781 l 606 581 l 760 581 l 760 461 l 587 460 l 566 319 m 347 457 l 325 317 l 452 318 l 472 458 l 347 457 z "},"$":{"ha":753,"x_min":61,"x_max":699,"o":"m 699 252 q 617 63 699 134 q 407 -20 536 -8 l 403 -127 l 313 -123 l 317 -20 q 191 1 248 -14 q 97 31 134 16 q 61 47 61 46 l 82 267 l 180 260 q 180 233 180 253 q 182 199 180 214 q 185 174 180 195 q 191 144 189 154 q 246 121 206 134 q 350 109 286 109 q 439 133 403 109 q 475 205 475 157 q 454 271 475 243 q 402 319 433 298 q 313 370 371 339 q 183 446 233 411 q 98 539 134 481 q 62 684 62 597 q 144 860 62 796 q 355 926 227 924 l 361 1054 l 450 1050 l 444 922 q 656 884 540 913 l 637 672 l 536 677 l 536 753 l 533 770 q 483 797 512 788 q 407 806 453 806 q 319 780 353 806 q 285 710 285 754 q 323 632 285 663 q 443 559 361 602 q 575 484 525 518 q 662 393 625 450 q 699 252 699 335 z "},"%":{"ha":1247,"x_min":25,"x_max":1213,"o":"m 232 -5 l 822 1000 l 920 937 l 330 -68 l 232 -5 m 25 717 q 85 520 25 597 q 267 443 144 443 q 449 520 389 443 q 509 717 509 597 q 449 912 509 836 q 267 989 389 989 q 85 912 144 989 q 25 717 25 836 m 354 717 q 335 588 354 640 q 267 536 315 536 q 180 717 180 536 q 267 897 180 897 q 335 845 315 897 q 354 717 354 793 m 707 269 q 769 68 707 147 q 960 -11 831 -11 q 1151 68 1088 -11 q 1213 269 1213 147 q 1151 472 1213 393 q 960 551 1089 551 q 769 472 831 551 q 707 269 707 393 m 1051 269 q 960 85 1051 85 q 868 269 868 85 q 960 456 868 455 q 1051 269 1051 456 z "},"&":{"ha":1053,"x_min":56,"x_max":1018,"o":"m 1011 -7 q 923 -3 993 -5 q 754 0 852 0 l 732 0 q 676 61 696 41 q 393 -14 561 -14 q 149 50 242 -14 q 56 241 56 113 q 97 389 56 326 q 222 501 139 452 q 142 703 142 607 q 227 863 142 807 q 436 920 313 920 q 563 906 500 920 q 669 876 627 892 l 653 659 l 562 664 l 562 724 q 554 749 562 728 q 543 778 546 771 q 458 790 488 790 q 375 708 375 790 q 406 609 375 659 q 504 492 437 558 q 699 315 571 427 q 707 378 707 345 q 705 422 707 396 q 701 458 703 449 l 633 467 l 640 566 q 708 561 656 564 q 807 558 760 558 q 893 561 854 558 q 943 566 932 564 l 950 467 l 860 458 l 851 371 q 811 216 843 288 l 846 186 q 949 106 905 136 l 1018 98 l 1011 -7 m 282 264 q 329 165 282 199 q 441 132 376 132 q 570 164 508 132 l 494 231 q 329 380 380 330 q 282 264 281 325 z "},"'":{"ha":276,"x_min":56,"x_max":221,"o":"m 56 1050 q 70 943 60 1022 q 82 847 81 864 l 81 718 l 203 711 l 221 1050 l 56 1050 z "},"(":{"ha":441,"x_min":56,"x_max":400,"o":"m 232 440 q 253 214 232 315 q 311 14 273 113 q 352 -56 317 -3 q 400 -126 387 -109 l 325 -187 q 121 99 187 -61 q 56 440 56 258 q 121 782 56 622 q 325 1068 187 942 l 400 1007 q 352 937 388 989 q 311 867 317 885 q 253 667 274 768 q 232 440 232 566 z "},")":{"ha":441,"x_min":41,"x_max":386,"o":"m 210 440 q 189 667 210 566 q 131 867 168 768 q 90 936 125 884 q 41 1007 54 989 l 117 1068 q 320 782 254 942 q 386 440 386 623 q 320 99 386 258 q 117 -187 254 -61 l 41 -126 q 89 -56 54 -108 q 131 14 125 -4 q 189 214 168 112 q 210 440 210 315 z "},"*":{"ha":568,"x_min":50,"x_max":517,"o":"m 450 761 l 513 725 l 471 632 l 346 689 q 339 633 339 644 l 339 561 l 237 550 l 224 686 q 174 665 175 665 l 110 629 l 50 711 l 161 791 q 137 810 149 801 q 118 823 125 819 l 54 861 l 96 954 l 221 899 q 228 951 228 940 l 228 1025 l 329 1036 l 343 900 l 395 921 l 457 957 l 517 875 l 406 796 l 450 761 z "},"+":{"ha":806,"x_min":46,"x_max":761,"o":"m 473 286 l 476 0 l 330 0 l 330 285 l 46 282 l 46 428 l 330 428 l 330 710 l 469 710 l 472 428 l 761 428 l 761 289 l 473 286 z "},",":{"ha":332,"x_min":37,"x_max":272,"o":"m 157 -14 q 37 -144 147 -107 l 54 -189 q 174 -136 125 -177 q 248 -40 224 -96 q 272 72 272 16 q 248 175 272 136 q 167 214 224 214 q 89 183 115 214 q 62 98 62 153 q 87 21 62 52 q 157 -14 111 -11 z "},"-":{"ha":391,"x_min":41,"x_max":350,"o":"m 343 286 l 45 286 l 41 418 l 350 418 l 343 286 z "},".":{"ha":344,"x_min":62,"x_max":282,"o":"m 172 214 q 92 181 121 214 q 62 96 62 149 q 92 11 62 43 q 172 -21 121 -21 q 253 11 224 -21 q 282 96 282 43 q 253 182 282 151 q 172 214 224 214 z "},"/":{"ha":550,"x_min":9,"x_max":564,"o":"m 564 1032 l 140 -90 l 9 -49 l 435 1074 l 564 1032 z "},":":{"ha":330,"x_min":62,"x_max":268,"o":"m 165 676 q 90 646 117 676 q 62 566 62 615 q 90 486 62 515 q 165 456 117 456 q 241 486 214 456 q 268 566 268 515 q 241 647 268 617 q 165 676 214 676 m 165 200 q 90 170 117 200 q 62 89 62 139 q 90 9 62 39 q 165 -21 117 -21 q 241 9 214 -21 q 268 89 268 39 q 241 170 268 140 q 165 200 214 200 z "},";":{"ha":332,"x_min":37,"x_max":272,"o":"m 165 663 q 90 632 117 663 q 62 551 62 602 q 90 471 62 501 q 165 441 117 441 q 241 471 214 441 q 268 551 268 501 q 241 633 268 603 q 165 663 214 663 m 157 -14 q 37 -144 147 -107 l 54 -189 q 174 -136 125 -177 q 248 -40 224 -96 q 272 72 272 16 q 248 175 272 136 q 167 214 224 214 q 89 183 115 214 q 62 98 62 153 q 87 21 62 52 q 157 -14 111 -11 z "},"<":{"ha":668,"x_min":56,"x_max":557,"o":"m 258 346 l 557 608 l 467 713 l 56 346 l 467 -21 l 557 83 l 258 346 z "},"=":{"ha":812,"x_min":90,"x_max":722,"o":"m 90 547 l 90 400 l 722 407 l 722 547 l 90 547 m 90 283 l 90 136 l 722 143 l 722 283 l 90 283 z "},">":{"ha":668,"x_min":111,"x_max":612,"o":"m 410 345 l 111 82 l 201 -22 l 612 345 l 201 711 l 111 607 l 410 345 z "},"?":{"ha":586,"x_min":41,"x_max":586,"o":"m 400 724 q 361 596 400 647 q 257 546 322 546 q 175 550 210 546 l 132 503 l 132 322 l 136 318 q 218 316 181 318 q 275 313 256 314 l 298 335 l 294 446 q 506 524 427 450 q 586 722 586 597 q 500 935 586 860 q 265 1010 415 1010 q 154 997 207 1010 q 41 956 102 983 l 58 750 l 153 757 l 150 807 q 152 846 150 821 q 158 885 154 872 q 252 907 191 907 q 363 856 326 907 q 400 724 400 806 m 210 200 q 134 170 161 200 q 107 89 107 139 q 134 9 107 39 q 210 -21 161 -21 q 286 9 258 -21 q 313 89 313 39 q 286 170 313 140 q 210 200 258 200 z "},"@":{"ha":1324,"x_min":41,"x_max":1283,"o":"m 775 100 q 694 13 742 39 q 583 -14 646 -14 q 434 39 489 -14 q 379 183 379 92 q 424 310 379 262 q 562 375 468 358 l 760 407 l 760 449 q 739 549 760 513 q 663 586 718 586 q 605 576 635 586 q 553 555 575 567 l 547 501 l 549 433 l 444 429 l 424 661 q 474 673 435 664 q 568 690 513 682 q 671 699 623 699 q 881 632 808 699 q 954 449 954 566 l 954 268 q 959 168 954 225 q 966 93 964 111 l 965 92 q 1084 203 1044 111 q 1124 399 1124 294 q 1069 624 1124 526 q 911 777 1014 722 q 669 831 808 831 q 387 747 489 831 q 247 550 285 664 q 210 322 210 436 q 323 -46 210 90 q 676 -182 436 -183 q 812 -158 708 -182 q 951 -123 916 -134 l 974 -176 q 900 -214 957 -186 q 777 -269 843 -243 q 676 -296 710 -296 q 300 -206 441 -296 q 100 22 158 -117 q 41 322 41 161 q 106 619 41 482 q 311 841 171 755 q 669 926 452 926 q 994 864 855 926 q 1207 682 1132 802 q 1283 399 1283 562 q 1236 221 1283 310 q 1099 71 1189 132 q 888 0 1008 9 l 786 0 l 775 100 m 657 297 q 601 270 618 290 q 585 211 585 250 q 603 149 585 168 q 660 129 621 129 q 731 157 706 129 q 760 240 757 184 l 760 317 l 657 297 z "},"A":{"ha":926,"x_min":1,"x_max":928,"o":"m 921 -7 q 872 -3 909 -5 q 804 0 835 0 q 622 -3 701 0 q 521 -7 542 -5 l 514 94 l 596 107 l 589 179 l 570 249 l 307 249 l 283 160 l 275 107 l 355 90 l 349 -7 q 288 -3 335 -5 q 201 0 241 0 q 75 -3 127 0 q 8 -7 22 -5 l 1 94 l 64 104 l 122 224 l 385 979 l 541 994 l 818 178 l 850 103 l 928 90 l 921 -7 m 444 692 l 345 363 l 533 366 l 444 692 z "},"B":{"ha":879,"x_min":71,"x_max":844,"o":"m 489 993 q 645 964 574 993 q 759 882 717 936 q 802 754 802 828 q 748 600 802 664 q 608 515 694 536 l 608 505 q 780 428 715 488 q 844 262 844 367 q 750 62 844 130 q 513 -7 656 -7 q 355 -3 442 -7 q 205 0 244 0 q 127 -3 165 0 q 78 -7 89 -5 l 71 90 l 154 107 q 162 168 158 130 q 167 227 167 207 l 167 711 q 163 797 167 753 q 154 865 160 842 l 72 882 l 79 986 q 129 982 90 985 q 207 979 167 979 q 346 986 256 979 q 422 990 375 987 q 489 993 469 993 m 386 873 q 383 818 385 854 q 382 753 382 781 l 382 268 q 386 111 382 170 q 464 107 423 107 q 586 154 541 107 q 632 282 632 200 q 449 444 632 445 l 435 444 l 444 566 l 453 566 q 561 609 522 566 q 600 737 600 653 q 559 838 600 797 q 454 879 518 879 q 386 873 431 879 z "},"C":{"ha":884,"x_min":37,"x_max":836,"o":"m 836 26 q 674 -8 745 4 q 524 -21 603 -21 q 256 42 366 -21 q 92 221 147 106 q 37 489 37 336 q 92 757 37 642 q 257 936 147 872 q 524 1000 367 1000 q 662 989 602 1000 q 823 953 722 978 l 807 704 l 700 710 l 696 794 q 679 851 696 808 q 524 871 590 871 q 345 767 403 871 q 288 490 288 663 q 345 213 288 318 q 522 109 401 109 q 694 129 602 109 q 707 162 697 136 q 717 197 717 189 l 721 262 l 825 265 l 836 26 z "},"D":{"ha":1026,"x_min":62,"x_max":989,"o":"m 500 993 q 768 930 659 993 q 933 753 878 867 q 989 489 989 640 q 933 229 989 340 q 767 54 878 117 q 500 -8 657 -8 q 416 -7 454 -8 q 351 -4 379 -5 q 208 0 275 0 q 125 -3 168 0 q 69 -7 82 -5 l 62 90 l 154 107 q 161 166 155 123 q 167 227 167 210 l 167 711 q 162 803 167 754 q 154 865 157 851 l 64 882 l 71 986 q 126 982 83 985 q 210 979 170 979 q 354 986 261 979 q 428 990 380 987 q 500 993 476 993 m 481 878 q 387 867 451 878 q 382 753 382 772 l 382 268 q 387 111 382 178 q 478 107 433 107 q 691 211 625 107 q 757 492 757 315 q 691 771 757 665 q 481 878 625 878 z "},"E":{"ha":855,"x_min":62,"x_max":807,"o":"m 71 986 q 133 982 86 985 q 210 979 179 979 l 582 979 q 660 985 600 979 q 741 993 720 990 l 766 968 l 777 751 l 676 745 q 664 827 668 811 q 650 860 660 845 q 541 865 594 865 l 387 865 q 382 753 382 766 l 382 554 q 418 553 395 553 l 496 553 q 533 557 514 553 q 557 566 551 562 l 570 654 l 656 647 l 654 532 q 656 424 654 475 q 659 355 657 374 l 570 347 l 557 431 q 516 435 547 432 q 468 439 485 439 l 425 439 q 382 437 392 439 l 382 268 q 386 121 382 204 l 559 121 q 667 132 611 121 q 693 192 685 165 q 710 271 705 239 l 807 264 l 786 20 l 760 -5 q 688 -2 739 -4 q 602 0 637 0 l 210 0 q 121 -3 159 -1 q 69 -7 82 -5 l 62 90 l 154 107 q 162 162 157 118 q 167 227 167 205 l 167 711 q 154 865 167 813 l 64 882 l 71 986 z "},"F":{"ha":790,"x_min":62,"x_max":777,"o":"m 741 993 q 660 985 720 990 q 582 979 600 979 l 210 979 q 126 982 170 979 q 71 986 83 985 l 64 882 l 154 865 q 162 804 158 848 q 167 711 167 760 l 167 227 q 162 162 167 205 q 154 107 157 118 l 62 90 l 69 -7 q 125 -3 81 -5 q 208 0 168 0 q 400 -3 307 0 q 519 -7 493 -5 l 526 98 l 395 107 q 386 171 391 127 q 382 264 382 215 l 382 422 q 416 424 393 424 l 468 424 q 516 420 485 424 q 557 415 547 416 l 570 332 l 659 340 q 656 409 657 359 q 654 517 654 460 l 656 632 l 570 639 l 557 550 q 533 543 551 547 q 496 538 514 538 l 415 538 q 382 539 397 538 l 382 753 q 387 865 382 765 l 541 865 q 652 859 582 865 q 664 827 664 828 q 676 745 668 811 l 777 751 l 766 968 l 741 993 z "},"G":{"ha":970,"x_min":37,"x_max":890,"o":"m 547 1000 q 694 989 631 1000 q 865 953 757 978 l 847 724 l 737 729 l 733 794 q 717 851 733 808 q 547 871 623 871 q 351 766 415 871 q 288 490 288 661 q 351 213 288 318 q 546 109 414 109 q 682 119 608 109 q 692 178 692 164 l 692 272 q 686 319 692 290 q 677 357 681 347 l 530 368 l 538 504 l 692 504 q 785 506 736 504 q 851 509 833 509 l 890 473 q 883 383 888 451 q 878 272 878 315 l 878 26 q 706 -8 781 4 q 547 -21 631 -21 q 267 42 382 -21 q 95 221 153 106 q 37 489 37 336 q 95 757 37 642 q 267 936 153 872 q 547 1000 382 1000 z "},"H":{"ha":1148,"x_min":62,"x_max":1086,"o":"m 994 865 q 986 808 990 843 q 982 753 982 772 l 982 268 q 994 107 982 194 l 1084 98 l 1078 -7 q 982 -3 1058 -5 q 808 0 907 0 q 725 -3 768 0 q 669 -7 682 -5 l 663 90 l 754 107 q 761 160 755 115 q 766 227 766 205 l 766 419 l 382 419 l 382 268 q 395 107 382 194 l 485 98 l 478 -7 q 383 -3 458 -5 q 208 0 307 0 q 125 -3 168 0 q 69 -7 82 -5 l 62 90 l 154 107 q 161 160 155 115 q 167 227 167 205 l 167 711 q 160 817 167 772 q 154 865 154 861 l 64 882 l 71 986 q 126 982 83 985 q 210 979 170 979 q 384 982 308 979 q 479 986 460 985 l 486 873 l 395 865 q 386 808 391 843 q 382 753 382 772 l 382 541 l 766 546 l 766 711 q 760 817 766 772 q 754 865 754 861 l 664 882 l 671 986 q 726 982 683 985 q 810 979 770 979 q 984 982 908 979 q 1079 986 1060 985 l 1086 873 l 994 865 z "},"I":{"ha":562,"x_min":69,"x_max":493,"o":"m 401 865 q 393 808 397 843 q 389 753 389 772 l 389 268 q 401 107 389 194 l 492 98 l 485 -7 q 390 -3 465 -5 q 215 0 314 0 q 132 -3 175 0 q 77 -7 89 -5 l 69 90 l 161 107 q 168 160 163 115 q 174 227 174 205 l 174 711 q 168 817 174 772 q 161 865 161 861 l 71 882 l 78 986 q 133 982 90 985 q 216 979 176 979 q 391 982 315 979 q 486 986 467 985 l 493 873 l 401 865 z "},"J":{"ha":515,"x_min":45,"x_max":469,"o":"m 378 865 q 370 808 374 846 q 366 753 366 771 l 366 14 q 297 -98 366 -18 q 119 -278 228 -178 l 45 -235 q 106 -101 62 -200 q 150 16 150 -3 l 150 711 q 146 801 150 758 q 138 865 142 844 l 47 882 l 54 986 q 110 982 66 985 q 193 979 153 979 q 367 982 292 979 q 463 986 443 985 l 469 873 l 378 865 z "},"K":{"ha":1043,"x_min":66,"x_max":1050,"o":"m 475 986 q 381 982 456 985 q 208 979 306 979 q 126 982 167 979 q 75 986 86 985 l 68 882 l 154 865 q 160 817 154 861 q 167 711 167 772 l 167 227 q 161 160 167 205 q 154 107 155 115 l 66 90 l 74 -7 q 125 -3 85 -5 q 207 0 165 0 q 378 -3 304 0 q 472 -7 453 -5 l 479 98 l 395 107 q 382 268 382 195 l 382 753 q 386 808 382 772 q 395 865 390 843 l 482 873 l 475 986 m 1043 -7 q 940 -3 1021 -5 q 762 0 860 0 q 681 -3 721 0 q 631 -7 642 -5 l 624 90 l 677 102 q 596 228 618 197 q 496 352 578 249 q 387 490 415 454 l 612 802 l 652 873 l 608 882 l 615 986 q 667 982 626 985 q 750 979 708 979 q 906 982 846 979 q 981 986 966 985 l 987 873 l 907 865 q 802 758 843 804 l 623 514 l 722 397 l 907 179 q 983 107 918 165 l 1050 98 l 1043 -7 z "},"L":{"ha":785,"x_min":62,"x_max":771,"o":"m 395 865 q 386 808 390 843 q 382 753 382 772 l 382 268 q 393 121 382 199 l 524 121 q 631 132 578 121 q 657 192 656 186 q 673 271 669 239 l 771 264 l 750 20 l 724 -5 q 652 -2 703 -4 q 566 0 602 0 l 208 0 q 125 -3 168 0 q 69 -7 82 -5 l 62 90 l 154 107 q 161 160 155 115 q 167 227 167 205 l 167 711 q 160 817 167 772 q 154 865 154 861 l 64 882 l 71 986 q 126 982 83 985 q 210 979 170 979 q 384 982 308 979 q 479 986 460 985 l 486 873 l 395 865 z "},"M":{"ha":1361,"x_min":52,"x_max":1310,"o":"m 1059 979 q 1163 982 1103 979 q 1242 986 1223 985 l 1247 886 l 1158 871 q 1154 790 1154 833 l 1198 183 q 1203 156 1200 170 q 1210 132 1207 142 l 1217 103 l 1310 94 l 1303 -7 q 1216 -3 1284 -5 q 1053 0 1147 0 q 970 -3 1017 0 q 909 -7 924 -5 l 903 86 l 996 103 q 1002 225 1001 167 l 979 720 l 724 0 l 596 0 l 347 720 l 321 225 q 326 103 321 167 l 421 94 l 412 -7 q 347 -3 400 -5 q 199 0 293 0 q 117 -3 163 0 q 58 -7 72 -5 l 52 86 l 146 103 q 165 183 151 121 l 204 790 q 196 869 204 819 l 103 886 l 110 986 q 173 982 125 985 q 257 979 220 979 l 453 979 l 481 951 q 506 861 488 926 q 541 742 524 796 l 684 307 l 839 762 q 871 866 852 805 q 896 951 889 926 l 924 979 l 1059 979 z "},"N":{"ha":1114,"x_min":62,"x_max":1086,"o":"m 1079 986 q 989 982 1059 985 q 848 979 920 979 l 710 986 l 703 882 l 793 865 q 806 711 805 766 l 806 319 l 500 746 q 441 845 488 766 q 378 951 395 924 l 351 979 l 210 979 q 126 982 170 979 q 71 986 83 985 l 64 882 l 154 865 q 162 800 158 844 q 167 711 167 755 l 167 227 q 162 168 167 208 q 154 107 157 127 l 62 90 l 69 -7 q 125 -3 81 -5 q 208 0 168 0 q 366 -3 307 0 q 439 -7 425 -5 l 446 98 l 355 107 q 349 160 355 111 q 343 268 343 210 l 343 625 l 794 0 l 982 0 l 982 268 l 982 753 q 987 808 982 771 q 994 865 991 844 l 1086 873 l 1079 986 z "},"O":{"ha":1066,"x_min":37,"x_max":1029,"o":"m 1029 489 q 968 218 1029 334 q 794 38 907 102 q 533 -26 682 -26 q 272 38 385 -26 q 99 218 160 102 q 37 489 37 334 q 99 761 37 644 q 272 942 160 878 q 533 1006 383 1006 q 795 942 683 1006 q 968 761 907 878 q 1029 489 1029 644 m 288 489 q 348 202 288 296 q 533 109 408 109 q 719 202 658 109 q 779 489 779 296 q 719 777 779 684 q 533 871 659 871 q 348 777 408 871 q 288 489 288 684 z "},"P":{"ha":855,"x_min":62,"x_max":835,"o":"m 382 376 l 382 268 q 395 107 382 194 l 498 98 l 492 -7 q 388 -3 469 -5 q 208 0 307 0 q 125 -3 168 0 q 69 -7 82 -5 l 62 90 l 154 107 q 161 160 155 115 q 167 227 167 205 l 167 711 q 160 817 167 772 q 154 865 154 861 l 64 882 l 71 986 q 125 982 83 985 q 208 979 168 979 q 285 982 236 979 q 358 986 334 985 q 507 993 451 993 q 745 912 656 993 q 835 689 835 832 q 783 523 835 593 q 644 414 730 452 q 458 376 558 376 l 382 376 m 611 690 q 567 834 611 789 q 427 879 524 879 l 389 878 q 382 753 382 787 l 382 490 l 406 490 q 556 543 501 490 q 611 690 611 596 z "},"Q":{"ha":1075,"x_min":37,"x_max":1074,"o":"m 533 -26 q 272 38 385 -26 q 99 218 160 102 q 37 489 37 334 q 99 761 37 644 q 272 942 160 878 q 533 1006 383 1006 q 795 942 683 1006 q 968 761 907 878 q 1029 489 1029 644 q 958 200 1029 322 q 758 20 886 78 l 854 -45 q 956 -90 868 -53 q 1074 -139 1043 -126 l 949 -311 l 562 -26 l 533 -26 m 288 489 q 348 202 288 296 q 533 109 408 109 q 719 202 658 109 q 779 489 779 296 q 719 777 779 684 q 533 871 659 871 q 348 777 408 871 q 288 489 288 684 z "},"R":{"ha":918,"x_min":62,"x_max":920,"o":"m 913 -7 q 820 -3 893 -5 q 647 0 746 0 q 614 81 639 21 q 579 161 590 140 l 464 385 l 443 385 q 382 389 419 385 l 382 268 q 395 107 382 194 l 485 98 l 478 -7 q 383 -3 458 -5 q 208 0 307 0 q 125 -3 168 0 q 69 -7 82 -5 l 62 90 l 154 107 q 161 160 155 115 q 167 227 167 205 l 167 711 q 154 865 167 787 l 64 882 l 71 986 q 127 982 83 985 q 214 979 171 979 q 291 982 243 979 q 361 986 339 985 q 500 993 447 993 q 736 915 647 993 q 825 700 825 836 q 780 547 825 614 q 657 436 734 479 q 754 263 707 336 q 804 182 800 189 l 852 104 l 920 98 l 913 -7 m 415 501 q 557 550 512 501 q 602 697 602 599 q 557 834 602 789 q 419 879 513 879 l 390 878 q 382 753 382 794 l 382 501 l 415 501 z "},"S":{"ha":795,"x_min":61,"x_max":742,"o":"m 199 210 q 218 153 199 200 q 368 114 292 114 q 472 144 431 114 q 513 231 513 174 q 489 303 513 272 q 430 356 465 335 q 330 410 395 378 q 196 485 248 450 q 107 579 144 521 q 71 724 71 637 q 112 870 71 807 q 228 967 154 933 q 397 1000 302 1000 q 703 950 536 1000 l 684 682 l 568 689 l 568 791 q 551 839 568 798 q 498 863 524 854 q 439 871 472 871 q 337 841 375 871 q 300 758 300 811 q 323 692 300 721 q 380 643 346 664 q 476 593 415 623 q 613 518 559 553 q 704 425 667 484 q 742 283 742 367 q 694 122 742 191 q 566 16 647 53 q 385 -21 485 -21 q 229 -6 301 -21 q 109 26 157 8 q 61 46 61 45 l 82 314 l 197 307 l 199 210 z "},"T":{"ha":869,"x_min":14,"x_max":857,"o":"m 757 730 q 745 827 753 796 q 732 859 745 828 q 627 865 669 865 l 555 865 q 547 807 551 842 q 543 753 543 772 l 543 268 q 555 107 543 194 l 646 98 l 639 -7 q 544 -3 619 -5 q 370 0 468 0 q 286 -3 330 0 q 231 -7 243 -5 l 224 90 l 315 107 q 322 160 317 115 q 328 227 328 205 l 328 711 q 322 814 328 768 q 315 865 317 860 l 250 865 q 139 859 209 865 q 126 827 127 828 q 114 730 118 796 l 14 737 l 24 968 l 50 993 q 131 985 71 990 q 208 979 191 979 l 661 979 q 739 985 678 979 q 819 993 799 990 l 846 968 l 857 737 l 757 730 z "},"U":{"ha":1082,"x_min":36,"x_max":1047,"o":"m 956 865 q 947 808 951 843 q 943 753 943 772 l 943 372 q 839 85 943 191 q 541 -21 734 -21 q 242 85 346 -21 q 139 372 139 191 l 139 711 q 135 802 139 758 q 126 865 131 846 l 36 882 l 43 986 q 98 982 55 985 q 182 979 142 979 q 359 982 280 979 q 458 986 437 985 l 465 873 l 374 865 q 366 813 371 853 q 361 753 361 772 l 361 361 q 414 201 361 264 q 564 138 468 138 q 714 195 669 138 q 760 361 760 252 l 760 711 q 747 865 760 772 l 657 882 l 664 986 q 719 982 676 985 q 803 979 762 979 q 963 982 901 979 q 1040 986 1025 985 l 1047 873 l 956 865 z "},"V":{"ha":981,"x_min":-1,"x_max":979,"o":"m 119 802 q 99 846 111 823 q 82 876 86 869 l -1 889 l 5 986 q 60 982 18 985 q 134 979 102 979 q 315 982 232 979 q 422 986 399 985 l 429 885 l 339 872 q 342 840 339 864 q 350 800 345 815 l 511 288 l 688 819 q 695 853 693 838 q 697 872 697 868 l 608 889 l 615 986 q 679 982 631 985 q 768 979 728 979 q 899 982 840 979 q 972 986 957 985 l 979 885 l 909 875 q 879 822 901 863 q 847 755 857 782 l 570 0 l 410 0 l 119 802 z "},"W":{"ha":1429,"x_min":3,"x_max":1422,"o":"m 1353 875 q 1327 827 1346 864 q 1297 755 1308 790 l 1055 0 l 896 0 l 718 587 l 532 0 l 372 0 l 118 802 q 99 849 110 828 q 86 876 89 871 l 3 889 l 9 986 q 64 982 22 985 q 138 979 106 979 q 319 982 236 979 q 427 986 403 985 l 433 885 l 343 872 q 343 844 343 867 q 349 800 343 822 l 473 288 l 659 937 l 815 937 l 997 288 l 1137 819 q 1141 852 1141 831 q 1141 866 1141 861 q 1140 872 1140 871 l 1051 889 l 1059 986 q 1122 982 1074 985 q 1211 979 1171 979 q 1341 982 1283 979 q 1415 986 1400 985 l 1422 885 l 1353 875 z "},"X":{"ha":968,"x_min":9,"x_max":974,"o":"m 86 878 l 12 889 l 21 986 q 76 982 33 985 q 151 979 119 979 q 326 982 250 979 q 422 986 401 985 l 427 884 l 368 876 q 425 771 400 806 l 504 652 l 599 803 q 639 878 617 829 l 582 889 l 590 986 q 646 982 602 985 q 729 979 689 979 q 860 982 801 979 q 933 986 918 985 l 939 884 l 848 872 q 766 790 779 806 l 593 525 l 835 183 q 903 106 882 127 l 974 98 l 965 -7 q 868 -3 944 -5 q 694 0 793 0 q 624 -3 663 0 q 572 -7 585 -5 l 567 90 l 618 100 q 564 197 582 174 l 456 351 l 342 183 q 298 104 325 158 l 367 98 l 358 -7 q 284 -3 342 -5 q 154 0 227 0 q 71 -3 114 0 q 16 -7 28 -5 l 9 90 l 82 103 q 196 228 178 203 l 368 476 l 160 775 l 86 878 z "},"Y":{"ha":989,"x_min":-8,"x_max":986,"o":"m 903 875 q 863 823 893 863 q 817 755 832 783 l 604 347 l 604 268 q 616 107 604 194 l 707 98 l 700 -7 q 605 -3 680 -5 q 431 0 529 0 q 348 -3 391 0 q 292 -7 304 -5 l 285 90 l 376 107 q 383 160 378 115 q 389 227 389 205 l 389 346 l 142 802 q 106 846 130 823 q 75 876 83 869 l -8 889 l -1 986 q 53 982 11 985 q 126 979 94 979 q 308 982 224 979 q 415 986 392 985 l 422 885 l 349 872 q 357 841 350 865 q 372 800 364 817 l 518 513 l 671 819 q 675 846 675 826 q 676 872 676 865 l 615 889 l 623 986 q 686 982 638 985 q 775 979 734 979 q 905 982 847 979 q 979 986 964 985 l 986 885 l 903 875 z "},"Z":{"ha":848,"x_min":45,"x_max":803,"o":"m 298 856 q 183 848 252 855 l 165 810 q 154 758 160 787 q 144 704 147 728 l 45 711 l 54 968 l 82 993 q 164 985 103 990 q 241 979 225 979 l 768 979 l 782 868 l 633 644 l 416 294 l 328 123 l 546 123 q 663 135 604 123 q 690 200 689 189 q 708 282 706 256 l 803 275 l 782 20 l 754 -5 q 682 -2 733 -4 q 595 0 631 0 l 58 0 l 45 111 q 121 215 64 138 q 199 329 178 293 l 441 717 l 511 856 l 298 856 z "},"[":{"ha":368,"x_min":56,"x_max":326,"o":"m 218 835 q 223 909 218 869 q 231 960 228 949 l 326 972 l 322 1064 q 223 1061 298 1063 q 89 1059 149 1059 l 56 1018 q 59 899 57 982 q 62 765 61 817 l 62 131 q 59 -7 61 78 q 56 -127 57 -92 l 89 -168 q 223 -170 149 -168 q 322 -174 298 -172 l 326 -82 l 231 -69 q 223 -19 228 -58 q 218 56 218 21 l 218 835 z "},"\\":{"ha":553,"x_min":-9,"x_max":545,"o":"m 119 1074 l 545 -49 l 414 -90 l -9 1032 l 119 1074 z "},"]":{"ha":368,"x_min":41,"x_max":313,"o":"m 150 56 q 145 -19 150 21 q 138 -69 140 -58 l 41 -82 l 46 -174 q 145 -170 70 -172 q 279 -168 220 -168 l 313 -127 q 309 -7 311 -92 q 306 131 307 78 l 306 765 q 309 899 307 817 q 313 1018 311 982 l 279 1059 q 144 1061 220 1059 q 46 1064 69 1063 l 41 972 l 138 960 q 145 909 140 949 q 150 835 150 869 l 150 56 z "},"^":{"ha":817,"x_min":28,"x_max":789,"o":"m 151 436 l 408 803 l 665 436 l 789 518 l 408 1017 l 28 518 l 151 436 z "},"_":{"ha":700,"x_min":0,"x_max":700,"o":"m 693 -322 l 3 -322 l 0 -191 l 700 -191 l 693 -322 z "},"`":{"ha":500,"x_min":74,"x_max":427,"o":"m 268 852 q 164 901 228 872 q 74 943 100 930 l 139 1048 l 427 865 l 361 785 l 268 852 z "},"a":{"ha":726,"x_min":39,"x_max":710,"o":"m 435 100 q 356 14 403 41 q 243 -14 309 -14 q 94 39 149 -14 q 39 183 39 92 q 222 375 39 346 l 419 407 l 419 447 q 396 544 419 515 q 315 572 372 572 q 258 565 290 572 q 203 546 227 557 l 193 490 l 195 431 l 90 427 l 69 661 q 205 688 133 677 q 323 699 278 699 q 537 633 461 699 q 614 449 614 567 l 614 268 q 619 174 614 225 q 627 107 624 122 l 710 98 l 701 -7 q 625 -3 688 -5 q 446 0 562 0 l 435 100 m 317 300 q 261 273 278 293 q 244 214 244 253 q 319 129 244 129 q 382 153 355 129 q 419 218 410 176 l 419 317 l 317 300 z "},"b":{"ha":797,"x_min":-11,"x_max":762,"o":"m 1 1064 q 73 1056 18 1061 q 164 1050 127 1050 l 286 1053 l 315 1026 q 307 907 313 997 q 301 774 301 817 l 301 602 q 386 674 338 649 q 498 699 433 699 q 699 604 635 699 q 762 353 762 509 q 673 83 762 179 q 414 -14 583 -14 q 93 36 262 -14 q 101 136 96 62 q 107 227 107 210 l 107 815 q 101 877 107 833 q 93 936 96 921 l -11 960 l 1 1064 m 424 542 q 301 361 311 541 l 301 268 q 306 136 301 244 q 397 118 363 118 q 512 174 482 118 q 542 335 542 229 q 517 486 542 429 q 424 542 493 542 z "},"c":{"ha":647,"x_min":35,"x_max":633,"o":"m 375 699 q 484 691 429 699 q 575 676 539 684 q 621 665 611 668 l 600 419 l 482 424 l 484 498 q 478 553 481 534 q 435 579 460 570 q 387 589 410 589 q 288 528 319 589 q 256 340 256 468 q 422 114 256 114 q 502 124 465 114 q 558 144 538 134 q 585 158 579 154 l 633 78 q 515 5 581 31 q 382 -21 449 -21 q 123 72 212 -21 q 35 340 35 164 q 125 603 35 507 q 375 699 216 699 z "},"d":{"ha":817,"x_min":33,"x_max":785,"o":"m 777 -7 q 700 -3 762 -5 q 521 0 637 0 l 510 104 q 416 14 467 42 q 297 -14 366 -14 q 102 77 171 -14 q 33 332 33 167 q 124 603 33 507 q 382 699 215 699 q 494 692 428 699 l 494 815 q 489 877 494 833 q 481 936 484 921 l 376 960 l 389 1064 q 460 1056 406 1061 q 551 1050 515 1050 l 673 1053 l 703 1026 q 694 907 700 997 q 689 774 689 817 l 689 268 q 694 174 689 225 q 701 107 699 122 l 785 98 l 777 -7 m 494 549 q 399 567 439 567 q 288 515 322 567 q 254 350 254 464 q 283 194 254 244 q 372 143 311 143 q 494 323 484 143 l 494 549 z "},"e":{"ha":691,"x_min":35,"x_max":661,"o":"m 257 307 q 306 157 264 201 q 431 113 347 113 q 513 123 475 113 q 571 144 550 134 q 599 158 593 154 l 647 78 q 375 -21 537 -20 q 125 73 215 -21 q 35 336 35 167 q 125 604 35 509 q 370 699 216 699 q 585 618 509 699 q 661 395 661 538 l 660 361 l 631 307 l 257 307 m 441 431 q 354 589 441 589 q 282 542 304 589 q 257 410 260 496 l 440 419 l 441 431 z "},"f":{"ha":501,"x_min":49,"x_max":595,"o":"m 390 1069 q 523 1060 450 1069 q 595 1050 595 1051 l 574 818 l 471 822 l 471 885 q 465 946 471 905 q 414 957 440 957 q 349 919 365 957 q 334 791 334 882 l 334 686 l 488 686 l 475 582 l 334 582 l 334 268 q 338 174 334 225 q 346 107 343 122 l 464 98 l 457 -7 q 365 -3 437 -5 q 195 0 293 0 q 111 -3 155 0 q 56 -7 68 -5 l 49 90 l 126 107 q 133 166 127 123 q 139 227 139 210 l 139 582 l 60 582 l 56 669 q 94 681 87 679 q 115 688 104 685 q 139 696 126 692 l 139 806 q 170 942 139 882 q 258 1036 201 1002 q 390 1069 315 1069 z "},"g":{"ha":728,"x_min":37,"x_max":715,"o":"m 619 581 q 647 522 639 551 q 656 450 656 492 q 618 317 656 375 q 513 228 581 260 q 357 196 446 196 q 262 207 307 196 q 243 170 243 183 q 269 135 243 147 q 358 117 296 123 q 560 93 503 101 q 643 75 618 85 q 715 -54 715 47 q 666 -192 715 -130 q 531 -290 616 -254 q 343 -326 446 -326 q 115 -276 192 -326 q 37 -127 37 -227 q 73 -72 37 -105 q 165 -5 109 -39 q 120 47 135 17 q 106 122 106 78 q 191 233 106 150 q 97 320 131 265 q 64 444 64 375 q 101 577 64 519 q 206 667 139 635 q 363 699 273 699 q 514 669 450 699 l 696 700 l 701 581 l 619 581 m 363 607 q 275 441 275 607 q 358 288 275 288 q 424 328 403 288 q 444 453 444 368 q 424 569 444 531 q 363 607 404 607 m 248 -39 q 222 -106 222 -73 q 269 -187 222 -159 q 404 -215 315 -215 q 508 -192 469 -215 q 546 -127 546 -168 q 534 -96 546 -108 q 500 -81 522 -83 l 319 -53 q 248 -39 273 -46 z "},"h":{"ha":876,"x_min":17,"x_max":867,"o":"m 29 1064 q 101 1056 46 1061 q 192 1050 155 1050 l 314 1053 l 343 1026 q 333 896 338 970 q 329 774 329 821 l 329 604 q 518 699 406 699 q 701 635 639 699 q 764 452 764 572 l 764 268 q 769 174 764 225 q 777 107 774 122 l 867 98 l 860 -7 q 777 -3 843 -5 q 611 0 710 0 q 536 -3 571 0 q 492 -7 501 -5 l 485 90 l 562 107 l 567 168 l 570 227 l 570 432 q 544 524 570 489 q 467 559 518 559 q 370 508 411 559 q 329 368 329 457 l 329 268 q 334 174 329 225 q 342 107 339 122 l 432 98 l 425 -7 q 342 -3 408 -5 q 176 0 275 0 q 93 -3 136 0 q 37 -7 50 -5 l 31 90 l 122 107 q 130 168 125 128 q 135 227 135 208 l 135 815 q 129 877 135 833 q 121 936 123 921 l 17 960 l 29 1064 z "},"i":{"ha":460,"x_min":24,"x_max":439,"o":"m 235 1021 q 315 991 286 1021 q 345 909 345 961 q 316 830 345 859 q 235 800 288 800 q 153 830 182 800 q 125 909 125 860 q 154 990 125 960 q 235 1021 183 1021 m 432 -7 q 349 -3 415 -5 q 183 0 282 0 q 100 -3 143 0 q 45 -7 57 -5 l 37 90 l 129 107 q 136 166 130 123 q 142 227 142 210 l 142 452 q 136 513 142 470 q 127 572 131 557 l 24 596 l 36 699 q 108 691 53 696 q 199 686 163 686 l 321 689 l 350 663 q 342 543 347 633 q 336 410 336 453 l 336 268 q 341 174 336 225 q 349 107 346 122 l 439 98 l 432 -7 z "},"j":{"ha":427,"x_min":7,"x_max":334,"o":"m 210 1021 q 290 991 261 1021 q 319 909 319 961 q 291 830 319 859 q 210 800 262 800 q 128 830 157 800 q 100 909 100 860 q 129 990 100 960 q 210 1021 158 1021 m 20 699 q 91 691 36 696 q 182 686 146 686 l 304 689 l 334 663 q 325 543 331 633 q 319 410 319 453 l 319 -14 q 267 -108 319 -39 q 160 -242 215 -178 q 86 -326 104 -307 l 21 -290 q 54 -204 29 -271 q 102 -67 79 -138 q 125 29 125 4 l 125 163 l 125 452 q 119 513 125 470 q 111 572 114 557 l 7 596 l 20 699 z "},"k":{"ha":848,"x_min":17,"x_max":846,"o":"m 29 1064 q 101 1056 46 1061 q 192 1050 155 1050 l 314 1053 l 343 1026 q 333 896 338 970 q 329 774 329 821 l 329 268 q 334 174 329 225 q 342 107 339 122 l 432 98 l 425 -7 q 342 -3 408 -5 q 176 0 275 0 q 93 -3 136 0 q 37 -7 50 -5 l 31 90 l 122 107 q 130 168 125 128 q 135 227 135 208 l 135 815 q 129 877 135 833 q 121 936 123 921 l 17 960 l 29 1064 m 450 693 q 540 689 471 692 q 671 686 610 686 q 767 688 720 686 q 832 692 815 690 l 829 595 l 755 587 q 682 542 709 561 q 642 509 654 524 l 549 389 l 653 225 q 721 151 663 210 l 762 107 l 846 98 l 838 -7 q 778 -3 825 -5 q 681 0 730 0 l 545 0 l 504 83 l 498 94 l 468 153 l 345 368 l 518 586 l 443 595 l 450 693 z "},"l":{"ha":456,"x_min":17,"x_max":432,"o":"m 29 1064 q 101 1056 46 1061 q 192 1050 155 1050 l 314 1053 l 343 1026 q 333 896 338 970 q 329 774 329 821 l 329 268 q 334 174 329 225 q 342 107 339 122 l 432 98 l 425 -7 q 342 -3 408 -5 q 176 0 275 0 q 93 -3 136 0 q 37 -7 50 -5 l 31 90 l 122 107 q 130 168 125 128 q 135 227 135 208 l 135 815 q 129 877 135 833 q 121 936 123 921 l 17 960 l 29 1064 z "},"m":{"ha":1274,"x_min":24,"x_max":1264,"o":"m 1257 -7 q 1173 -3 1240 -5 q 1008 0 1107 0 q 933 -3 968 0 q 889 -7 899 -5 l 882 90 l 960 107 l 964 168 l 966 227 l 966 432 q 944 525 966 490 q 875 559 922 559 q 786 508 823 559 q 749 368 749 457 l 749 268 q 753 174 749 225 q 761 107 758 122 l 851 98 l 844 -7 q 761 -3 827 -5 q 596 0 694 0 q 521 -3 556 0 q 476 -7 486 -5 l 469 90 l 547 107 l 551 168 l 554 227 l 554 432 q 532 525 554 490 q 463 559 510 559 q 374 508 411 559 q 336 368 336 457 l 336 268 q 341 174 336 225 q 349 107 346 122 l 439 98 l 432 -7 q 349 -3 415 -5 q 183 0 282 0 q 100 -3 143 0 q 45 -7 57 -5 l 37 90 l 129 107 q 136 165 130 123 q 142 227 142 208 l 142 452 q 136 513 142 469 q 127 572 131 557 l 24 596 l 36 699 q 108 691 53 696 q 199 686 163 686 l 265 689 l 294 663 l 309 566 q 404 664 350 629 q 528 699 457 699 q 728 576 679 699 q 940 699 812 699 q 1105 635 1048 699 q 1161 452 1161 572 l 1161 268 q 1166 174 1161 225 q 1174 107 1171 122 l 1264 98 l 1257 -7 z "},"n":{"ha":883,"x_min":24,"x_max":873,"o":"m 867 -7 q 783 -3 850 -5 q 618 0 717 0 q 543 -3 578 0 q 498 -7 509 -5 l 492 90 l 570 107 l 574 168 l 576 227 l 576 432 q 551 524 576 489 q 473 559 525 559 q 377 508 418 559 q 336 368 336 457 l 336 268 q 341 174 336 225 q 349 107 346 122 l 439 98 l 432 -7 q 349 -3 415 -5 q 183 0 282 0 q 100 -3 143 0 q 45 -7 57 -5 l 37 90 l 129 107 q 136 165 130 123 q 142 227 142 208 l 142 452 q 136 513 142 469 q 127 572 131 557 l 24 596 l 36 699 q 108 691 53 696 q 199 686 163 686 l 265 689 l 294 663 l 309 564 q 409 664 353 629 q 539 699 464 699 q 712 635 653 699 q 771 452 771 572 l 771 268 q 776 174 771 225 q 783 107 781 122 l 873 98 l 867 -7 z "},"o":{"ha":755,"x_min":35,"x_max":721,"o":"m 721 339 q 632 72 721 165 q 378 -21 543 -21 q 123 72 212 -21 q 35 339 35 165 q 123 606 35 513 q 378 699 212 699 q 632 606 543 699 q 721 339 721 513 m 500 339 q 471 524 500 467 q 378 581 443 581 q 284 524 313 581 q 256 339 256 467 q 284 154 256 212 q 378 97 313 97 q 471 154 443 97 q 500 339 500 211 z "},"p":{"ha":818,"x_min":9,"x_max":783,"o":"m 519 699 q 714 608 646 699 q 783 353 783 518 q 692 82 783 178 q 435 -14 602 -14 q 322 -7 387 -14 l 322 -50 q 328 -147 322 -93 q 336 -218 334 -201 l 446 -227 l 439 -325 q 355 -321 422 -323 q 191 -318 289 -318 q 107 -321 151 -318 q 52 -325 64 -323 l 45 -235 l 114 -218 q 122 -156 117 -203 q 127 -92 127 -110 l 127 452 q 122 513 127 470 q 114 572 117 557 l 9 596 l 22 699 q 90 691 38 696 q 184 686 142 686 l 252 689 l 281 663 l 294 561 q 392 666 339 633 q 519 699 446 699 m 444 542 q 358 496 389 542 q 322 361 328 450 l 322 138 q 418 118 380 118 q 528 170 494 118 q 562 335 562 221 q 534 491 562 441 q 444 542 505 542 z "},"q":{"ha":793,"x_min":35,"x_max":772,"o":"m 765 -326 q 682 -322 748 -325 q 517 -319 615 -319 q 433 -322 477 -319 q 378 -326 390 -325 l 371 -236 l 482 -220 q 490 -158 485 -204 q 496 -93 496 -111 l 496 83 q 408 8 456 32 q 298 -16 361 -16 q 103 75 172 -16 q 35 330 35 165 q 125 601 35 505 q 383 697 216 697 q 539 684 452 697 q 704 647 625 671 q 696 548 701 621 q 690 457 690 475 l 690 -52 q 696 -149 690 -94 q 704 -220 701 -203 l 772 -228 l 765 -326 m 374 142 q 496 322 485 142 l 496 415 q 492 549 496 440 q 400 566 435 566 q 290 514 323 566 q 256 349 256 463 q 284 192 256 243 q 374 142 313 142 z "},"r":{"ha":635,"x_min":24,"x_max":616,"o":"m 307 571 q 503 699 389 699 q 570 693 534 699 q 616 685 606 688 l 596 406 l 493 410 l 493 486 q 482 558 493 492 q 473 559 479 559 q 377 508 418 559 q 336 368 336 457 l 336 268 q 341 174 336 225 q 349 107 346 122 l 464 98 l 457 -7 q 365 -3 437 -5 q 195 0 293 0 q 106 -3 155 0 q 41 -7 57 -5 l 35 90 l 129 107 q 136 166 130 123 q 142 227 142 210 l 142 452 q 136 513 142 470 q 127 572 131 557 l 24 596 l 36 700 q 108 692 53 697 q 199 686 163 686 l 265 689 l 294 663 l 307 571 z "},"s":{"ha":595,"x_min":41,"x_max":558,"o":"m 306 699 q 528 665 422 699 l 511 446 l 418 453 l 418 513 q 412 535 418 518 q 399 566 406 553 q 301 587 349 588 q 233 572 255 587 q 211 534 211 557 q 238 491 211 508 q 326 452 265 475 q 443 399 395 425 q 524 326 490 374 q 558 203 558 278 q 485 42 558 98 q 288 -14 412 -14 q 188 -7 243 -14 q 93 8 134 0 q 41 18 53 16 l 58 248 l 157 240 l 157 178 q 162 150 158 167 q 170 126 167 134 q 292 96 245 96 q 355 112 329 96 q 380 155 380 127 q 354 201 380 184 q 267 243 328 218 q 155 296 199 271 q 79 369 111 321 q 46 492 46 416 q 115 647 46 595 q 306 699 184 699 z "},"t":{"ha":497,"x_min":20,"x_max":505,"o":"m 505 60 q 419 6 463 25 q 321 -14 376 -14 q 161 42 210 -14 q 113 216 113 98 l 113 582 l 24 582 l 20 669 q 88 696 28 673 q 154 728 149 720 q 193 788 165 743 q 231 848 221 833 l 307 843 l 307 686 l 472 686 l 460 582 l 307 582 l 307 199 q 327 137 307 163 q 379 111 346 111 q 413 117 396 111 q 440 130 429 123 q 454 139 452 136 l 505 60 z "},"u":{"ha":863,"x_min":24,"x_max":836,"o":"m 440 699 q 512 691 457 696 q 603 686 567 686 l 725 689 l 754 663 q 746 543 751 633 q 741 410 741 453 l 741 268 q 745 174 741 225 q 753 107 750 122 l 836 98 l 828 -7 q 752 -3 814 -5 q 572 0 689 0 l 559 109 q 471 24 519 53 q 358 -5 422 -5 q 176 58 237 -5 q 114 241 114 121 l 114 452 q 109 515 114 470 q 100 576 103 561 l 24 596 l 36 699 q 104 691 53 696 q 192 686 155 686 l 293 689 l 322 663 q 314 543 319 633 q 309 410 309 453 l 309 261 q 333 168 309 203 q 410 134 358 134 q 506 185 465 134 q 546 325 546 236 l 546 452 q 540 513 546 470 q 532 572 534 557 l 428 596 l 440 699 z "},"v":{"ha":776,"x_min":-4,"x_max":765,"o":"m 703 586 q 637 443 646 465 l 471 0 l 294 0 l 127 478 q 86 587 111 532 l -4 603 l 3 699 q 85 691 21 696 q 210 686 149 686 q 292 689 244 686 q 354 693 339 692 l 361 595 l 298 589 q 315 492 307 526 l 393 205 l 488 492 q 513 589 496 517 l 450 595 l 457 693 q 523 689 471 692 q 636 686 575 686 q 709 689 671 686 q 758 693 747 692 l 765 595 l 703 586 z "},"w":{"ha":1156,"x_min":3,"x_max":1150,"o":"m 1090 586 q 1025 443 1033 465 l 863 0 l 682 0 l 579 335 l 467 0 l 288 0 l 121 478 q 79 587 104 532 l 3 603 l 9 699 q 84 691 26 696 q 203 686 142 686 q 296 689 237 686 q 374 693 354 692 l 380 595 l 289 589 l 296 553 l 309 490 l 386 205 l 533 686 l 656 686 l 785 205 l 875 493 q 900 589 884 521 l 819 595 l 827 693 q 903 689 844 692 q 1023 686 962 686 q 1095 689 1058 686 q 1143 693 1132 692 l 1150 595 l 1090 586 z "},"x":{"ha":798,"x_min":20,"x_max":787,"o":"m 386 693 q 326 689 372 692 q 245 686 279 686 q 119 691 187 686 q 31 699 52 696 l 24 604 l 69 593 l 200 449 l 269 350 l 200 256 l 72 106 l 20 96 l 26 -7 q 76 -3 37 -5 q 147 0 114 0 q 258 -3 207 0 q 322 -7 309 -5 l 329 97 l 285 102 l 296 125 l 378 252 l 457 132 l 475 102 l 419 96 l 427 -7 q 487 -3 440 -5 q 567 0 533 0 q 694 -5 627 0 q 783 -12 762 -9 l 787 89 l 730 104 l 608 237 l 524 353 l 582 432 l 715 587 l 765 596 l 758 693 q 709 689 747 692 q 637 686 671 686 q 527 689 578 686 q 463 693 476 692 l 456 596 l 503 590 l 464 529 l 414 447 l 361 533 l 328 590 l 393 596 l 386 693 z "},"y":{"ha":793,"x_min":5,"x_max":789,"o":"m 503 497 q 513 542 509 514 q 519 587 518 570 l 458 595 l 467 693 q 527 689 479 692 q 632 686 575 686 q 720 689 671 686 q 783 693 768 692 l 789 595 l 721 587 q 692 527 710 569 q 663 456 673 485 l 359 -326 l 85 -309 l 100 -199 l 176 -201 q 237 -193 210 -201 q 281 -115 264 -163 l 323 0 l 151 452 q 93 587 111 555 l 5 603 l 14 699 q 91 691 32 696 q 207 686 150 686 q 297 689 245 686 q 364 693 349 692 l 370 595 l 311 587 q 319 538 313 566 q 330 494 325 510 l 418 220 l 503 497 z "},"z":{"ha":639,"x_min":29,"x_max":627,"o":"m 68 690 q 124 688 85 690 q 196 686 164 686 l 595 686 l 604 590 l 497 454 l 330 197 q 286 111 317 178 l 399 111 q 443 118 408 111 q 469 122 454 119 q 498 126 484 125 q 521 184 521 178 l 530 245 l 627 237 l 611 24 l 583 -4 q 526 -2 566 -4 q 453 0 485 0 l 49 0 l 29 97 q 89 164 45 114 q 146 233 134 214 l 315 489 q 361 575 334 514 l 252 575 l 214 570 q 161 559 183 562 q 150 528 156 547 q 143 501 143 509 l 138 422 l 32 427 l 39 663 l 68 690 z "},"{":{"ha":401,"x_min":41,"x_max":374,"o":"m 279 380 q 240 411 261 397 q 203 431 218 424 q 183 439 187 437 l 183 452 q 203 460 187 453 q 240 480 218 467 q 279 510 261 493 l 265 835 q 270 909 265 869 q 278 960 275 949 l 374 972 l 370 1064 q 271 1061 346 1063 q 136 1059 196 1059 l 103 1018 l 144 532 q 93 496 127 513 q 47 479 58 479 l 41 411 q 91 394 55 411 q 143 358 126 376 l 103 -127 l 136 -168 q 271 -170 196 -168 q 370 -174 346 -172 l 374 -82 l 278 -69 q 270 -19 275 -58 q 265 56 265 21 l 279 380 z "},"|":{"ha":387,"x_min":127,"x_max":260,"o":"m 260 1044 l 260 -170 l 127 -157 l 127 1055 l 260 1044 z "},"}":{"ha":401,"x_min":28,"x_max":359,"o":"m 122 510 q 162 480 140 493 q 198 460 183 467 q 218 452 214 453 l 218 439 q 199 431 214 437 q 162 411 183 424 q 122 380 140 397 l 136 56 q 131 -19 136 21 q 123 -69 126 -58 l 28 -82 l 32 -174 q 131 -170 56 -172 q 265 -168 205 -168 l 298 -127 q 284 31 296 -94 q 257 358 273 157 q 309 393 274 375 q 354 411 343 411 l 359 479 q 309 497 344 479 q 257 532 273 514 l 298 1018 l 265 1059 q 131 1061 205 1059 q 32 1064 56 1063 l 28 972 l 123 960 q 131 909 126 949 q 136 835 136 869 l 122 510 z "},"~":{"ha":838,"x_min":83,"x_max":755,"o":"m 591 222 q 659 258 623 222 q 726 337 696 294 q 755 383 755 380 l 681 446 q 662 424 677 440 q 626 393 647 408 q 587 378 606 378 q 530 387 564 378 q 437 415 496 396 q 327 449 371 437 q 248 461 282 461 q 180 425 217 461 q 113 346 143 389 q 83 300 83 302 l 158 237 q 177 259 162 243 q 213 291 192 275 q 252 306 233 306 q 414 265 290 306 q 525 233 486 243 q 591 222 564 222 z "},"¡":{"ha":332,"x_min":36,"x_max":256,"o":"m 153 705 q 77 675 104 705 q 50 595 50 644 q 77 515 50 545 q 153 485 104 485 q 229 515 201 485 q 256 595 256 545 q 229 676 256 646 q 153 705 201 705 m 90 372 q 152 368 109 371 q 232 366 196 366 l 231 273 l 243 -304 l 77 -317 l 36 -278 q 47 -170 39 -254 q 63 31 56 -85 q 71 243 71 146 q 69 308 71 277 q 66 350 68 339 l 90 372 z "},"¢":{"ha":703,"x_min":56,"x_max":654,"o":"m 654 189 q 547 121 607 146 q 427 92 488 96 l 421 -58 l 330 -54 l 336 94 q 126 203 197 113 q 56 452 56 294 q 136 702 56 604 q 366 808 216 799 l 372 957 l 461 953 l 456 807 q 580 790 518 803 q 642 777 642 778 l 621 530 l 517 534 l 518 610 l 513 664 q 471 690 496 680 q 422 700 446 700 q 328 667 360 700 q 286 582 296 635 q 277 452 277 529 q 314 286 277 347 q 443 225 351 225 q 522 235 486 225 q 579 255 558 244 q 606 269 600 265 l 654 189 z "},"£":{"ha":855,"x_min":62,"x_max":814,"o":"m 793 20 l 766 -5 q 695 -2 745 -4 q 608 0 644 0 l 228 0 q 145 -3 188 0 q 89 -7 102 -5 l 82 90 l 174 107 q 180 165 175 123 q 186 227 186 208 l 186 314 l 72 309 l 69 399 l 186 404 l 186 461 l 65 456 l 62 546 l 186 551 l 186 648 q 275 853 186 781 q 504 926 364 926 q 786 882 606 926 l 770 656 l 669 660 l 665 722 q 654 775 665 736 q 580 798 616 792 q 503 804 545 804 q 419 767 451 804 q 387 677 387 730 l 387 559 l 632 571 l 635 482 l 387 471 l 387 412 l 639 424 l 642 335 l 387 323 l 387 268 q 399 121 387 194 l 567 121 q 673 132 621 121 q 700 192 699 186 q 717 271 712 239 l 814 264 l 793 20 z "},"¥":{"ha":908,"x_min":17,"x_max":892,"o":"m 557 268 q 562 174 557 225 q 570 107 567 122 l 660 98 l 653 -7 q 569 -3 636 -5 q 404 0 503 0 q 318 -3 364 0 q 258 -7 272 -5 l 252 90 l 343 107 q 350 166 345 123 q 355 227 355 210 l 355 317 l 149 309 l 146 399 l 322 406 l 290 463 l 142 456 l 139 546 l 240 550 l 147 717 q 85 800 134 743 l 17 815 l 24 913 q 75 908 35 911 q 155 905 115 905 q 320 908 254 905 q 404 913 387 911 l 411 807 l 335 800 l 355 747 l 476 532 l 607 762 l 619 799 l 524 815 l 530 913 q 593 908 546 911 q 676 905 640 905 q 824 908 774 905 q 885 913 873 911 l 892 807 l 823 800 q 730 679 741 701 l 664 567 l 764 571 l 766 482 l 610 475 l 575 415 l 771 424 l 774 335 l 557 325 l 557 268 z "},"¦":{"ha":387,"x_min":127,"x_max":260,"o":"m 260 1044 l 260 545 l 127 555 l 127 1055 l 260 1044 m 127 -157 l 127 294 l 260 285 l 260 -170 l 127 -157 z "},"§":{"ha":797,"x_min":111,"x_max":700,"o":"m 603 318 q 577 380 603 353 q 512 430 551 408 q 404 482 473 452 q 253 556 311 522 q 153 645 195 590 q 111 777 111 700 q 190 942 111 884 q 396 1000 269 1000 q 657 960 515 1000 l 640 751 l 542 758 l 542 833 q 536 861 542 836 q 435 888 505 888 q 354 863 385 888 q 323 798 323 839 q 362 731 323 758 q 484 672 401 705 q 596 620 553 643 q 669 559 639 596 q 700 471 700 522 q 683 397 700 435 q 649 335 667 359 q 625 304 631 311 l 603 318 m 208 536 q 234 473 208 501 q 299 424 260 446 q 407 372 338 403 q 558 298 500 332 q 658 209 616 264 q 700 78 700 154 q 619 -87 700 -29 q 408 -146 538 -146 q 268 -135 345 -146 q 126 -106 192 -123 l 143 117 l 241 110 l 241 35 q 249 -8 241 22 q 370 -33 288 -33 q 456 -9 424 -33 q 488 57 488 16 q 449 123 488 97 q 328 182 410 149 q 215 235 258 211 q 142 295 172 258 q 111 383 111 332 q 128 457 111 419 q 162 519 144 494 q 186 550 180 543 l 208 536 z "},"¨":{"ha":500,"x_min":-8,"x_max":509,"o":"m 86 1007 q 155 981 131 1007 q 179 909 179 956 q 155 839 179 865 q 86 814 131 814 q 17 840 41 814 q -8 909 -8 867 q 17 981 -8 954 q 86 1007 41 1007 m 415 1007 q 484 981 460 1007 q 509 909 509 956 q 484 839 509 865 q 415 814 460 814 q 346 840 370 814 q 322 909 322 865 q 347 981 322 954 q 415 1007 371 1007 z "},"©":{"ha":1173,"x_min":79,"x_max":1095,"o":"m 1095 347 q 1026 95 1095 211 q 840 -91 957 -21 q 586 -160 724 -160 q 333 -93 450 -160 q 148 91 216 -25 q 79 347 79 207 q 148 602 79 485 q 333 786 216 718 q 586 854 450 854 q 842 787 725 854 q 1026 603 958 720 q 1095 347 1095 486 m 997 347 q 942 551 997 457 q 792 702 886 646 q 586 758 697 758 q 380 703 475 758 q 231 554 286 648 q 175 347 175 460 q 231 142 175 236 q 380 -8 286 47 q 586 -64 475 -64 q 792 -8 699 -64 q 942 142 886 47 q 997 347 997 236 m 790 89 q 689 68 729 75 q 604 61 650 61 q 384 140 460 61 q 309 351 309 220 q 384 564 309 485 q 604 643 460 643 q 681 637 646 643 q 746 625 717 632 q 785 615 775 618 l 772 464 l 704 467 l 700 521 q 696 533 699 525 q 690 550 694 542 q 604 558 640 558 q 509 503 539 558 q 479 353 479 447 q 509 203 479 260 q 603 146 538 146 q 701 157 650 146 q 708 173 703 161 q 714 192 713 184 l 718 231 l 783 232 l 790 89 z "},"ª":{"ha":491,"x_min":28,"x_max":476,"o":"m 286 689 q 235 632 264 650 q 164 615 207 615 q 64 651 100 615 q 28 747 28 686 q 149 872 28 854 l 277 892 l 277 918 q 260 978 277 960 q 211 996 244 996 q 175 991 195 996 q 139 979 154 986 l 132 945 l 134 899 l 61 896 l 47 1054 q 135 1071 86 1063 q 215 1079 184 1079 q 361 1037 308 1079 q 415 922 415 994 l 415 804 q 418 741 415 775 q 422 697 421 707 l 476 692 l 471 621 q 419 624 461 622 q 292 625 376 625 l 286 689 m 221 823 q 185 805 196 818 q 175 768 175 793 q 186 729 175 742 q 221 717 197 717 q 277 765 261 717 l 277 831 l 221 823 z "},"«":{"ha":616,"x_min":28,"x_max":575,"o":"m 187 336 l 334 77 l 240 14 l 28 336 l 240 659 l 334 596 l 187 336 m 429 336 l 575 77 l 482 14 l 269 336 l 482 659 l 575 596 l 429 336 z "},"¬":{"ha":812,"x_min":90,"x_max":722,"o":"m 591 293 l 589 90 l 722 90 l 722 428 l 90 428 l 90 288 l 591 293 z "},"®":{"ha":1173,"x_min":79,"x_max":1095,"o":"m 1095 347 q 1026 95 1095 211 q 840 -91 957 -21 q 586 -160 724 -160 q 333 -93 450 -160 q 148 91 216 -25 q 79 347 79 207 q 148 602 79 485 q 333 786 216 718 q 586 854 450 854 q 842 787 725 854 q 1026 603 958 720 q 1095 347 1095 486 m 997 347 q 942 551 997 457 q 792 702 886 646 q 586 758 697 758 q 380 703 475 758 q 231 554 286 648 q 175 347 175 460 q 231 142 175 236 q 380 -8 286 47 q 586 -64 475 -64 q 792 -8 699 -64 q 942 142 886 47 q 997 347 997 236 m 608 654 q 751 608 696 654 q 806 485 806 562 q 781 401 806 439 q 713 338 755 363 q 765 245 736 290 q 802 193 794 200 q 812 175 806 185 q 825 154 818 165 l 856 150 l 852 85 q 796 87 842 86 q 686 89 750 89 q 670 129 682 100 q 647 180 659 158 l 583 301 l 547 301 l 547 250 q 552 188 547 216 q 557 155 557 160 l 602 150 l 599 85 q 537 87 587 86 q 424 89 488 89 q 374 87 395 89 q 347 85 353 86 l 343 147 l 393 155 q 397 189 395 168 q 400 227 400 210 l 400 475 q 397 539 400 512 q 393 574 393 567 l 345 583 l 349 650 q 378 647 355 648 q 433 646 401 646 q 481 647 458 646 q 524 650 504 648 q 608 654 570 654 m 551 579 q 547 518 547 542 l 547 376 l 554 376 q 629 403 608 376 q 650 484 650 429 q 629 556 650 534 q 558 579 608 579 l 551 579 z "},"¯":{"ha":500,"x_min":26,"x_max":473,"o":"m 473 929 l 464 828 l 26 828 l 26 929 l 473 929 z "},"°":{"ha":529,"x_min":41,"x_max":488,"o":"m 488 718 q 427 567 488 623 q 264 511 367 511 q 101 567 161 511 q 41 718 41 623 q 101 869 41 814 q 264 925 161 925 q 427 869 367 925 q 488 718 488 814 m 176 718 q 199 631 176 665 q 265 596 221 596 q 331 631 310 596 q 353 718 353 665 q 331 806 353 771 q 265 840 310 840 q 198 806 220 840 q 176 718 176 771 z "},"±":{"ha":834,"x_min":102,"x_max":733,"o":"m 733 424 l 484 421 l 486 191 l 347 191 l 347 419 l 102 416 l 102 555 l 347 555 l 347 781 l 479 781 l 482 555 l 733 555 l 733 424 m 733 134 l 733 0 l 102 0 l 102 126 l 733 134 z "},"´":{"ha":500,"x_min":74,"x_max":427,"o":"m 427 943 q 336 901 400 930 q 232 852 272 872 l 139 785 l 74 865 l 361 1048 l 427 943 z "},"µ":{"ha":821,"x_min":56,"x_max":791,"o":"m 704 232 q 709 145 704 168 q 727 112 714 122 q 791 77 741 102 l 765 -21 q 693 -14 754 -20 q 602 16 632 -8 q 553 86 571 40 q 374 -5 485 -5 q 271 16 310 -5 l 271 -96 l 278 -302 l 85 -302 l 56 -277 q 67 -174 58 -252 q 77 -54 77 -97 l 77 452 q 73 577 75 500 q 69 686 71 653 l 256 686 l 285 660 q 276 542 282 631 q 271 410 271 453 l 271 261 q 296 169 271 204 q 374 134 322 134 q 470 185 429 134 q 511 325 511 236 l 511 465 l 504 686 l 690 686 l 720 660 q 711 552 717 633 q 704 424 705 471 l 704 232 z "},"¶":{"ha":868,"x_min":37,"x_max":811,"o":"m 714 143 q 720 12 714 100 q 726 -106 725 -77 l 700 -131 l 671 -129 q 513 -125 566 -125 q 429 -128 473 -125 q 374 -132 386 -131 l 367 -35 l 486 -18 q 493 40 488 -3 q 498 102 498 83 l 498 711 l 498 979 l 625 979 q 764 982 724 979 q 804 986 804 985 l 811 873 l 720 865 q 714 753 714 766 l 714 143 m 372 404 q 204 439 281 404 q 82 541 127 475 q 37 696 37 607 q 77 847 37 781 q 187 949 117 913 q 343 985 257 985 q 429 979 388 985 l 429 458 l 372 404 z "},"·":{"ha":337,"x_min":56,"x_max":275,"o":"m 165 533 q 85 500 114 533 q 56 415 56 468 q 85 330 56 362 q 165 298 114 298 q 246 331 217 298 q 275 415 275 363 q 246 502 275 471 q 165 533 216 533 z "},"¸":{"ha":500,"x_min":127,"x_max":419,"o":"m 279 -82 q 380 -115 342 -83 q 419 -203 419 -147 q 375 -296 419 -265 q 261 -326 332 -326 q 186 -319 225 -326 q 127 -301 147 -311 l 153 -233 q 229 -249 201 -249 q 276 -238 257 -249 q 294 -203 294 -227 q 279 -170 294 -179 q 236 -160 264 -160 l 207 -161 l 192 -142 l 207 14 l 298 14 l 279 -82 z "},"º":{"ha":511,"x_min":26,"x_max":485,"o":"m 485 844 q 426 671 485 730 q 256 611 367 611 q 85 671 144 611 q 26 844 26 730 q 85 1019 26 960 q 256 1079 144 1079 q 425 1019 366 1079 q 485 844 485 958 m 328 844 q 310 963 328 929 q 256 997 293 997 q 200 963 217 997 q 183 844 183 929 q 200 727 183 761 q 256 693 216 693 q 310 727 293 693 q 328 844 328 761 z "},"»":{"ha":616,"x_min":41,"x_max":589,"o":"m 187 336 l 41 596 l 135 659 l 347 336 l 135 14 l 41 77 l 187 336 m 429 336 l 283 596 l 376 659 l 589 336 l 376 14 l 283 77 l 429 336 z "},"¿":{"ha":586,"x_min":14,"x_max":558,"o":"m 389 705 q 313 675 340 705 q 286 595 286 644 q 313 515 286 545 q 389 485 340 485 q 465 515 437 485 q 492 595 492 545 q 465 676 492 646 q 389 705 437 705 m 200 -39 q 239 88 200 37 q 343 139 278 139 q 425 135 391 139 l 468 182 l 468 363 l 464 367 q 382 369 419 367 q 325 372 345 371 l 301 350 l 306 239 q 94 161 174 235 q 14 -37 14 87 q 99 -250 14 -175 q 335 -325 184 -325 q 446 -312 393 -325 q 558 -271 498 -298 l 542 -65 l 447 -72 l 450 -122 q 448 -161 450 -136 q 441 -200 446 -187 q 349 -222 408 -222 q 237 -172 275 -222 q 200 -39 200 -121 z "},"Æ":{"ha":1266,"x_min":1,"x_max":1263,"o":"m 1132 737 q 1120 819 1124 804 q 1107 851 1120 821 q 996 859 1038 858 l 764 859 q 772 753 768 789 l 803 555 q 839 553 814 553 l 951 553 q 988 557 970 553 q 1013 566 1007 562 l 1025 654 l 1111 647 l 1109 536 q 1111 429 1109 479 q 1114 359 1112 378 l 1025 351 l 1013 435 q 972 439 1003 436 q 924 443 942 443 l 846 443 q 821 440 829 443 l 847 268 l 875 121 l 1015 121 q 1122 132 1067 121 q 1149 192 1147 186 q 1165 271 1161 239 l 1263 264 l 1242 20 l 1215 -5 q 1144 -2 1194 -4 q 1057 0 1093 0 l 681 0 q 613 -3 649 0 q 568 -7 578 -5 l 561 90 l 654 107 q 652 183 654 167 l 640 256 l 339 256 l 285 160 q 276 139 282 153 q 262 107 271 125 l 358 98 l 351 -7 q 278 -3 336 -5 q 147 0 220 0 q 64 -3 107 0 q 8 -7 21 -5 l 1 90 l 72 103 q 155 224 138 195 l 521 865 l 432 882 l 439 986 q 494 982 451 985 q 578 979 538 979 l 1038 979 q 1116 985 1056 979 q 1196 993 1175 990 l 1222 968 l 1232 745 l 1132 737 m 574 676 l 403 370 l 623 372 l 576 665 l 574 676 z "},"Ç":{"ha":884,"x_min":37,"x_max":836,"o":"m 551 -82 q 653 -115 614 -83 q 692 -203 692 -147 q 648 -296 692 -265 q 533 -326 604 -326 q 458 -319 497 -326 q 400 -301 419 -311 l 425 -233 q 501 -249 474 -249 q 548 -238 529 -249 q 567 -203 567 -227 q 552 -170 567 -179 q 509 -160 536 -160 l 479 -161 l 464 -142 l 476 -20 q 150 131 262 -6 q 37 489 37 268 q 92 757 37 642 q 257 936 147 872 q 524 1000 367 1000 q 662 989 602 1000 q 823 953 722 978 l 807 704 l 700 710 l 696 794 q 679 851 696 808 q 524 871 590 871 q 345 767 403 871 q 288 490 288 663 q 345 213 288 318 q 522 109 401 109 q 694 129 600 109 q 707 162 697 136 q 717 197 717 189 l 721 262 l 825 265 l 836 26 q 693 -5 755 7 q 564 -20 631 -17 l 551 -82 z "},"Ð":{"ha":949,"x_min":50,"x_max":977,"o":"m 58 986 q 114 982 71 985 q 197 979 157 979 q 342 986 249 979 q 416 990 368 987 q 488 993 464 993 q 755 930 646 993 q 921 753 865 867 q 977 489 977 640 q 921 229 977 340 q 755 54 865 117 q 488 -8 644 -8 q 404 -7 441 -8 q 339 -4 367 -5 q 196 0 262 0 q 113 -3 156 0 q 57 -7 69 -5 l 50 90 l 142 107 q 149 166 143 123 q 154 227 154 210 l 154 447 l 58 447 l 58 549 l 154 549 l 154 711 q 149 803 154 754 q 142 865 144 851 l 52 882 l 58 986 m 370 268 q 375 111 370 178 q 465 107 421 107 q 679 211 612 107 q 745 492 745 315 q 679 771 745 665 q 468 878 612 878 q 375 867 439 878 q 370 753 370 772 l 370 549 l 505 549 l 498 447 l 370 447 l 370 268 z "},"×":{"ha":772,"x_min":83,"x_max":689,"o":"m 386 240 l 180 33 l 85 127 l 289 336 l 83 542 l 178 637 l 385 435 l 586 639 l 686 541 l 484 338 l 689 136 l 590 36 l 386 240 z "},"Ø":{"ha":1066,"x_min":37,"x_max":1029,"o":"m 818 928 q 975 749 920 863 q 1029 489 1029 636 q 968 218 1029 334 q 794 38 907 102 q 533 -26 682 -26 q 334 8 425 -26 l 228 -191 l 149 -150 l 253 49 q 94 227 150 114 q 37 489 37 340 q 99 761 37 644 q 272 942 160 878 q 533 1006 383 1006 q 736 970 644 1006 l 839 1164 l 921 1124 l 818 928 m 288 489 q 340 215 288 307 l 665 833 q 533 871 614 871 q 348 777 408 871 q 288 489 288 684 m 533 109 q 719 202 659 109 q 779 489 779 296 q 729 760 779 665 l 404 143 q 533 109 456 109 z "},"Þ":{"ha":833,"x_min":56,"x_max":828,"o":"m 387 865 q 376 786 380 831 q 500 791 471 791 q 738 713 648 791 q 828 497 828 635 q 781 339 828 406 q 655 237 734 272 q 481 203 576 203 l 378 203 q 383 142 379 170 q 387 107 387 114 l 478 98 l 471 -7 q 375 -3 451 -5 q 201 0 300 0 q 118 -3 161 0 q 62 -7 75 -5 l 56 90 l 147 107 q 154 160 149 115 q 160 227 160 205 l 160 711 q 154 817 160 772 q 147 865 147 861 l 57 882 l 64 986 q 119 982 76 985 q 203 979 163 979 q 377 982 301 979 q 472 986 453 985 l 479 873 l 387 865 m 399 317 q 549 363 494 317 q 604 498 604 410 q 560 634 604 590 q 419 677 515 677 q 375 676 394 677 l 375 317 l 399 317 z "},"ß":{"ha":861,"x_min":49,"x_max":847,"o":"m 126 107 q 139 227 139 207 l 139 582 l 60 582 l 56 669 q 94 681 87 679 q 115 688 104 685 q 139 696 126 692 l 139 806 q 461 1069 140 1069 q 760 851 760 1069 q 742 758 760 798 q 699 689 724 717 q 636 627 675 661 q 581 571 599 593 q 564 521 564 549 q 587 476 564 493 q 664 432 610 458 q 757 382 720 407 q 821 315 794 358 q 847 210 847 272 q 784 45 847 104 q 614 -14 721 -14 q 527 -7 575 -14 q 445 8 479 0 q 400 18 410 16 l 416 248 l 514 240 l 514 178 q 518 150 515 167 q 522 125 521 132 q 612 94 575 94 q 658 111 640 94 q 676 155 676 127 q 649 220 676 195 q 566 273 623 244 q 481 324 514 301 q 426 387 449 347 q 403 485 403 427 q 430 592 403 550 q 509 682 457 633 q 579 760 556 725 q 603 846 603 794 q 563 926 603 900 q 461 953 524 953 q 358 906 383 953 q 334 758 334 860 l 334 268 q 343 53 334 201 l 346 0 l 237 0 q 122 -3 175 0 q 56 -7 69 -5 l 49 90 l 126 107 z "},"à":{"ha":726,"x_min":39,"x_max":710,"o":"m 435 100 q 356 14 403 41 q 243 -14 309 -14 q 94 39 149 -14 q 39 183 39 92 q 222 375 39 346 l 419 407 l 419 447 q 396 544 419 515 q 315 572 372 572 q 258 565 290 572 q 203 546 227 557 l 193 490 l 195 431 l 90 427 l 69 661 q 205 688 133 677 q 323 699 278 699 q 537 633 461 699 q 614 449 614 567 l 614 268 q 619 174 614 225 q 627 107 624 122 l 710 98 l 701 -7 q 625 -3 688 -5 q 446 0 562 0 l 435 100 m 317 300 q 261 273 278 293 q 244 214 244 253 q 319 129 244 129 q 382 153 355 129 q 419 218 410 176 l 419 317 l 317 300 m 326 852 q 222 901 286 872 q 132 943 158 930 l 197 1048 l 485 865 l 419 785 l 326 852 z "},"á":{"ha":726,"x_min":39,"x_max":710,"o":"m 435 100 q 356 14 403 41 q 243 -14 309 -14 q 94 39 149 -14 q 39 183 39 92 q 222 375 39 346 l 419 407 l 419 447 q 396 544 419 515 q 315 572 372 572 q 258 565 290 572 q 203 546 227 557 l 193 490 l 195 431 l 90 427 l 69 661 q 205 688 133 677 q 323 699 278 699 q 537 633 461 699 q 614 449 614 567 l 614 268 q 619 174 614 225 q 627 107 624 122 l 710 98 l 701 -7 q 625 -3 688 -5 q 446 0 562 0 l 435 100 m 317 300 q 261 273 278 293 q 244 214 244 253 q 319 129 244 129 q 382 153 355 129 q 419 218 410 176 l 419 317 l 317 300 m 541 943 q 450 901 514 930 q 346 852 386 872 l 253 785 l 188 865 l 475 1048 l 541 943 z "},"â":{"ha":726,"x_min":39,"x_max":710,"o":"m 435 100 q 356 14 403 41 q 243 -14 309 -14 q 94 39 149 -14 q 39 183 39 92 q 222 375 39 346 l 419 407 l 419 447 q 396 544 419 515 q 315 572 372 572 q 258 565 290 572 q 203 546 227 557 l 193 490 l 195 431 l 90 427 l 69 661 q 205 688 133 677 q 323 699 278 699 q 537 633 461 699 q 614 449 614 567 l 614 268 q 619 174 614 225 q 627 107 624 122 l 710 98 l 701 -7 q 625 -3 688 -5 q 446 0 562 0 l 435 100 m 317 300 q 261 273 278 293 q 244 214 244 253 q 319 129 244 129 q 382 153 355 129 q 419 218 410 176 l 419 317 l 317 300 m 546 783 l 453 857 l 336 920 l 220 857 l 126 783 l 61 864 l 336 1063 l 611 864 l 546 783 z "},"ã":{"ha":726,"x_min":39,"x_max":710,"o":"m 435 100 q 356 14 403 41 q 243 -14 309 -14 q 94 39 149 -14 q 39 183 39 92 q 222 375 39 346 l 419 407 l 419 447 q 396 544 419 515 q 315 572 372 572 q 258 565 290 572 q 203 546 227 557 l 193 490 l 195 431 l 90 427 l 69 661 q 205 688 133 677 q 323 699 278 699 q 537 633 461 699 q 614 449 614 567 l 614 268 q 619 174 614 225 q 627 107 624 122 l 710 98 l 701 -7 q 625 -3 688 -5 q 446 0 562 0 l 435 100 m 317 300 q 261 273 278 293 q 244 214 244 253 q 319 129 244 129 q 382 153 355 129 q 419 218 410 176 l 419 317 l 317 300 m 578 965 q 557 925 578 962 q 509 857 536 888 q 456 825 482 825 q 404 833 436 825 q 342 851 372 842 q 227 878 260 878 q 196 864 211 878 q 172 837 182 851 q 158 819 161 823 l 93 859 q 114 900 93 861 q 163 971 135 939 q 217 1004 191 1004 q 332 978 250 1004 q 394 960 362 968 q 446 951 427 951 q 475 963 461 951 q 498 988 489 975 q 510 1004 507 1000 l 578 965 z "},"ä":{"ha":726,"x_min":39,"x_max":710,"o":"m 435 100 q 356 14 403 41 q 243 -14 309 -14 q 94 39 149 -14 q 39 183 39 92 q 222 375 39 346 l 419 407 l 419 447 q 396 544 419 515 q 315 572 372 572 q 258 565 290 572 q 203 546 227 557 l 193 490 l 195 431 l 90 427 l 69 661 q 205 688 133 677 q 323 699 278 699 q 537 633 461 699 q 614 449 614 567 l 614 268 q 619 174 614 225 q 627 107 624 122 l 710 98 l 701 -7 q 625 -3 688 -5 q 446 0 562 0 l 435 100 m 317 300 q 261 273 278 293 q 244 214 244 253 q 319 129 244 129 q 382 153 355 129 q 419 218 410 176 l 419 317 l 317 300 m 172 1007 q 241 981 217 1007 q 265 909 265 956 q 241 839 265 865 q 172 814 217 814 q 103 840 127 814 q 78 909 78 867 q 103 981 78 954 q 172 1007 127 1007 m 501 1007 q 570 981 546 1007 q 595 909 595 956 q 570 839 595 865 q 501 814 546 814 q 432 840 456 814 q 408 909 408 865 q 433 981 408 954 q 501 1007 457 1007 z "},"æ":{"ha":1009,"x_min":26,"x_max":1008,"o":"m 57 661 q 194 689 126 679 q 311 699 262 699 q 517 640 442 699 q 718 699 596 699 q 931 616 854 699 q 1008 387 1008 534 l 979 334 l 604 311 q 651 158 611 204 q 779 113 690 113 q 861 123 824 113 q 920 144 899 134 q 947 158 942 154 l 996 78 q 724 -21 886 -20 q 479 107 561 -21 q 378 15 433 43 q 244 -14 322 -14 q 87 40 147 -14 q 26 183 26 94 q 73 317 26 268 q 210 375 119 367 l 407 395 l 407 449 q 381 553 407 519 q 302 586 355 586 q 248 578 280 586 q 186 555 215 570 l 182 501 l 182 433 l 78 429 l 57 661 m 703 589 q 606 408 612 589 l 789 421 l 790 432 q 769 551 790 513 q 703 589 747 589 m 304 288 q 248 266 264 282 q 232 211 232 249 q 250 149 232 168 q 307 129 268 129 q 381 160 356 129 q 407 253 407 192 l 407 297 l 304 288 z "},"ç":{"ha":647,"x_min":35,"x_max":633,"o":"m 408 -82 q 510 -115 471 -83 q 549 -203 549 -147 q 505 -296 549 -265 q 390 -326 461 -326 q 315 -319 354 -326 q 257 -301 277 -311 l 282 -233 q 358 -249 331 -249 q 405 -238 386 -249 q 424 -203 424 -227 q 409 -170 424 -179 q 366 -160 393 -160 l 336 -161 l 321 -142 l 334 -18 q 111 86 186 -6 q 35 340 35 178 q 125 603 35 507 q 375 699 216 699 q 484 691 429 699 q 575 676 539 684 q 621 665 611 668 l 600 419 l 482 424 l 484 498 q 478 553 481 534 q 435 579 460 570 q 387 589 410 589 q 288 528 319 589 q 256 340 256 468 q 422 114 256 114 q 502 124 465 114 q 558 144 538 134 q 585 158 579 154 l 633 78 q 533 13 587 38 q 421 -18 478 -12 l 408 -82 z "},"è":{"ha":691,"x_min":35,"x_max":661,"o":"m 257 307 q 306 157 264 201 q 431 113 347 113 q 513 123 475 113 q 571 144 550 134 q 599 158 593 154 l 647 78 q 375 -21 537 -20 q 125 73 215 -21 q 35 336 35 167 q 125 604 35 509 q 370 699 216 699 q 585 618 509 699 q 661 395 661 538 l 660 361 l 631 307 l 257 307 m 441 431 q 354 589 441 589 q 282 542 304 589 q 257 410 260 496 l 440 419 l 441 431 m 353 852 q 249 901 313 872 q 159 943 184 930 l 224 1048 l 511 865 l 446 785 l 353 852 z "},"é":{"ha":691,"x_min":35,"x_max":661,"o":"m 257 307 q 306 157 264 201 q 431 113 347 113 q 513 123 475 113 q 571 144 550 134 q 599 158 593 154 l 647 78 q 375 -21 537 -20 q 125 73 215 -21 q 35 336 35 167 q 125 604 35 509 q 370 699 216 699 q 585 618 509 699 q 661 395 661 538 l 660 361 l 631 307 l 257 307 m 441 431 q 354 589 441 589 q 282 542 304 589 q 257 410 260 496 l 440 419 l 441 431 m 567 943 q 476 901 541 930 q 372 852 412 872 l 279 785 l 214 865 l 501 1048 l 567 943 z "},"ê":{"ha":691,"x_min":35,"x_max":661,"o":"m 257 307 q 306 157 264 201 q 431 113 347 113 q 513 123 475 113 q 571 144 550 134 q 599 158 593 154 l 647 78 q 375 -21 537 -20 q 125 73 215 -21 q 35 336 35 167 q 125 604 35 509 q 370 699 216 699 q 585 618 509 699 q 661 395 661 538 l 660 361 l 631 307 l 257 307 m 441 431 q 354 589 441 589 q 282 542 304 589 q 257 410 260 496 l 440 419 l 441 431 m 572 783 l 479 857 l 363 920 l 246 857 l 153 783 l 87 864 l 363 1063 l 637 864 l 572 783 z "},"ë":{"ha":691,"x_min":35,"x_max":661,"o":"m 257 307 q 306 157 264 201 q 431 113 347 113 q 513 123 475 113 q 571 144 550 134 q 599 158 593 154 l 647 78 q 375 -21 537 -20 q 125 73 215 -21 q 35 336 35 167 q 125 604 35 509 q 370 699 216 699 q 585 618 509 699 q 661 395 661 538 l 660 361 l 631 307 l 257 307 m 441 431 q 354 589 441 589 q 282 542 304 589 q 257 410 260 496 l 440 419 l 441 431 m 199 1007 q 268 981 243 1007 q 292 909 292 956 q 268 839 292 865 q 199 814 243 814 q 129 840 154 814 q 104 909 104 867 q 129 981 104 954 q 199 1007 154 1007 m 528 1007 q 597 981 572 1007 q 621 909 621 956 q 597 839 621 865 q 528 814 572 814 q 459 840 483 814 q 435 909 435 865 q 459 981 435 954 q 528 1007 484 1007 z "},"ð":{"ha":716,"x_min":29,"x_max":724,"o":"m 532 890 q 674 648 625 787 q 724 350 724 509 q 631 79 724 179 q 372 -21 539 -21 q 118 74 207 -21 q 29 338 29 170 q 67 512 29 436 q 173 629 104 587 q 330 671 241 671 q 398 661 368 671 q 444 639 428 652 l 428 542 q 372 550 395 550 q 277 488 302 550 q 252 328 252 425 q 276 169 252 231 q 372 107 301 107 q 503 387 503 107 q 481 625 503 515 q 403 823 460 734 l 258 750 l 214 827 l 346 896 q 225 987 297 949 l 260 1069 q 464 956 372 1034 l 612 1034 l 657 954 l 532 890 z "},"ñ":{"ha":883,"x_min":24,"x_max":873,"o":"m 867 -7 q 783 -3 850 -5 q 618 0 717 0 q 543 -3 578 0 q 498 -7 509 -5 l 492 90 l 570 107 l 574 168 l 576 227 l 576 432 q 551 524 576 489 q 473 559 525 559 q 377 508 418 559 q 336 368 336 457 l 336 268 q 341 174 336 225 q 349 107 346 122 l 439 98 l 432 -7 q 349 -3 415 -5 q 183 0 282 0 q 100 -3 143 0 q 45 -7 57 -5 l 37 90 l 129 107 q 136 165 130 123 q 142 227 142 208 l 142 452 q 136 513 142 469 q 127 572 131 557 l 24 596 l 36 699 q 108 691 53 696 q 199 686 163 686 l 265 689 l 294 663 l 309 564 q 409 664 353 629 q 539 699 464 699 q 712 635 653 699 q 771 452 771 572 l 771 268 q 776 174 771 225 q 783 107 781 122 l 873 98 l 867 -7 m 686 965 q 666 925 686 962 q 618 857 645 888 q 564 825 591 825 q 513 833 545 825 q 450 851 481 842 q 335 878 368 878 q 305 864 319 878 q 280 837 290 851 q 267 819 270 823 l 201 859 q 222 900 201 861 q 271 971 243 939 q 326 1004 299 1004 q 440 978 359 1004 q 503 960 471 968 q 554 951 535 951 q 584 963 570 951 q 607 988 597 975 q 618 1004 616 1000 l 686 965 z "},"ò":{"ha":755,"x_min":35,"x_max":721,"o":"m 721 339 q 632 72 721 165 q 378 -21 543 -21 q 123 72 212 -21 q 35 339 35 165 q 123 606 35 513 q 378 699 212 699 q 632 606 543 699 q 721 339 721 513 m 500 339 q 471 524 500 467 q 378 581 443 581 q 284 524 313 581 q 256 339 256 467 q 284 154 256 212 q 378 97 313 97 q 471 154 443 97 q 500 339 500 211 m 368 852 q 263 901 328 872 q 174 943 199 930 l 239 1048 l 526 865 l 460 785 l 368 852 z "},"ó":{"ha":755,"x_min":35,"x_max":721,"o":"m 721 339 q 632 72 721 165 q 378 -21 543 -21 q 123 72 212 -21 q 35 339 35 165 q 123 606 35 513 q 378 699 212 699 q 632 606 543 699 q 721 339 721 513 m 500 339 q 471 524 500 467 q 378 581 443 581 q 284 524 313 581 q 256 339 256 467 q 284 154 256 212 q 378 97 313 97 q 471 154 443 97 q 500 339 500 211 m 582 943 q 491 901 555 930 q 387 852 427 872 l 294 785 l 229 865 l 516 1048 l 582 943 z "},"ô":{"ha":755,"x_min":35,"x_max":721,"o":"m 721 339 q 632 72 721 165 q 378 -21 543 -21 q 123 72 212 -21 q 35 339 35 165 q 123 606 35 513 q 378 699 212 699 q 632 606 543 699 q 721 339 721 513 m 500 339 q 471 524 500 467 q 378 581 443 581 q 284 524 313 581 q 256 339 256 467 q 284 154 256 212 q 378 97 313 97 q 471 154 443 97 q 500 339 500 211 m 587 783 l 494 857 l 378 920 l 261 857 l 168 783 l 102 864 l 378 1063 l 652 864 l 587 783 z "},"õ":{"ha":755,"x_min":35,"x_max":721,"o":"m 721 339 q 632 72 721 165 q 378 -21 543 -21 q 123 72 212 -21 q 35 339 35 165 q 123 606 35 513 q 378 699 212 699 q 632 606 543 699 q 721 339 721 513 m 500 339 q 471 524 500 467 q 378 581 443 581 q 284 524 313 581 q 256 339 256 467 q 284 154 256 212 q 378 97 313 97 q 471 154 443 97 q 500 339 500 211 m 619 965 q 598 925 619 962 q 551 857 578 888 q 497 825 524 825 q 446 833 477 825 q 383 851 414 842 q 268 878 301 878 q 238 864 252 878 q 213 837 223 851 q 199 819 203 823 l 134 859 q 155 900 134 861 q 204 971 176 939 q 258 1004 232 1004 q 373 978 292 1004 q 436 960 404 968 q 487 951 468 951 q 516 963 503 951 q 539 988 530 975 q 551 1004 549 1000 l 619 965 z "},"ö":{"ha":755,"x_min":35,"x_max":721,"o":"m 721 339 q 632 72 721 165 q 378 -21 543 -21 q 123 72 212 -21 q 35 339 35 165 q 123 606 35 513 q 378 699 212 699 q 632 606 543 699 q 721 339 721 513 m 500 339 q 471 524 500 467 q 378 581 443 581 q 284 524 313 581 q 256 339 256 467 q 284 154 256 212 q 378 97 313 97 q 471 154 443 97 q 500 339 500 211 m 214 1007 q 282 981 258 1007 q 307 909 307 956 q 282 839 307 865 q 214 814 258 814 q 144 840 169 814 q 119 909 119 867 q 144 981 119 954 q 214 1007 169 1007 m 543 1007 q 612 981 587 1007 q 636 909 636 956 q 612 839 636 865 q 543 814 587 814 q 474 840 498 814 q 450 909 450 865 q 474 981 450 954 q 543 1007 498 1007 z "},"÷":{"ha":821,"x_min":94,"x_max":726,"o":"m 410 717 q 334 686 361 717 q 307 606 307 656 q 334 526 307 555 q 410 496 361 496 q 486 526 458 496 q 513 606 513 555 q 486 687 513 657 q 410 717 458 717 m 94 428 l 94 282 l 726 289 l 726 428 l 94 428 m 410 212 q 334 182 361 212 q 307 102 307 151 q 334 22 307 52 q 410 -8 361 -8 q 486 22 458 -8 q 513 102 513 52 q 486 183 513 153 q 410 212 458 212 z "},"ø":{"ha":739,"x_min":26,"x_max":713,"o":"m 585 639 q 713 339 713 550 q 624 72 713 165 q 370 -21 534 -21 q 241 -4 300 -21 l 171 -138 l 92 -97 l 161 33 q 26 339 26 125 q 115 606 26 513 q 370 699 204 699 q 503 679 441 699 l 583 831 l 665 790 l 585 639 m 248 339 q 257 214 248 261 l 439 557 q 370 581 414 581 q 276 524 304 581 q 248 339 248 467 m 370 97 q 463 154 435 97 q 492 339 492 211 q 484 452 492 404 l 306 117 q 370 97 330 97 z "},"ù":{"ha":863,"x_min":24,"x_max":836,"o":"m 440 699 q 512 691 457 696 q 603 686 567 686 l 725 689 l 754 663 q 746 543 751 633 q 741 410 741 453 l 741 268 q 745 174 741 225 q 753 107 750 122 l 836 98 l 828 -7 q 752 -3 814 -5 q 572 0 689 0 l 559 109 q 471 24 519 53 q 358 -5 422 -5 q 176 58 237 -5 q 114 241 114 121 l 114 452 q 109 515 114 470 q 100 576 103 561 l 24 596 l 36 699 q 104 691 53 696 q 192 686 155 686 l 293 689 l 322 663 q 314 543 319 633 q 309 410 309 453 l 309 261 q 333 168 309 203 q 410 134 358 134 q 506 185 465 134 q 546 325 546 236 l 546 452 q 540 513 546 470 q 532 572 534 557 l 428 596 l 440 699 m 408 852 q 304 901 368 872 q 214 943 240 930 l 279 1048 l 567 865 l 501 785 l 408 852 z "},"ú":{"ha":863,"x_min":24,"x_max":836,"o":"m 440 699 q 512 691 457 696 q 603 686 567 686 l 725 689 l 754 663 q 746 543 751 633 q 741 410 741 453 l 741 268 q 745 174 741 225 q 753 107 750 122 l 836 98 l 828 -7 q 752 -3 814 -5 q 572 0 689 0 l 559 109 q 471 24 519 53 q 358 -5 422 -5 q 176 58 237 -5 q 114 241 114 121 l 114 452 q 109 515 114 470 q 100 576 103 561 l 24 596 l 36 699 q 104 691 53 696 q 192 686 155 686 l 293 689 l 322 663 q 314 543 319 633 q 309 410 309 453 l 309 261 q 333 168 309 203 q 410 134 358 134 q 506 185 465 134 q 546 325 546 236 l 546 452 q 540 513 546 470 q 532 572 534 557 l 428 596 l 440 699 m 623 943 q 532 901 596 930 q 428 852 468 872 l 335 785 l 270 865 l 557 1048 l 623 943 z "},"û":{"ha":863,"x_min":24,"x_max":836,"o":"m 440 699 q 512 691 457 696 q 603 686 567 686 l 725 689 l 754 663 q 746 543 751 633 q 741 410 741 453 l 741 268 q 745 174 741 225 q 753 107 750 122 l 836 98 l 828 -7 q 752 -3 814 -5 q 572 0 689 0 l 559 109 q 471 24 519 53 q 358 -5 422 -5 q 176 58 237 -5 q 114 241 114 121 l 114 452 q 109 515 114 470 q 100 576 103 561 l 24 596 l 36 699 q 104 691 53 696 q 192 686 155 686 l 293 689 l 322 663 q 314 543 319 633 q 309 410 309 453 l 309 261 q 333 168 309 203 q 410 134 358 134 q 506 185 465 134 q 546 325 546 236 l 546 452 q 540 513 546 470 q 532 572 534 557 l 428 596 l 440 699 m 628 783 l 535 857 l 418 920 l 302 857 l 208 783 l 143 864 l 418 1063 l 693 864 l 628 783 z "},"ü":{"ha":863,"x_min":24,"x_max":836,"o":"m 440 699 q 512 691 457 696 q 603 686 567 686 l 725 689 l 754 663 q 746 543 751 633 q 741 410 741 453 l 741 268 q 745 174 741 225 q 753 107 750 122 l 836 98 l 828 -7 q 752 -3 814 -5 q 572 0 689 0 l 559 109 q 471 24 519 53 q 358 -5 422 -5 q 176 58 237 -5 q 114 241 114 121 l 114 452 q 109 515 114 470 q 100 576 103 561 l 24 596 l 36 699 q 104 691 53 696 q 192 686 155 686 l 293 689 l 322 663 q 314 543 319 633 q 309 410 309 453 l 309 261 q 333 168 309 203 q 410 134 358 134 q 506 185 465 134 q 546 325 546 236 l 546 452 q 540 513 546 470 q 532 572 534 557 l 428 596 l 440 699 m 254 1007 q 323 981 299 1007 q 347 909 347 956 q 323 839 347 865 q 254 814 299 814 q 185 840 210 814 q 160 909 160 867 q 185 981 160 954 q 254 1007 210 1007 m 583 1007 q 652 981 628 1007 q 677 909 677 956 q 652 839 677 865 q 583 814 628 814 q 514 840 538 814 q 490 909 490 865 q 515 981 490 954 q 583 1007 539 1007 z "},"ý":{"ha":793,"x_min":5,"x_max":789,"o":"m 503 497 q 513 542 509 514 q 519 587 518 570 l 458 595 l 467 693 q 527 689 479 692 q 632 686 575 686 q 720 689 671 686 q 783 693 768 692 l 789 595 l 721 587 q 692 527 710 569 q 663 456 673 485 l 359 -326 l 85 -309 l 100 -199 l 176 -201 q 237 -193 210 -201 q 281 -115 264 -163 l 323 0 l 151 452 q 93 587 111 555 l 5 603 l 14 699 q 91 691 32 696 q 207 686 150 686 q 297 689 245 686 q 364 693 349 692 l 370 595 l 311 587 q 319 538 313 566 q 330 494 325 510 l 418 220 l 503 497 m 602 943 q 511 901 575 930 q 407 852 447 872 l 314 785 l 249 865 l 536 1048 l 602 943 z "},"þ":{"ha":768,"x_min":0,"x_max":774,"o":"m 12 1063 q 80 1055 28 1060 q 175 1050 132 1050 l 297 1053 l 326 1026 l 313 839 l 313 602 q 510 699 393 699 q 705 608 636 699 q 774 353 774 518 q 683 82 774 178 q 425 -14 591 -14 q 313 -7 378 -14 l 313 -50 q 318 -147 313 -93 q 326 -218 323 -201 l 436 -227 l 429 -325 q 346 -321 412 -323 q 180 -318 279 -318 q 97 -321 140 -318 q 41 -325 54 -323 l 35 -235 l 104 -218 q 113 -156 107 -203 q 118 -92 118 -110 l 118 815 q 113 877 118 833 q 104 936 107 921 l 0 960 l 12 1063 m 435 542 q 349 496 379 542 q 313 361 318 450 l 313 138 q 408 118 371 118 q 519 170 485 118 q 553 335 553 221 q 524 491 553 441 q 435 542 496 542 z "},"ÿ":{"ha":793,"x_min":5,"x_max":789,"o":"m 503 497 q 513 542 509 514 q 519 587 518 570 l 458 595 l 467 693 q 527 689 479 692 q 632 686 575 686 q 720 689 671 686 q 783 693 768 692 l 789 595 l 721 587 q 692 527 710 569 q 663 456 673 485 l 359 -326 l 85 -309 l 100 -199 l 176 -201 q 237 -193 210 -201 q 281 -115 264 -163 l 323 0 l 151 452 q 93 587 111 555 l 5 603 l 14 699 q 91 691 32 696 q 207 686 150 686 q 297 689 245 686 q 364 693 349 692 l 370 595 l 311 587 q 319 538 313 566 q 330 494 325 510 l 418 220 l 503 497 m 233 1007 q 302 981 278 1007 q 326 909 326 956 q 302 839 326 865 q 233 814 278 814 q 164 840 189 814 q 139 909 139 867 q 164 981 139 954 q 233 1007 189 1007 m 562 1007 q 631 981 607 1007 q 656 909 656 956 q 631 839 656 865 q 562 814 607 814 q 493 840 517 814 q 469 909 469 865 q 494 981 469 954 q 562 1007 518 1007 z "},"Œ":{"ha":1396,"x_min":37,"x_max":1393,"o":"m 1346 -5 q 1274 -2 1325 -4 q 1187 0 1223 0 l 796 0 l 696 -4 q 533 -26 624 -26 q 272 38 385 -26 q 99 218 160 102 q 37 489 37 334 q 99 761 37 644 q 272 942 160 878 q 533 1006 383 1006 q 694 983 623 1006 q 796 979 786 979 l 1168 979 q 1246 985 1186 979 q 1326 993 1305 990 l 1353 968 l 1362 751 l 1263 745 q 1250 827 1255 811 q 1236 860 1246 845 q 1126 865 1181 865 l 974 865 q 968 753 968 766 l 968 554 q 1004 553 981 553 l 1082 553 q 1119 557 1100 553 q 1143 566 1137 562 l 1156 654 l 1242 647 l 1240 536 q 1242 429 1240 479 q 1244 359 1243 378 l 1156 351 l 1143 435 q 1103 439 1134 436 q 1054 443 1072 443 l 1011 443 q 968 441 978 443 l 968 268 q 972 121 968 204 l 1146 121 q 1253 132 1198 121 q 1279 192 1271 165 q 1296 271 1291 239 l 1393 264 l 1372 20 l 1346 -5 m 766 745 q 703 818 728 794 q 639 856 679 842 q 533 871 599 871 q 348 777 408 871 q 288 489 288 684 q 348 202 288 296 q 533 109 408 109 q 678 148 629 109 q 766 272 728 187 l 766 745 z "},"œ":{"ha":1075,"x_min":29,"x_max":1121,"o":"m 829 699 q 1044 619 968 699 q 1121 395 1121 539 l 1120 361 l 1090 307 l 717 307 q 765 158 724 204 q 890 113 806 113 q 972 123 935 113 q 1031 144 1010 134 q 1059 158 1053 154 l 1107 78 q 835 -21 997 -20 q 607 86 680 -21 q 372 -21 504 -21 q 118 72 207 -21 q 29 339 29 165 q 118 606 29 513 q 372 699 207 699 q 607 590 507 699 q 829 699 682 699 m 814 589 q 743 545 766 589 q 717 410 720 501 l 900 419 l 901 431 q 814 589 901 589 m 372 581 q 279 524 307 581 q 250 339 250 467 q 279 154 250 212 q 372 97 307 97 q 466 154 437 97 q 494 339 494 211 q 466 524 494 467 q 372 581 437 581 z "},"ƒ":{"ha":534,"x_min":7,"x_max":589,"o":"m 478 582 l 321 582 l 300 -29 q 219 -205 294 -140 q 7 -269 143 -269 l 9 -161 q 71 -140 51 -161 q 98 -84 92 -119 q 106 14 104 -49 l 126 582 l 49 582 l 45 669 l 81 681 q 131 697 122 693 l 136 829 q 205 1005 140 941 q 385 1069 271 1069 q 516 1060 444 1069 q 589 1050 589 1051 l 568 818 l 464 822 l 465 885 l 460 946 q 408 957 435 957 q 346 916 361 957 q 328 778 332 875 l 323 686 l 490 686 l 478 582 z "},"ˆ":{"ha":500,"x_min":-25,"x_max":525,"o":"m 460 783 l 367 857 l 250 920 l 134 857 l 40 783 l -25 864 l 250 1063 l 525 864 l 460 783 z "},"˜":{"ha":500,"x_min":7,"x_max":492,"o":"m 492 965 q 471 925 492 962 q 423 857 450 888 q 370 825 396 825 q 318 833 350 825 q 256 851 286 842 q 140 878 174 878 q 110 864 125 878 q 85 837 96 851 q 72 819 75 823 l 7 859 q 28 900 7 861 q 77 971 49 939 q 131 1004 104 1004 q 245 978 164 1004 q 308 960 276 968 q 359 951 340 951 q 389 963 375 951 q 412 988 403 975 q 424 1004 421 1000 l 492 965 z "},"ऀ":{"ha":0,"x_min":24,"x_max":555,"o":"m 468 1048 q 322 1154 427 1154 q 234 1129 269 1154 q 178 1051 199 1104 l 24 1105 q 131 1235 58 1189 q 289 1280 203 1280 q 448 1234 375 1280 q 555 1103 521 1187 l 468 1048 m 333 1115 q 364 1100 343 1115 q 400 1058 385 1084 q 416 998 416 1031 q 402 970 416 989 q 365 938 389 952 q 307 923 340 923 q 277 939 297 923 q 241 980 257 954 q 225 1038 225 1005 q 238 1067 225 1048 q 275 1100 251 1086 q 333 1115 300 1115 z "},"ँ":{"ha":0,"x_min":32,"x_max":564,"o":"m 119 1164 q 265 1059 161 1059 q 353 1083 318 1059 q 410 1161 389 1108 l 564 1107 q 457 978 529 1023 q 298 932 385 932 q 139 978 212 932 q 32 1109 66 1025 l 119 1164 m 279 1296 q 310 1281 289 1296 q 346 1239 330 1265 q 362 1179 362 1213 q 348 1152 362 1170 q 310 1119 334 1133 q 252 1104 286 1104 q 223 1120 243 1104 q 187 1161 203 1135 q 171 1219 171 1186 q 184 1248 171 1229 q 221 1281 197 1267 q 279 1296 245 1296 z "},"ं":{"ha":0,"x_min":17,"x_max":208,"o":"m 125 1131 q 156 1115 135 1131 q 192 1074 176 1100 q 208 1014 208 1047 q 194 986 208 1004 q 156 953 180 968 q 98 939 132 939 q 69 954 89 939 q 33 995 49 970 q 17 1054 17 1021 q 30 1082 17 1063 q 67 1116 43 1101 q 125 1131 92 1131 z "},"ः":{"ha":286,"x_min":47,"x_max":239,"o":"m 156 660 q 186 645 165 660 q 223 603 208 629 q 239 543 239 576 q 225 515 239 534 q 187 483 212 497 q 130 468 163 468 q 100 483 120 468 q 63 524 79 498 q 47 583 47 550 q 61 612 47 593 q 98 645 74 631 q 156 660 123 660 m 156 248 q 186 232 165 248 q 223 191 208 217 q 239 131 239 164 q 225 103 239 121 q 187 70 212 85 q 130 56 163 56 q 100 71 120 56 q 63 112 79 86 q 47 171 47 138 q 61 199 47 180 q 98 233 74 218 q 156 248 123 248 z "},"ऄ":{"ha":1143,"x_min":35,"x_max":1197,"o":"m 1026 256 l 1046 -12 l 1007 -47 l 844 -21 l 868 257 l 868 317 q 782 300 825 300 q 681 315 734 300 q 685 281 685 298 q 646 153 685 207 q 543 70 607 98 q 400 41 478 41 q 204 87 298 41 q 35 221 110 134 l 97 289 q 227 199 159 229 q 354 168 294 168 q 469 205 425 168 q 513 310 513 243 q 490 372 513 343 q 422 418 467 401 q 260 379 357 394 l 220 496 l 240 551 q 488 697 488 585 q 408 764 488 764 q 303 740 358 764 q 196 672 248 717 l 142 697 l 94 836 q 343 897 229 897 q 556 833 475 897 q 636 661 636 768 q 536 473 636 543 q 736 436 653 436 q 868 471 808 436 l 868 745 l 730 745 l 696 848 l 710 890 l 884 890 q 844 942 868 926 q 771 970 819 958 q 625 1002 681 991 l 557 1017 q 450 1067 490 1034 q 361 1173 410 1101 l 332 1213 l 403 1274 q 469 1205 436 1229 q 527 1174 503 1182 q 603 1156 551 1166 l 810 1109 q 917 1054 880 1090 q 974 957 953 1018 q 990 890 985 924 l 1162 890 l 1197 786 l 1179 745 l 1026 745 l 1026 256 z "},"अ":{"ha":1143,"x_min":35,"x_max":1197,"o":"m 1026 256 l 1046 -12 l 1007 -47 l 844 -21 l 868 257 l 868 317 q 782 300 825 300 q 681 315 734 300 q 685 281 685 298 q 646 153 685 207 q 543 70 607 98 q 400 41 478 41 q 204 87 298 41 q 35 221 110 134 l 97 289 q 227 199 159 229 q 354 168 294 168 q 469 205 425 168 q 513 310 513 243 q 490 372 513 343 q 422 418 467 401 q 260 379 357 394 l 220 496 l 240 551 q 488 697 488 585 q 408 764 488 764 q 303 740 358 764 q 196 672 248 717 l 142 697 l 94 836 q 343 897 229 897 q 556 833 475 897 q 636 661 636 768 q 536 473 636 543 q 736 436 653 436 q 868 471 808 436 l 868 745 l 730 745 l 696 848 l 710 890 l 1162 890 l 1197 786 l 1179 745 l 1026 745 l 1026 256 z "},"आ":{"ha":1575,"x_min":35,"x_max":1610,"o":"m 1439 256 l 1458 -12 l 1419 -47 l 1257 -21 l 1280 257 l 1280 745 l 1026 745 l 1026 256 l 1046 -12 l 1007 -47 l 844 -21 l 868 257 l 868 317 q 782 300 825 300 q 681 315 734 300 q 685 281 685 298 q 646 153 685 207 q 543 70 607 98 q 400 41 478 41 q 204 87 298 41 q 35 221 110 134 l 97 289 q 227 199 159 229 q 354 168 294 168 q 469 205 425 168 q 513 310 513 243 q 490 372 513 343 q 422 418 467 401 q 260 379 357 394 l 220 496 l 240 551 q 488 697 488 585 q 408 764 488 764 q 303 740 358 764 q 196 672 248 717 l 142 697 l 94 836 q 343 897 229 897 q 556 833 475 897 q 636 661 636 768 q 536 473 636 543 q 736 436 653 436 q 868 471 808 436 l 868 745 l 730 745 l 696 848 l 710 890 l 1575 890 l 1610 786 l 1592 745 l 1439 745 l 1439 256 z "},"इ":{"ha":780,"x_min":-35,"x_max":815,"o":"m 297 500 q 244 485 265 500 q 222 443 222 471 q 240 398 222 419 q 277 376 257 376 q 325 383 294 376 q 390 399 357 390 q 446 412 401 401 q 518 422 492 422 q 605 396 555 422 q 690 320 654 370 q 725 208 725 271 q 681 58 725 123 q 533 -26 637 -7 q 714 -115 607 -73 l 614 -258 q 488 -170 550 -227 q 354 -29 425 -114 q 163 22 244 -16 q 75 122 82 60 l 104 165 q 205 196 147 196 q 244 192 222 196 q 283 183 267 187 q 380 90 335 129 q 523 135 465 96 q 581 235 581 174 q 571 264 581 252 q 547 277 562 277 q 449 254 518 277 q 349 232 377 232 q 213 264 279 232 q 104 354 146 297 q 62 478 62 411 q 117 613 62 574 q 297 653 171 653 l 454 653 l 454 745 l 0 745 l -35 848 l -21 890 l 781 890 l 815 786 l 802 745 l 612 745 l 612 545 l 571 500 l 297 500 z "},"ई":{"ha":780,"x_min":-35,"x_max":815,"o":"m 297 500 q 244 485 265 500 q 222 443 222 471 q 240 398 222 419 q 277 376 257 376 q 325 383 294 376 q 390 399 357 390 q 446 412 401 401 q 518 422 492 422 q 605 396 555 422 q 690 320 654 370 q 725 208 725 271 q 681 58 725 123 q 533 -26 637 -7 q 714 -115 607 -73 l 614 -258 q 488 -170 550 -227 q 354 -29 425 -114 q 163 22 244 -16 q 75 122 82 60 l 104 165 q 205 196 147 196 q 244 192 222 196 q 283 183 267 187 q 380 90 335 129 q 523 135 465 96 q 581 235 581 174 q 571 264 581 252 q 547 277 562 277 q 449 254 518 277 q 349 232 377 232 q 213 264 279 232 q 104 354 146 297 q 62 478 62 411 q 117 613 62 574 q 297 653 171 653 l 454 653 l 454 745 l 0 745 l -35 848 l -21 890 l 781 890 l 815 786 l 802 745 l 612 745 l 612 545 l 571 500 l 297 500 m 713 1097 q 626 1112 667 1113 q 547 1085 574 1112 q 519 1007 519 1057 q 559 890 519 962 l 488 890 q 437 965 456 921 q 418 1051 418 1008 q 467 1181 418 1133 q 600 1229 516 1229 q 646 1226 625 1229 q 705 1215 667 1223 l 732 1118 l 713 1097 z "},"उ":{"ha":739,"x_min":-41,"x_max":781,"o":"m 549 745 q 595 633 595 696 q 514 479 595 542 q 685 267 685 393 q 608 98 685 154 q 400 41 530 41 q 204 87 298 41 q 35 221 110 134 l 97 289 q 227 199 159 229 q 354 168 294 168 q 469 205 425 168 q 513 310 513 243 q 486 376 513 346 q 407 422 460 407 q 218 371 322 391 l 178 488 l 199 543 q 385 601 325 562 q 446 688 446 640 q 410 745 446 726 l -7 745 l -41 848 l -28 890 l 746 890 l 781 786 l 762 745 l 549 745 z "},"ऊ":{"ha":1080,"x_min":-41,"x_max":1122,"o":"m 549 745 q 595 633 595 696 q 514 479 595 542 q 558 454 539 469 q 741 505 650 506 q 931 441 860 505 q 1003 268 1003 378 q 977 142 1003 205 q 900 25 951 78 l 791 110 l 791 165 q 851 230 829 193 q 873 300 873 267 q 851 359 873 336 q 783 382 828 382 q 672 332 730 382 q 685 267 684 302 q 608 98 685 154 q 400 41 530 41 q 204 87 298 41 q 35 221 110 134 l 97 289 q 227 199 159 229 q 354 168 294 168 q 469 205 425 168 q 513 310 513 243 q 486 376 513 346 q 407 422 460 407 q 218 371 322 391 l 178 488 l 199 543 q 385 601 325 562 q 446 688 446 640 q 410 745 446 726 l -7 745 l -41 848 l -28 890 l 1088 890 l 1122 786 l 1108 745 l 549 745 z "},"ऋ":{"ha":1230,"x_min":-45,"x_max":1265,"o":"m 672 414 q 838 492 768 441 q 823 570 829 529 l 897 632 q 1107 511 1028 614 q 1002 415 1072 464 q 1124 272 1044 334 l 1124 218 l 1114 218 q 981 143 980 217 q 998 105 981 119 q 1042 92 1015 92 q 1161 161 1101 92 l 1232 75 q 1061 -3 1164 -3 q 960 19 1008 -3 q 880 81 911 40 q 850 175 850 122 q 917 293 850 245 q 886 353 901 318 q 672 281 792 310 l 672 256 l 692 -12 l 653 -47 l 490 -21 l 513 233 l 193 -7 l 86 142 q 501 371 317 257 q 399 458 443 432 q 313 485 355 485 q 240 463 275 485 q 139 378 204 441 l 28 522 q 152 606 86 576 q 288 636 218 636 q 407 599 354 636 q 514 496 460 562 l 514 745 l -9 745 l -45 848 l -31 890 l 1231 890 l 1265 786 l 1251 745 l 672 745 l 672 414 z "},"ऌ":{"ha":1140,"x_min":-39,"x_max":1175,"o":"m 1004 256 l 1018 75 l 1017 75 q 873 0 873 75 q 891 -38 873 -24 q 935 -52 908 -52 q 1054 18 994 -52 l 1125 -68 q 954 -146 1057 -146 q 853 -124 901 -146 q 774 -62 804 -103 q 743 32 743 -21 q 767 110 743 75 q 838 165 791 144 l 846 257 l 846 490 q 786 503 810 503 q 648 437 690 503 q 606 275 606 371 l 444 317 q 472 486 444 415 q 386 503 423 503 q 260 458 298 503 q 222 349 222 414 q 274 209 222 278 q 431 93 326 139 l 383 8 q 150 172 239 75 q 61 390 61 269 q 127 575 61 513 q 319 636 193 636 q 525 567 419 636 q 720 636 593 636 q 846 603 782 636 l 846 745 l -4 745 l -39 848 l -25 890 l 1140 890 l 1175 786 l 1157 745 l 1004 745 l 1004 256 z "},"ऍ":{"ha":783,"x_min":-47,"x_max":883,"o":"m 699 745 l 699 486 q 685 354 699 404 q 637 269 671 304 q 536 197 603 233 l 425 254 l 425 349 q 508 382 485 361 q 530 444 530 403 l 530 745 l 253 745 l 253 310 q 322 200 253 231 l 541 104 q 659 -69 659 47 q 632 -150 659 -112 l 539 -150 l 461 -107 q 501 -41 501 -74 q 441 25 501 -4 l 195 143 q 85 330 85 201 l 85 745 l -12 745 l -47 848 l -33 890 l 787 890 l 822 786 l 804 745 l 699 745 m 439 1164 q 585 1059 480 1059 q 673 1083 637 1059 q 729 1161 708 1108 l 883 1107 q 776 978 848 1023 q 618 932 704 932 q 459 978 532 932 q 351 1109 386 1025 l 439 1164 z "},"ऎ":{"ha":783,"x_min":-47,"x_max":822,"o":"m 699 745 l 699 486 q 685 354 699 404 q 637 269 671 304 q 536 197 603 233 l 425 254 l 425 349 q 508 382 485 361 q 530 444 530 403 l 530 745 l 253 745 l 253 310 q 322 200 253 231 l 541 104 q 659 -69 659 47 q 632 -150 659 -112 l 539 -150 l 461 -107 q 501 -41 501 -74 q 441 25 501 -4 l 195 143 q 85 330 85 201 l 85 745 l -12 745 l -47 848 l -33 890 l 787 890 l 822 786 l 804 745 l 699 745 m 68 1274 q 134 1205 101 1229 q 192 1174 168 1182 q 268 1156 216 1166 l 475 1109 q 582 1054 545 1090 q 639 957 618 1018 q 661 863 650 926 l 558 863 q 517 935 543 914 q 436 970 492 956 q 290 1002 346 991 l 222 1017 q 115 1067 155 1034 q 26 1173 75 1101 l -3 1213 l 68 1274 z "},"ए":{"ha":783,"x_min":-47,"x_max":822,"o":"m 699 745 l 699 486 q 685 354 699 404 q 637 269 671 304 q 536 197 603 233 l 425 254 l 425 349 q 508 382 485 361 q 530 444 530 403 l 530 745 l 253 745 l 253 310 q 322 200 253 231 l 541 104 q 659 -69 659 47 q 632 -150 659 -112 l 539 -150 l 461 -107 q 501 -41 501 -74 q 441 25 501 -4 l 195 143 q 85 330 85 201 l 85 745 l -12 745 l -47 848 l -33 890 l 787 890 l 822 786 l 804 745 l 699 745 z "},"ऐ":{"ha":783,"x_min":-47,"x_max":822,"o":"m 699 745 l 699 486 q 685 354 699 404 q 637 269 671 304 q 536 197 603 233 l 425 254 l 425 349 q 508 382 485 361 q 530 444 530 403 l 530 745 l 253 745 l 253 310 q 322 200 253 231 l 541 104 q 659 -69 659 47 q 632 -150 659 -112 l 539 -150 l 461 -107 q 501 -41 501 -74 q 441 25 501 -4 l 195 143 q 85 330 85 201 l 85 745 l -12 745 l -47 848 l -33 890 l 787 890 l 822 786 l 804 745 l 699 745 m 127 1231 q 262 1265 201 1265 q 396 1222 334 1265 q 508 1109 457 1178 q 643 911 559 1040 l 665 876 l 564 876 l 526 924 q 431 1038 465 1000 q 362 1099 397 1076 q 292 1122 328 1122 q 210 1096 254 1122 l 127 1231 z "},"ऑ":{"ha":1575,"x_min":35,"x_max":1630,"o":"m 1439 256 l 1458 -12 l 1419 -47 l 1257 -21 l 1280 257 l 1280 745 l 1026 745 l 1026 256 l 1046 -12 l 1007 -47 l 844 -21 l 868 257 l 868 317 q 782 300 825 300 q 681 315 734 300 q 685 281 685 298 q 646 153 685 207 q 543 70 607 98 q 400 41 478 41 q 204 87 298 41 q 35 221 110 134 l 97 289 q 227 199 159 229 q 354 168 294 168 q 469 205 425 168 q 513 310 513 243 q 490 372 513 343 q 422 418 467 401 q 260 379 357 394 l 220 496 l 240 551 q 488 697 488 585 q 408 764 488 764 q 303 740 358 764 q 196 672 248 717 l 142 697 l 94 836 q 343 897 229 897 q 556 833 475 897 q 636 661 636 768 q 536 473 636 543 q 736 436 653 436 q 868 471 808 436 l 868 745 l 730 745 l 696 848 l 710 890 l 1575 890 l 1610 786 l 1592 745 l 1439 745 l 1439 256 m 1186 1162 q 1332 1057 1227 1057 q 1420 1082 1385 1057 q 1476 1160 1455 1107 l 1630 1105 q 1524 976 1596 1022 q 1365 930 1451 930 q 1206 977 1279 930 q 1099 1108 1133 1023 l 1186 1162 z "},"ऒ":{"ha":1575,"x_min":35,"x_max":1610,"o":"m 1439 256 l 1458 -12 l 1419 -47 l 1257 -21 l 1280 257 l 1280 745 l 1026 745 l 1026 256 l 1046 -12 l 1007 -47 l 844 -21 l 868 257 l 868 317 q 782 300 825 300 q 681 315 734 300 q 685 281 685 298 q 646 153 685 207 q 543 70 607 98 q 400 41 478 41 q 204 87 298 41 q 35 221 110 134 l 97 289 q 227 199 159 229 q 354 168 294 168 q 469 205 425 168 q 513 310 513 243 q 490 372 513 343 q 422 418 467 401 q 260 379 357 394 l 220 496 l 240 551 q 488 697 488 585 q 408 764 488 764 q 303 740 358 764 q 196 672 248 717 l 142 697 l 94 836 q 343 897 229 897 q 556 833 475 897 q 636 661 636 768 q 536 473 636 543 q 736 436 653 436 q 868 471 808 436 l 868 745 l 730 745 l 696 848 l 710 890 l 1296 890 q 1256 941 1280 925 q 1183 968 1232 957 q 1038 1000 1093 989 l 970 1015 q 863 1066 903 1032 q 774 1171 822 1100 l 745 1211 l 815 1272 q 882 1204 848 1227 q 940 1173 916 1181 q 1015 1154 964 1165 l 1222 1108 q 1329 1053 1293 1088 q 1386 956 1365 1017 q 1402 890 1397 921 l 1575 890 l 1610 786 l 1592 745 l 1439 745 l 1439 256 z "},"ओ":{"ha":1575,"x_min":35,"x_max":1610,"o":"m 1439 256 l 1458 -12 l 1419 -47 l 1257 -21 l 1280 257 l 1280 745 l 1026 745 l 1026 256 l 1046 -12 l 1007 -47 l 844 -21 l 868 257 l 868 317 q 782 300 825 300 q 681 315 734 300 q 685 281 685 298 q 646 153 685 207 q 543 70 607 98 q 400 41 478 41 q 204 87 298 41 q 35 221 110 134 l 97 289 q 227 199 159 229 q 354 168 294 168 q 469 205 425 168 q 513 310 513 243 q 490 372 513 343 q 422 418 467 401 q 260 379 357 394 l 220 496 l 240 551 q 488 697 488 585 q 408 764 488 764 q 303 740 358 764 q 196 672 248 717 l 142 697 l 94 836 q 343 897 229 897 q 556 833 475 897 q 636 661 636 768 q 536 473 636 543 q 736 436 653 436 q 868 471 808 436 l 868 745 l 730 745 l 696 848 l 710 890 l 1299 890 l 1276 918 q 1181 1035 1215 996 q 1111 1097 1146 1074 q 1039 1121 1076 1121 q 957 1095 1002 1121 l 875 1229 q 1010 1264 949 1263 q 1146 1218 1084 1264 q 1261 1102 1208 1173 q 1402 890 1314 1031 l 1575 890 l 1610 786 l 1592 745 l 1439 745 l 1439 256 z "},"औ":{"ha":1575,"x_min":35,"x_max":1610,"o":"m 1439 256 l 1458 -12 l 1419 -47 l 1257 -21 l 1280 257 l 1280 745 l 1026 745 l 1026 256 l 1046 -12 l 1007 -47 l 844 -21 l 868 257 l 868 317 q 782 300 825 300 q 681 315 734 300 q 685 281 685 298 q 646 153 685 207 q 543 70 607 98 q 400 41 478 41 q 204 87 298 41 q 35 221 110 134 l 97 289 q 227 199 159 229 q 354 168 294 168 q 469 205 425 168 q 513 310 513 243 q 490 372 513 343 q 422 418 467 401 q 260 379 357 394 l 220 496 l 240 551 q 488 697 488 585 q 408 764 488 764 q 303 740 358 764 q 196 672 248 717 l 142 697 l 94 836 q 343 897 229 897 q 556 833 475 897 q 636 661 636 768 q 536 473 636 543 q 736 436 653 436 q 868 471 808 436 l 868 745 l 730 745 l 696 848 l 710 890 l 1296 890 q 1238 955 1292 920 q 1112 1015 1185 990 q 983 1039 1039 1039 q 857 1008 905 1039 l 790 1129 q 943 1169 875 1169 q 1073 1141 1002 1169 q 1218 1064 1145 1114 q 1113 1186 1162 1146 q 1014 1226 1063 1226 q 945 1210 979 1226 l 882 1337 q 987 1360 936 1360 q 1200 1244 1107 1360 q 1397 890 1293 1128 l 1575 890 l 1610 786 l 1592 745 l 1439 745 l 1439 256 z "},"क":{"ha":1205,"x_min":-35,"x_max":1240,"o":"m 714 579 q 882 623 800 622 q 1073 558 1001 623 q 1145 385 1145 494 q 1098 208 1145 297 q 958 45 1051 119 l 844 135 l 844 191 q 971 302 928 253 q 1014 400 1014 351 q 990 465 1014 441 q 926 488 966 488 q 821 445 876 488 q 714 329 766 401 l 714 256 l 733 -12 l 694 -47 l 532 -21 l 549 180 q 350 129 465 129 q 205 161 272 129 q 99 252 139 193 q 58 390 58 311 q 124 575 58 513 q 317 636 191 636 q 555 554 429 636 l 555 745 l 0 745 l -35 848 l -21 890 l 1206 890 l 1240 786 l 1226 745 l 714 745 l 714 579 m 318 254 q 445 299 383 254 q 555 446 507 345 l 555 469 l 554 467 q 383 503 443 503 q 258 458 296 503 q 220 349 220 414 q 318 254 220 254 z "},"ख":{"ha":1247,"x_min":-41,"x_max":1282,"o":"m 1111 256 l 1131 -12 l 1092 -47 l 929 -21 l 946 179 q 781 146 874 146 q 635 180 704 146 q 524 273 566 215 q 482 400 482 332 q 547 558 482 505 q 733 611 611 611 q 953 538 842 611 l 953 745 l 382 745 q 439 567 439 656 q 388 394 439 469 q 235 272 336 319 q 541 61 347 151 l 435 -75 q 203 129 313 -5 q 40 406 94 262 l 138 503 l 208 468 q 264 533 244 494 q 283 621 283 572 q 256 745 283 676 l -7 745 l -41 848 l -28 890 l 1247 890 l 1282 786 l 1264 745 l 1111 745 l 1111 256 m 749 271 q 858 304 806 271 q 953 401 909 338 l 953 431 q 789 478 857 478 q 682 451 721 478 q 643 372 643 424 q 671 298 643 325 q 749 271 699 271 z "},"ग":{"ha":868,"x_min":-35,"x_max":930,"o":"m 760 256 l 779 -12 l 741 -47 l 578 -21 l 602 257 l 602 745 l 326 745 l 328 703 q 330 604 330 647 q 285 168 330 343 q 167 202 221 168 q 79 292 113 236 q 45 408 46 347 l 79 454 q 176 467 118 464 q 183 557 183 497 q 161 745 183 650 l 0 745 l -35 848 l -21 890 l 896 890 l 930 786 l 913 745 l 760 745 l 760 256 z "},"घ":{"ha":951,"x_min":-41,"x_max":986,"o":"m 815 256 l 835 -12 l 796 -47 l 633 -21 l 650 171 q 390 86 537 86 q 226 115 297 86 q 117 197 155 144 q 78 317 78 249 q 191 505 78 436 q 83 663 83 568 q 97 745 83 709 l -7 745 l -41 848 l -28 890 l 951 890 l 986 786 l 968 745 l 815 745 l 815 256 m 300 745 q 264 702 276 726 q 252 652 252 677 q 293 550 252 599 q 435 578 359 570 l 484 454 l 456 411 q 249 275 249 385 q 273 224 249 243 q 338 205 297 205 q 528 270 442 205 q 657 436 614 334 l 657 745 l 300 745 z "},"ङ":{"ha":884,"x_min":-35,"x_max":920,"o":"m 905 745 l 633 745 l 633 545 l 591 500 l 332 500 q 278 485 300 500 q 257 443 257 471 q 271 397 257 418 q 304 376 285 376 q 352 383 321 376 q 415 399 383 390 q 467 411 422 400 q 539 422 511 422 q 626 396 576 422 q 710 320 675 370 q 746 208 746 271 q 683 47 746 114 q 469 -20 621 -20 q 262 25 372 -20 q 52 149 153 69 l 100 227 q 286 133 220 156 q 437 110 351 110 q 555 143 508 110 q 602 235 602 176 q 592 264 602 252 q 568 277 583 277 q 469 254 539 277 q 370 232 397 232 q 240 264 303 232 q 137 354 176 297 q 97 478 97 411 q 151 613 97 574 q 332 653 205 653 l 475 653 l 475 745 l 0 745 l -35 848 l -21 890 l 885 890 l 920 786 l 905 745 m 799 564 q 829 548 808 564 q 866 507 850 533 q 882 447 882 481 q 868 419 882 437 q 830 387 854 401 q 772 372 806 372 q 743 388 763 372 q 706 429 722 403 q 690 488 690 454 q 704 516 690 497 q 741 549 717 534 q 799 564 765 564 z "},"च":{"ha":1004,"x_min":-41,"x_max":1039,"o":"m 868 256 l 888 -12 l 848 -47 l 686 -21 l 704 189 q 524 143 625 143 q 361 176 435 143 q 244 264 288 208 q 201 390 201 321 q 221 498 201 451 q 104 492 180 497 l 36 636 l 476 636 l 543 503 q 413 462 463 503 q 363 354 363 421 q 392 290 363 313 q 469 268 421 268 q 596 303 533 268 q 710 407 659 339 l 710 745 l -7 745 l -41 848 l -28 890 l 1004 890 l 1039 786 l 1021 745 l 868 745 l 868 256 z "},"छ":{"ha":1029,"x_min":-41,"x_max":1076,"o":"m 819 642 q 936 544 895 610 q 978 385 978 478 q 853 109 978 204 q 501 14 728 14 q 284 51 380 14 q 132 154 187 87 q 77 302 77 220 q 187 505 77 431 q 82 663 81 566 q 96 745 82 709 l -7 745 l -41 848 l -28 890 l 1042 890 l 1076 786 l 1063 745 l 819 745 l 819 642 m 298 745 q 262 702 275 726 q 250 652 250 677 q 289 553 250 600 q 433 583 359 575 l 482 450 l 454 407 q 300 355 353 393 q 248 261 248 317 q 304 166 248 197 q 446 135 361 135 q 714 211 618 135 q 810 443 810 288 q 790 520 810 493 q 737 547 771 547 q 694 526 708 547 q 681 469 681 504 q 691 423 681 447 q 721 378 701 399 l 659 314 q 556 403 599 343 q 504 525 514 463 q 558 621 515 582 q 661 665 602 660 l 661 745 l 298 745 z "},"ज":{"ha":1115,"x_min":-41,"x_max":1150,"o":"m 979 256 l 999 -12 l 960 -47 l 798 -21 l 821 257 l 821 468 q 581 460 690 465 q 662 381 633 428 q 690 278 690 334 q 635 149 690 196 q 486 102 581 102 q 225 213 342 102 q 40 529 109 323 l 135 557 q 263 325 188 408 q 416 241 338 241 q 492 264 465 241 q 518 329 518 288 q 480 414 518 380 q 366 465 443 447 l 334 570 l 371 608 q 821 593 578 606 l 821 745 l -7 745 l -41 848 l -28 890 l 1116 890 l 1150 786 l 1132 745 l 979 745 l 979 256 z "},"झ":{"ha":1215,"x_min":-35,"x_max":1250,"o":"m 1079 256 l 1099 -12 l 1060 -47 l 897 -21 l 918 216 q 867 211 895 211 q 721 248 798 211 q 725 208 725 229 q 681 58 725 123 q 533 -26 637 -7 q 714 -115 607 -73 l 614 -258 q 488 -170 550 -227 q 354 -29 425 -114 q 163 22 244 -16 q 75 122 82 60 l 104 165 q 205 196 147 196 q 244 192 222 196 q 283 183 267 187 q 380 90 335 129 q 523 135 465 96 q 581 235 581 174 q 571 264 581 252 q 547 277 562 277 q 449 254 518 277 q 349 232 377 232 q 213 264 279 232 q 104 354 146 297 q 62 478 62 411 q 117 613 62 574 q 297 653 171 653 l 454 653 l 454 745 l 0 745 l -35 848 l -21 890 l 1215 890 l 1250 786 l 1232 745 l 1079 745 l 1079 256 m 612 745 l 612 545 l 571 500 l 297 500 q 244 485 265 500 q 222 443 222 471 q 240 398 222 419 q 277 376 257 376 q 325 383 294 376 q 390 399 357 390 q 446 412 401 401 q 518 422 492 422 q 583 407 546 422 q 825 349 725 349 q 921 366 880 349 l 921 745 l 612 745 z "},"ञ":{"ha":1192,"x_min":-41,"x_max":1226,"o":"m 1055 256 l 1075 -12 l 1036 -47 l 873 -21 l 897 257 l 897 293 l 875 292 q 753 319 823 292 q 674 166 746 218 q 503 114 603 114 q 237 226 365 114 q 24 538 109 338 l 119 574 q 268 337 182 421 q 443 253 354 253 q 562 290 518 253 q 606 390 606 326 q 572 465 606 437 q 484 493 539 493 q 342 444 403 493 l 272 587 q 348 623 304 610 q 435 636 392 636 q 625 581 543 636 q 737 437 707 526 q 833 429 783 429 q 897 436 865 429 l 897 745 l -7 745 l -41 848 l -28 890 l 1192 890 l 1226 786 l 1208 745 l 1055 745 l 1055 256 z "},"ट":{"ha":782,"x_min":-41,"x_max":823,"o":"m 390 485 q 236 328 236 484 q 247 239 236 273 q 293 186 258 205 q 393 167 328 167 q 529 186 475 167 q 608 254 583 205 l 747 136 q 621 46 701 78 q 435 14 541 14 q 253 62 339 14 q 115 196 167 111 q 62 380 62 281 q 138 569 62 500 q 343 637 214 637 l 501 637 l 501 745 l -7 745 l -41 848 l -28 890 l 789 890 l 823 786 l 810 745 l 660 745 l 660 522 l 625 485 l 390 485 z "},"ठ":{"ha":863,"x_min":-41,"x_max":905,"o":"m 659 593 q 764 456 725 526 q 803 307 803 386 q 758 152 803 218 q 629 49 713 85 q 433 14 545 14 q 252 62 338 14 q 113 197 165 111 q 61 383 61 282 q 137 568 61 500 q 342 636 212 636 l 500 636 l 500 745 l -7 745 l -41 848 l -28 890 l 871 890 l 905 786 l 892 745 l 659 745 l 659 593 m 392 167 q 568 207 507 167 q 629 357 629 248 q 604 484 629 420 l 389 484 q 235 330 235 484 q 246 240 235 275 q 291 186 257 205 q 392 167 325 167 z "},"ड":{"ha":801,"x_min":-35,"x_max":836,"o":"m 332 500 q 278 485 300 500 q 257 443 257 471 q 271 397 257 418 q 304 376 285 376 q 352 383 321 376 q 415 399 383 390 q 467 411 422 400 q 539 422 511 422 q 626 396 576 422 q 710 320 675 370 q 746 208 746 271 q 683 47 746 114 q 469 -20 621 -20 q 262 25 372 -20 q 52 149 153 69 l 100 227 q 286 133 220 156 q 437 110 351 110 q 555 143 508 110 q 602 235 602 176 q 592 264 602 252 q 568 277 583 277 q 469 254 539 277 q 370 232 397 232 q 240 264 303 232 q 137 354 176 297 q 97 478 97 411 q 151 613 97 574 q 332 653 205 653 l 475 653 l 475 745 l 0 745 l -35 848 l -21 890 l 802 890 l 836 786 l 822 745 l 633 745 l 633 545 l 591 500 l 332 500 z "},"ढ":{"ha":814,"x_min":-41,"x_max":856,"o":"m 396 500 q 222 353 222 500 q 272 195 222 253 q 411 138 322 138 l 414 138 q 353 210 376 172 q 318 294 330 248 q 384 392 328 355 q 522 429 440 429 q 648 404 591 429 q 736 335 704 379 q 768 239 768 292 q 685 76 768 136 q 460 16 602 16 q 276 53 371 16 q 115 172 180 90 q 49 380 49 254 q 132 583 49 511 q 368 653 215 654 l 488 653 l 488 745 l -7 745 l -41 848 l -28 890 l 821 890 l 856 786 l 842 745 l 646 745 l 646 553 l 603 498 l 396 500 m 490 253 q 517 153 490 205 q 604 268 604 183 q 591 307 604 290 q 553 323 578 323 q 510 303 529 323 q 490 253 490 282 z "},"ण":{"ha":1051,"x_min":-41,"x_max":1086,"o":"m 916 256 l 935 -12 l 896 -47 l 733 -21 l 757 257 l 757 745 l 578 745 l 578 418 q 517 239 578 304 q 339 174 456 174 q 205 209 264 174 q 113 306 146 244 q 79 440 79 367 l 79 745 l -7 745 l -41 848 l -28 890 l 1051 890 l 1086 786 l 1068 745 l 916 745 l 916 256 m 232 745 l 232 428 q 254 326 232 356 q 323 296 277 296 q 395 333 365 296 q 425 431 425 370 l 425 745 l 232 745 z "},"त":{"ha":847,"x_min":-41,"x_max":882,"o":"m 711 256 l 730 -12 l 692 -47 l 529 -21 l 553 257 l 553 453 l 355 453 q 251 419 286 453 q 216 330 216 386 q 255 202 216 269 q 359 82 293 135 l 296 9 q 120 195 179 98 q 61 371 61 292 q 323 587 61 587 l 553 587 l 553 745 l -7 745 l -41 848 l -28 890 l 847 890 l 882 786 l 864 745 l 711 745 l 711 256 z "},"थ":{"ha":940,"x_min":40,"x_max":975,"o":"m 804 256 l 823 -12 l 785 -47 l 623 -21 l 642 205 q 458 147 554 147 q 217 229 321 147 q 74 441 114 310 l 100 494 q 358 686 358 542 q 341 748 358 725 q 289 771 323 771 q 242 753 260 771 q 224 707 224 736 q 233 665 224 683 q 258 629 241 647 l 196 566 q 93 647 139 589 q 40 762 46 705 q 252 901 96 901 q 384 867 328 901 q 470 776 440 833 q 500 652 500 718 q 469 541 500 596 q 374 440 437 485 q 221 374 311 396 q 422 293 295 293 q 549 326 490 293 q 646 419 607 359 l 646 745 l 509 745 l 473 848 l 488 890 l 940 890 l 975 786 l 957 745 l 804 745 l 804 256 z "},"द":{"ha":825,"x_min":-41,"x_max":867,"o":"m 407 482 q 278 449 322 482 q 233 353 233 416 q 278 220 233 272 q 400 168 323 168 q 496 189 457 168 q 472 265 482 232 l 546 339 q 772 249 681 339 q 660 96 745 152 q 730 26 690 58 q 828 -46 770 -7 l 694 -154 q 554 53 612 -64 q 456 41 505 42 q 256 87 347 41 q 113 210 165 132 q 60 380 60 288 q 144 569 60 503 q 379 635 228 636 l 498 635 l 498 745 l -7 745 l -41 848 l -28 890 l 832 890 l 867 786 l 852 745 l 657 745 l 657 534 l 614 481 l 407 482 z "},"ध":{"ha":1025,"x_min":77,"x_max":1060,"o":"m 889 256 l 908 -12 l 869 -47 l 707 -21 l 724 174 q 583 96 664 122 q 416 69 501 69 q 259 98 323 69 q 163 174 195 126 q 131 277 131 221 q 158 376 131 330 q 237 458 184 422 q 117 561 158 497 q 77 704 77 625 q 136 847 77 793 q 288 901 196 901 q 405 874 355 901 q 478 807 454 847 q 503 728 503 766 q 463 619 503 657 q 361 581 422 581 q 235 616 298 581 q 332 505 253 555 q 485 538 398 529 l 533 412 l 505 368 q 353 327 408 361 q 297 241 297 293 q 316 198 297 215 q 375 180 335 180 q 563 247 461 180 q 730 408 664 314 l 730 745 l 593 745 l 558 848 l 572 890 l 1025 890 l 1060 786 l 1042 745 l 889 745 l 889 256 m 340 770 q 274 743 304 770 q 233 676 243 717 l 253 675 q 351 696 314 675 q 389 741 389 717 q 376 761 389 753 q 340 770 364 770 z "},"न":{"ha":937,"x_min":-35,"x_max":972,"o":"m 802 256 l 821 -12 l 782 -47 l 619 -21 l 643 257 l 643 346 q 334 323 496 342 q 304 240 321 279 q 272 179 288 201 q 148 218 198 179 q 72 313 97 257 q 46 421 46 370 l 81 467 q 200 480 139 477 q 366 484 261 484 q 643 476 431 484 l 643 745 l 0 745 l -35 848 l -21 890 l 937 890 l 972 786 l 954 745 l 802 745 l 802 256 z "},"ऩ":{"ha":937,"x_min":-35,"x_max":972,"o":"m 802 256 l 821 -12 l 782 -47 l 619 -21 l 643 257 l 643 346 q 334 323 496 342 q 304 240 321 279 q 272 179 288 201 q 148 218 198 179 q 72 313 97 257 q 46 421 46 370 l 81 467 q 200 480 139 477 q 366 484 261 484 q 643 476 431 484 l 643 745 l 0 745 l -35 848 l -21 890 l 937 890 l 972 786 l 954 745 l 802 745 l 802 256 m 292 96 q 322 81 301 96 q 359 39 343 66 q 375 -20 375 13 q 361 -48 375 -30 q 323 -81 347 -66 q 265 -96 298 -96 q 235 -80 256 -96 q 199 -39 215 -65 q 183 20 183 -14 q 196 48 183 29 q 234 82 210 67 q 292 96 258 96 z "},"प":{"ha":844,"x_min":-41,"x_max":879,"o":"m 708 256 l 728 -12 l 689 -47 l 526 -21 l 547 228 q 355 184 463 185 q 227 224 290 184 q 123 329 163 264 q 83 464 83 393 l 83 745 l -7 745 l -41 848 l -28 890 l 844 890 l 879 786 l 861 745 l 708 745 l 708 256 m 250 745 l 250 404 q 269 333 250 357 q 332 310 288 310 q 458 349 411 310 q 550 458 505 387 l 550 745 l 250 745 z "},"फ":{"ha":1171,"x_min":-41,"x_max":1198,"o":"m 708 589 q 854 623 780 622 q 1045 558 974 623 q 1117 385 1117 494 q 1070 208 1117 297 q 930 45 1023 119 l 817 135 l 817 191 q 943 302 900 253 q 986 400 986 351 q 962 465 986 441 q 899 488 939 488 q 805 453 854 488 q 708 358 757 418 l 708 256 l 728 -12 l 689 -47 l 526 -21 l 547 228 q 355 184 463 185 q 227 224 290 184 q 123 329 163 264 q 83 464 83 393 l 83 745 l -7 745 l -41 848 l -28 890 l 1164 890 l 1198 786 l 1185 745 l 708 745 l 708 589 m 250 745 l 250 404 q 269 333 250 357 q 332 310 288 310 q 458 349 411 310 q 550 458 505 387 l 550 745 l 250 745 z "},"ब":{"ha":838,"x_min":-41,"x_max":873,"o":"m 703 256 l 722 -12 l 684 -47 l 521 -21 l 536 163 q 371 129 463 130 q 212 163 283 129 q 99 257 140 197 q 58 390 58 317 q 130 573 58 511 q 338 636 201 636 q 545 578 439 636 l 545 745 l -7 745 l -41 848 l -28 890 l 839 890 l 873 786 l 856 745 l 703 745 l 703 256 m 545 475 q 404 503 463 503 q 345 497 368 503 l 513 335 q 545 374 535 360 l 545 475 m 339 254 q 432 277 387 254 l 252 449 q 220 363 220 414 q 252 283 220 311 q 339 254 285 254 z "},"भ":{"ha":1021,"x_min":69,"x_max":1055,"o":"m 885 256 l 904 -12 l 865 -47 l 703 -21 l 726 257 l 726 330 q 441 310 568 323 q 379 165 414 217 q 255 204 305 165 q 178 299 204 243 q 153 407 153 355 l 187 453 q 325 467 250 464 q 370 681 370 606 q 349 748 370 724 q 298 772 329 772 q 259 758 276 772 q 243 717 243 743 q 255 672 243 692 q 288 629 267 652 l 225 566 q 122 647 168 589 q 69 762 75 705 q 139 862 90 823 q 253 901 187 901 q 390 853 334 901 q 474 740 446 804 q 503 635 503 676 q 484 469 503 563 q 726 464 566 469 l 726 745 l 589 745 l 554 848 l 568 890 l 1021 890 l 1055 786 l 1038 745 l 885 745 l 885 256 z "},"म":{"ha":966,"x_min":-35,"x_max":1002,"o":"m 831 256 l 850 -12 l 811 -47 l 648 -21 l 672 257 l 672 321 q 334 297 528 319 q 304 214 321 252 q 272 153 288 175 q 148 192 198 153 q 72 287 97 231 q 46 395 46 343 l 81 440 q 204 454 136 450 q 208 497 207 470 q 210 557 210 525 q 187 745 210 650 l 0 745 l -35 848 l -21 890 l 966 890 l 1002 786 l 983 745 l 831 745 l 831 256 m 353 745 q 357 604 357 675 q 354 457 357 554 l 366 457 q 615 450 414 457 l 672 449 l 672 745 l 353 745 z "},"य":{"ha":865,"x_min":-41,"x_max":900,"o":"m 729 256 l 749 -12 l 710 -47 l 547 -21 l 567 203 q 387 147 477 147 q 234 186 307 147 q 111 293 161 225 q 45 444 60 361 l 71 497 q 179 535 146 508 q 212 611 212 562 q 132 745 212 676 l -7 745 l -41 848 l -28 890 l 865 890 l 900 786 l 882 745 l 729 745 l 729 256 m 273 745 q 350 654 326 697 q 374 564 374 611 q 325 455 374 508 q 196 374 275 403 q 248 315 205 336 q 351 293 290 293 q 474 324 416 293 q 571 412 532 355 l 571 745 l 273 745 z "},"र":{"ha":572,"x_min":-41,"x_max":614,"o":"m 382 745 q 439 567 439 656 q 388 394 439 469 q 235 272 336 319 q 541 61 347 151 l 435 -75 q 203 129 313 -5 q 40 406 94 262 l 138 503 l 208 468 q 264 533 244 494 q 283 621 283 572 q 256 745 283 676 l -7 745 l -41 848 l -28 890 l 579 890 l 614 786 l 596 745 l 382 745 z "},"ऱ":{"ha":572,"x_min":-41,"x_max":614,"o":"m 382 745 q 439 567 439 656 q 388 394 439 469 q 235 272 336 319 q 541 61 347 151 l 435 -75 q 203 129 313 -5 q 40 406 94 262 l 138 503 l 208 468 q 264 533 244 494 q 283 621 283 572 q 256 745 283 676 l -7 745 l -41 848 l -28 890 l 579 890 l 614 786 l 596 745 l 382 745 m 127 99 q 157 84 136 99 q 194 42 178 68 q 210 -18 210 16 q 196 -45 210 -27 q 158 -78 182 -64 q 100 -93 134 -93 q 71 -78 91 -93 q 34 -37 50 -62 q 18 22 18 -11 q 32 51 18 32 q 69 84 45 70 q 127 99 94 99 z "},"ल":{"ha":1140,"x_min":-39,"x_max":1175,"o":"m 1004 256 l 1023 -12 l 985 -47 l 822 -21 l 846 257 l 846 490 q 786 503 810 503 q 648 437 690 503 q 606 275 606 371 l 444 317 q 472 486 444 415 q 386 503 423 503 q 260 458 298 503 q 222 349 222 414 q 274 209 222 278 q 431 93 326 139 l 383 8 q 150 172 239 75 q 61 390 61 269 q 127 575 61 513 q 319 636 193 636 q 525 567 419 636 q 720 636 593 636 q 846 603 782 636 l 846 745 l -4 745 l -39 848 l -25 890 l 1140 890 l 1175 786 l 1157 745 l 1004 745 l 1004 256 z "},"ळ":{"ha":1030,"x_min":-35,"x_max":1065,"o":"m 840 600 q 936 506 900 566 q 971 375 971 447 q 916 196 971 262 q 754 129 861 129 q 521 237 648 129 q 437 160 488 191 q 323 129 386 129 q 191 164 252 129 q 95 258 131 199 q 60 390 60 318 q 115 569 60 503 q 277 636 170 636 q 509 528 384 636 q 586 601 541 572 q 682 635 631 629 l 682 745 l 0 745 l -35 848 l -21 890 l 1031 890 l 1065 786 l 1051 745 l 840 745 l 840 600 m 677 262 q 774 307 739 262 q 810 416 810 351 q 785 488 810 465 q 732 511 761 511 q 643 460 683 511 q 557 304 603 410 q 677 262 633 263 m 298 254 q 387 307 346 254 q 472 461 428 359 q 406 492 439 481 q 353 503 374 503 q 256 458 292 503 q 221 349 221 414 q 245 277 221 300 q 298 254 269 254 z "},"ऴ":{"ha":1030,"x_min":-35,"x_max":1065,"o":"m 840 600 q 936 506 900 566 q 971 375 971 447 q 916 196 971 262 q 754 129 861 129 q 521 237 648 129 q 437 160 488 191 q 323 129 386 129 q 191 164 252 129 q 95 258 131 199 q 60 390 60 318 q 115 569 60 503 q 277 636 170 636 q 509 528 384 636 q 586 601 541 572 q 682 635 631 629 l 682 745 l 0 745 l -35 848 l -21 890 l 1031 890 l 1065 786 l 1051 745 l 840 745 l 840 600 m 677 262 q 774 307 739 262 q 810 416 810 351 q 785 488 810 465 q 732 511 761 511 q 643 460 683 511 q 557 304 603 410 q 677 262 633 263 m 298 254 q 387 307 346 254 q 472 461 428 359 q 406 492 439 481 q 353 503 374 503 q 256 458 292 503 q 221 349 221 414 q 245 277 221 300 q 298 254 269 254 m 549 114 q 579 99 558 114 q 616 57 600 83 q 632 -3 632 31 q 618 -31 632 -12 q 580 -63 604 -49 q 522 -78 555 -78 q 492 -63 513 -78 q 456 -22 472 -47 q 440 37 440 4 q 453 66 440 47 q 491 99 467 85 q 549 114 515 114 z "},"व":{"ha":833,"x_min":-41,"x_max":868,"o":"m 697 256 l 717 -12 l 677 -47 l 515 -21 l 530 160 q 371 129 461 130 q 212 163 283 129 q 99 257 140 197 q 58 390 58 317 q 130 573 58 511 q 338 636 201 636 q 539 581 436 636 l 539 745 l -7 745 l -41 848 l -28 890 l 833 890 l 868 786 l 850 745 l 697 745 l 697 256 m 339 254 q 447 286 396 254 q 539 379 497 318 l 539 478 q 404 503 456 503 q 270 465 319 503 q 220 363 220 428 q 252 283 220 311 q 339 254 285 254 z "},"श":{"ha":1065,"x_min":41,"x_max":1128,"o":"m 957 256 l 977 -12 l 938 -47 l 775 -21 l 799 257 l 799 745 l 661 745 l 627 848 l 640 890 l 1093 890 l 1128 786 l 1110 745 l 957 745 l 957 256 m 410 197 q 690 11 525 87 l 583 -127 q 432 -9 507 -81 q 298 150 358 62 l 281 150 q 173 174 225 150 q 85 237 121 199 q 41 315 50 275 l 62 385 q 178 427 115 426 q 252 412 212 427 q 282 370 265 399 q 306 330 300 340 q 407 413 364 358 q 471 533 449 468 q 493 657 493 599 q 472 747 493 713 q 411 782 452 782 q 349 760 371 782 q 328 703 328 737 q 364 615 328 655 l 301 551 q 198 639 245 574 q 146 762 151 704 q 226 864 172 826 q 363 901 279 901 q 515 861 452 901 q 613 749 579 821 q 647 587 647 677 q 587 365 647 465 q 410 197 526 265 z "},"ष":{"ha":830,"x_min":-41,"x_max":865,"o":"m 694 256 l 714 -12 l 675 -47 l 513 -21 l 533 221 q 355 184 451 185 q 227 224 290 184 q 123 329 163 264 q 83 464 83 393 l 83 745 l -7 745 l -41 848 l -28 890 l 831 890 l 865 786 l 847 745 l 694 745 l 694 256 m 311 745 l 536 446 l 536 745 l 311 745 m 332 310 q 467 355 411 309 l 250 648 l 250 404 q 269 333 250 357 q 332 310 288 310 z "},"स":{"ha":1025,"x_min":-41,"x_max":1060,"o":"m 889 256 l 908 -12 l 869 -47 l 707 -21 l 730 257 l 730 307 q 576 275 654 275 q 346 346 475 275 q 235 272 301 304 q 541 61 347 151 l 435 -75 q 203 129 313 -5 q 40 406 94 262 l 138 503 l 208 468 q 264 533 244 494 q 283 621 283 572 q 256 745 283 676 l -7 745 l -41 848 l -28 890 l 1025 890 l 1060 786 l 1042 745 l 889 745 l 889 256 m 382 745 q 439 567 439 656 q 407 428 439 492 q 510 414 457 414 q 730 489 629 414 l 730 745 l 382 745 z "},"ह":{"ha":758,"x_min":-41,"x_max":800,"o":"m 318 500 q 264 485 285 500 q 243 443 243 469 q 248 419 243 431 q 386 436 306 436 q 551 405 479 436 q 662 317 623 374 q 701 184 701 260 q 684 113 701 149 q 625 28 667 78 l 519 85 l 519 142 q 572 228 572 186 q 534 282 572 262 q 431 302 496 302 q 297 261 346 302 q 248 149 248 220 q 310 23 248 82 q 484 -77 372 -36 l 436 -161 q 177 2 268 -92 q 86 204 86 97 q 129 346 86 290 q 83 478 83 410 q 137 613 83 572 q 318 653 191 653 l 461 653 l 461 745 l -7 745 l -41 848 l -28 890 l 765 890 l 800 786 l 786 745 l 619 745 l 619 545 l 578 500 l 318 500 z "},"ऺ":{"ha":0,"x_min":28,"x_max":186,"o":"m 186 1071 l 186 863 l 28 863 l 28 1096 l 69 1109 l 186 1071 z "},"ऻ":{"ha":404,"x_min":-49,"x_max":453,"o":"m 282 256 l 301 -12 l 262 -47 l 100 -21 l 123 257 l 123 745 l -14 745 l -49 848 l -35 890 l 123 890 l 123 1096 l 165 1109 l 282 1071 l 282 890 l 418 890 l 453 786 l 435 745 l 282 745 l 282 256 z "},"़":{"ha":0,"x_min":3,"x_max":195,"o":"m 111 -64 q 142 -79 121 -64 q 179 -121 163 -94 q 195 -180 195 -147 q 181 -208 195 -190 q 142 -241 167 -227 q 85 -256 118 -256 q 55 -240 75 -256 q 19 -199 35 -225 q 3 -140 3 -174 q 16 -112 3 -131 q 54 -78 29 -93 q 111 -64 78 -64 z "},"ऽ":{"ha":673,"x_min":1,"x_max":652,"o":"m 306 745 q 250 730 269 745 q 231 693 231 715 q 249 646 231 671 q 302 602 268 621 l 414 534 q 537 456 490 490 q 618 374 585 422 q 652 267 652 326 q 570 99 652 157 q 367 41 489 41 q 171 87 265 41 q 1 221 77 134 l 64 289 q 194 199 126 229 q 321 168 261 168 q 435 205 391 168 q 479 310 479 243 q 445 387 479 351 q 345 463 410 422 l 205 546 q 105 635 139 586 q 72 733 72 684 q 127 845 72 800 q 278 890 183 890 l 539 890 l 574 786 l 559 745 l 306 745 z "},"ा":{"ha":431,"x_min":-35,"x_max":467,"o":"m 296 256 l 315 -12 l 277 -47 l 114 -21 l 138 257 l 138 745 l 0 745 l -35 848 l -21 890 l 432 890 l 467 786 l 449 745 l 296 745 l 296 256 z "},"ि":{"ha":431,"x_min":-35,"x_max":1080,"o":"m 339 1253 q 694 1175 503 1253 q 1080 970 885 1097 l 1040 932 l 1015 936 q 700 1066 872 1015 q 407 1117 528 1117 q 270 1081 318 1117 q 221 986 221 1046 q 250 890 221 940 l 432 890 l 467 786 l 449 745 l 296 745 l 296 256 l 315 -12 l 277 -47 l 114 -21 l 138 257 l 138 745 l 0 745 l -35 848 l -21 890 l 157 890 q 104 1064 104 979 q 165 1203 104 1153 q 339 1253 225 1253 z "},"ी":{"ha":431,"x_min":-404,"x_max":467,"o":"m 296 256 l 315 -12 l 277 -47 l 114 -21 l 138 257 l 138 745 l 0 745 l -35 848 l -21 890 l 136 890 q 79 1021 124 967 q -28 1102 33 1075 q -149 1129 -89 1129 q -243 1104 -205 1129 q -281 1036 -281 1079 q -275 1000 -281 1017 q -256 961 -269 983 l -311 921 q -404 1080 -404 1002 q -353 1199 -404 1160 q -220 1238 -302 1238 q -24 1193 -130 1238 q 167 1069 81 1149 q 293 890 253 990 l 432 890 l 467 786 l 449 745 l 296 745 l 296 256 z "},"ु":{"ha":0,"x_min":29,"x_max":635,"o":"m 197 -41 q 370 14 281 14 q 490 -14 428 14 q 594 -89 553 -41 q 635 -192 635 -136 q 574 -328 635 -277 q 424 -379 514 -379 q 201 -310 295 -379 q 29 -122 107 -241 l 96 -86 q 244 -211 175 -176 q 382 -245 313 -245 q 475 -221 447 -245 q 503 -157 503 -196 q 484 -118 503 -133 q 435 -103 465 -103 q 286 -163 364 -103 l 197 -41 z "},"ू":{"ha":0,"x_min":18,"x_max":618,"o":"m 425 -304 q 257 -378 351 -378 q 146 -351 201 -378 q 54 -278 90 -323 q 18 -180 18 -232 q 45 -84 18 -126 q 119 -17 72 -41 q 220 7 165 7 q 534 -143 412 7 q 618 -261 581 -197 l 575 -323 q 417 -170 492 -214 q 271 -126 342 -126 q 178 -160 207 -126 q 150 -235 150 -195 q 169 -274 150 -258 q 218 -289 187 -289 q 328 -220 275 -289 l 425 -304 z "},"ृ":{"ha":0,"x_min":43,"x_max":425,"o":"m 317 -64 q 174 -139 174 -64 q 191 -177 174 -163 q 235 -191 208 -191 q 354 -121 294 -191 l 425 -207 q 254 -285 357 -285 q 153 -263 201 -285 q 74 -201 104 -241 q 43 -107 43 -160 q 103 5 43 -39 q 260 50 163 50 l 317 -64 z "},"ॄ":{"ha":0,"x_min":25,"x_max":571,"o":"m 571 -440 q 480 -515 526 -492 q 380 -539 433 -539 q 269 -513 326 -539 q 175 -445 212 -488 q 138 -355 138 -403 q 144 -301 138 -326 q 58 -234 92 -275 q 25 -149 25 -193 q 54 -48 25 -89 q 119 17 82 -7 q 241 89 155 41 l 357 -21 q 247 -72 285 -53 q 183 -121 210 -92 q 157 -189 157 -150 q 176 -228 157 -213 q 225 -243 195 -243 q 285 -223 257 -243 q 359 -149 313 -204 l 457 -233 q 297 -329 383 -317 q 273 -392 273 -362 q 292 -434 273 -418 q 342 -450 311 -450 q 400 -431 374 -450 q 473 -355 427 -412 l 571 -440 z "},"ॅ":{"ha":0,"x_min":32,"x_max":564,"o":"m 119 1164 q 265 1059 161 1059 q 353 1083 318 1059 q 410 1161 389 1108 l 564 1107 q 457 978 529 1023 q 298 932 385 932 q 139 978 212 932 q 32 1109 66 1025 l 119 1164 z "},"ॆ":{"ha":0,"x_min":14,"x_max":677,"o":"m 85 1274 q 151 1205 118 1229 q 209 1174 184 1182 q 285 1156 233 1166 l 492 1109 q 598 1054 562 1090 q 656 957 635 1018 q 677 863 667 926 l 575 863 q 534 935 559 914 q 453 970 509 956 q 307 1002 363 991 l 239 1017 q 132 1067 172 1034 q 43 1173 92 1101 l 14 1213 l 85 1274 z "},"े":{"ha":0,"x_min":14,"x_max":551,"o":"m 14 1231 q 149 1265 87 1265 q 282 1222 220 1265 q 394 1109 343 1178 q 529 911 446 1040 l 551 876 l 450 876 l 412 924 q 317 1038 351 1000 q 249 1099 283 1076 q 178 1122 214 1122 q 96 1096 140 1122 l 14 1231 z "},"ै":{"ha":0,"x_min":14,"x_max":628,"o":"m 519 888 q 466 953 519 917 q 338 1015 412 989 q 207 1040 264 1040 q 81 1010 129 1040 l 14 1131 q 167 1171 98 1171 q 297 1143 225 1171 q 441 1065 368 1116 q 336 1187 386 1147 q 237 1227 286 1227 q 168 1211 204 1227 l 106 1339 q 211 1361 160 1361 q 365 1303 294 1361 q 496 1141 435 1244 q 628 876 557 1038 l 557 876 l 519 873 l 519 888 z "},"ॉ":{"ha":431,"x_min":-45,"x_max":487,"o":"m 296 256 l 315 -12 l 277 -47 l 114 -21 l 138 257 l 138 745 l 0 745 l -35 848 l -21 890 l 432 890 l 467 786 l 449 745 l 296 745 l 296 256 m 43 1164 q 189 1059 84 1059 q 277 1083 241 1059 q 333 1161 312 1108 l 487 1107 q 380 978 452 1023 q 222 932 308 932 q 63 978 136 932 q -45 1109 -10 1025 l 43 1164 z "},"ॊ":{"ha":431,"x_min":-399,"x_max":467,"o":"m 296 256 l 315 -12 l 277 -47 l 114 -21 l 138 257 l 138 745 l 0 745 l -35 848 l -21 890 l 153 890 q 113 942 137 926 q 40 970 89 958 q -106 1002 -50 991 l -174 1017 q -280 1067 -240 1034 q -370 1173 -321 1101 l -399 1213 l -328 1274 q -261 1205 -294 1229 q -203 1174 -228 1182 q -127 1156 -179 1166 l 79 1109 q 186 1054 150 1090 q 243 957 222 1018 q 260 890 254 924 l 432 890 l 467 786 l 449 745 l 296 745 l 296 256 z "},"ो":{"ha":431,"x_min":-268,"x_max":467,"o":"m 296 256 l 315 -12 l 277 -47 l 114 -21 l 138 257 l 138 745 l 0 745 l -35 848 l -21 890 l 157 890 l 129 925 q -5 1079 43 1035 q -104 1122 -53 1122 q -186 1096 -142 1122 l -268 1231 q -134 1265 -194 1265 q -1 1222 -62 1265 q 111 1113 60 1179 q 245 916 161 1046 q 261 890 250 907 l 432 890 l 467 786 l 449 745 l 296 745 l 296 256 z "},"ौ":{"ha":431,"x_min":-353,"x_max":467,"o":"m 296 256 l 315 -12 l 277 -47 l 114 -21 l 138 257 l 138 745 l 0 745 l -35 848 l -21 890 l 153 890 q 96 955 150 920 q -30 1015 43 990 q -160 1040 -103 1040 q -286 1010 -238 1040 l -353 1131 q -200 1171 -268 1171 q -70 1143 -142 1171 q 75 1065 1 1116 q -31 1187 20 1147 q -129 1227 -81 1227 q -199 1211 -162 1227 l -261 1339 q -155 1361 -207 1361 q -4 1305 -73 1361 q 125 1148 65 1249 q 256 890 186 1047 l 432 890 l 467 786 l 449 745 l 296 745 l 296 256 z "},"्":{"ha":0,"x_min":25,"x_max":496,"o":"m 31 -115 q 79 -103 49 -109 q 131 -97 110 -97 q 253 -131 193 -97 q 365 -213 313 -164 q 496 -349 416 -262 l 427 -403 q 288 -285 356 -331 q 170 -239 220 -239 q 115 -247 143 -239 q 81 -257 86 -256 l 25 -160 l 31 -115 z "},"ॎ":{"ha":280,"x_min":-24,"x_max":315,"o":"m 297 745 l 158 745 l 158 256 l 178 -12 l 139 -47 l -24 -21 l 0 257 l 0 890 l 281 890 l 315 786 l 297 745 z "},"ॏ":{"ha":431,"x_min":-421,"x_max":467,"o":"m 296 256 l 315 -12 l 277 -47 l 114 -21 l 138 257 l 138 745 l 0 745 l -35 848 l -21 890 l 164 890 q 122 929 147 917 q 53 947 97 942 l -179 971 q -304 1022 -256 983 q -403 1122 -353 1060 l -421 1145 l -371 1197 q -276 1125 -328 1145 q -160 1099 -224 1105 q 11 1074 -117 1095 q 191 987 136 1054 q 125 1068 175 1042 l -58 1164 q -164 1259 -130 1201 q -213 1365 -197 1317 q -232 1426 -228 1414 l -164 1455 q -121 1371 -146 1402 q -76 1325 -96 1339 q -8 1282 -56 1311 l 175 1177 q 251 1095 233 1138 q 271 981 268 1051 q 267 890 271 941 l 432 890 l 467 786 l 449 745 l 296 745 l 296 256 z "},"ॐ":{"ha":1397,"x_min":0,"x_max":1369,"o":"m 766 916 q 737 931 757 916 q 701 971 717 946 q 685 1031 685 997 q 698 1059 685 1040 q 735 1092 711 1078 q 793 1107 760 1107 q 823 1092 802 1107 q 860 1050 844 1076 q 876 990 876 1023 q 862 963 876 981 q 824 930 848 945 q 766 916 800 916 m 812 743 q 653 790 726 743 q 546 921 581 836 l 633 975 q 779 869 675 869 q 867 895 832 869 q 924 972 903 920 l 1078 918 q 971 789 1043 835 q 812 743 899 743 m 1078 700 q 1222 668 1156 700 q 1329 576 1289 636 q 1369 437 1369 517 q 1337 303 1369 358 q 1252 221 1305 249 q 1136 193 1198 193 q 1014 220 1074 193 q 911 298 954 248 l 974 367 q 1069 319 1015 319 q 1139 340 1105 319 q 1193 396 1173 361 q 1213 475 1213 432 q 1191 542 1213 515 q 1128 570 1169 570 q 1049 547 1085 570 q 977 485 1014 525 q 949 453 961 469 q 879 380 909 407 q 811 335 850 354 q 725 317 772 317 q 642 330 685 317 q 650 281 650 308 q 611 153 650 207 q 508 70 572 98 q 366 41 443 41 q 170 87 264 41 q 0 221 75 134 l 62 289 q 192 199 125 229 q 319 168 260 168 q 434 205 390 168 q 478 310 478 243 q 457 370 478 343 q 395 414 436 397 q 225 372 323 389 l 184 489 l 205 545 q 394 604 334 563 q 453 697 453 644 q 374 764 453 764 q 259 740 321 764 q 147 672 197 715 l 93 697 l 46 836 q 181 881 111 865 q 309 897 250 897 q 521 833 441 897 q 602 661 602 768 q 501 468 602 542 l 505 467 q 646 435 589 435 q 727 453 693 435 q 781 494 761 471 q 840 570 802 518 q 939 666 888 632 q 1078 700 990 700 z "},"॑":{"ha":0,"x_min":17,"x_max":155,"o":"m 155 947 l 17 947 l 17 1324 l 155 1324 l 155 947 z "},"॒":{"ha":0,"x_min":14,"x_max":541,"o":"m 541 -175 l 525 -210 l 39 -210 l 14 -118 l 25 -83 l 515 -83 l 541 -175 z "},"॓":{"ha":0,"x_min":14,"x_max":358,"o":"m 267 954 l 358 1011 l 136 1335 l 14 1254 l 157 1104 l 267 954 z "},"॔":{"ha":0,"x_min":14,"x_max":358,"o":"m 14 1011 l 106 954 l 215 1104 l 358 1254 l 236 1335 l 14 1011 z "},"ॕ":{"ha":0,"x_min":31,"x_max":564,"o":"m 119 1326 q 265 1221 161 1221 q 353 1246 318 1221 q 410 1324 389 1271 l 564 1270 q 457 1140 529 1186 q 298 1095 385 1095 q 139 1141 212 1095 q 32 1272 66 1187 l 119 1326 m 557 964 l 542 929 l 56 929 l 31 1021 l 42 1055 l 532 1055 l 557 964 z "},"ॖ":{"ha":0,"x_min":18,"x_max":550,"o":"m 106 -64 q 252 -170 147 -170 q 340 -144 304 -170 q 396 -66 375 -119 l 550 -121 q 443 -250 515 -204 q 285 -296 371 -296 q 126 -249 199 -296 q 18 -118 53 -203 l 106 -64 z "},"ॗ":{"ha":0,"x_min":16,"x_max":557,"o":"m 106 -64 q 252 -170 147 -170 q 340 -144 304 -170 q 396 -66 375 -119 l 550 -121 q 443 -250 515 -204 q 285 -296 371 -296 q 126 -249 199 -296 q 18 -118 53 -203 l 106 -64 m 106 -282 q 169 -369 125 -342 q 264 -396 214 -396 q 406 -300 362 -396 l 557 -363 q 449 -482 521 -441 q 293 -524 376 -524 q 197 -508 252 -524 q 92 -449 143 -492 q 16 -332 40 -406 l 106 -282 z "},"क़":{"ha":1205,"x_min":-35,"x_max":1240,"o":"m 714 579 q 882 623 800 622 q 1073 558 1001 623 q 1145 385 1145 494 q 1098 208 1145 297 q 958 45 1051 119 l 844 135 l 844 191 q 971 302 928 253 q 1014 400 1014 351 q 990 465 1014 441 q 926 488 966 488 q 821 445 876 488 q 714 329 766 401 l 714 256 l 733 -12 l 694 -47 l 532 -21 l 549 180 q 350 129 465 129 q 205 161 272 129 q 99 252 139 193 q 58 390 58 311 q 124 575 58 513 q 317 636 191 636 q 555 554 429 636 l 555 745 l 0 745 l -35 848 l -21 890 l 1206 890 l 1240 786 l 1226 745 l 714 745 l 714 579 m 318 254 q 445 299 383 254 q 555 446 507 345 l 555 469 l 554 467 q 383 503 443 503 q 258 458 296 503 q 220 349 220 414 q 318 254 220 254 m 310 75 q 340 60 319 75 q 377 18 361 45 q 393 -41 393 -8 q 379 -69 393 -51 q 341 -102 366 -87 q 283 -117 317 -117 q 254 -101 274 -117 q 217 -60 233 -86 q 201 -1 201 -35 q 215 27 201 8 q 252 61 228 46 q 310 75 277 75 z "},"ख़":{"ha":1247,"x_min":-41,"x_max":1282,"o":"m 1111 256 l 1131 -12 l 1092 -47 l 929 -21 l 946 179 q 781 146 874 146 q 635 180 704 146 q 524 273 566 215 q 482 400 482 332 q 547 558 482 505 q 733 611 611 611 q 953 538 842 611 l 953 745 l 382 745 q 439 567 439 656 q 388 394 439 469 q 235 272 336 319 q 541 61 347 151 l 435 -75 q 203 129 313 -5 q 40 406 94 262 l 138 503 l 208 468 q 264 533 244 494 q 283 621 283 572 q 256 745 283 676 l -7 745 l -41 848 l -28 890 l 1247 890 l 1282 786 l 1264 745 l 1111 745 l 1111 256 m 749 271 q 858 304 806 271 q 953 401 909 338 l 953 431 q 789 478 857 478 q 682 451 721 478 q 643 372 643 424 q 671 298 643 325 q 749 271 699 271 m 134 96 q 164 80 143 96 q 200 39 184 65 q 216 -21 216 12 q 203 -48 216 -31 q 165 -81 189 -66 q 107 -96 140 -96 q 77 -80 98 -96 q 41 -39 57 -65 q 25 20 25 -14 q 38 48 25 29 q 76 81 52 66 q 134 96 100 96 z "},"ग़":{"ha":854,"x_min":-35,"x_max":889,"o":"m 718 256 l 737 -12 l 699 -47 l 536 -21 l 559 257 l 559 745 l 326 745 l 328 703 q 330 604 330 647 q 285 168 330 343 q 167 202 221 168 q 79 292 113 236 q 45 408 46 347 l 79 454 q 176 467 118 464 q 183 557 183 497 q 161 745 183 650 l 0 745 l -35 848 l -21 890 l 854 890 l 889 786 l 871 745 l 718 745 l 718 256 m 218 96 q 249 80 228 96 q 285 39 269 65 q 301 -21 301 12 q 287 -48 301 -31 q 249 -81 273 -66 q 192 -96 225 -96 q 162 -80 182 -96 q 126 -39 142 -65 q 110 20 110 -14 q 123 48 110 29 q 160 81 136 66 q 218 96 184 96 z "},"ज़":{"ha":1115,"x_min":-41,"x_max":1150,"o":"m 979 256 l 999 -12 l 960 -47 l 798 -21 l 821 257 l 821 468 q 581 460 690 465 q 662 381 633 428 q 690 278 690 334 q 635 149 690 196 q 486 102 581 102 q 225 213 342 102 q 40 529 109 323 l 135 557 q 263 325 188 408 q 416 241 338 241 q 492 264 465 241 q 518 329 518 288 q 480 414 518 380 q 366 465 443 447 l 334 570 l 371 608 q 821 593 578 606 l 821 745 l -7 745 l -41 848 l -28 890 l 1116 890 l 1150 786 l 1132 745 l 979 745 l 979 256 m 241 134 q 272 118 252 134 q 309 77 293 103 q 325 17 325 50 q 311 -11 325 7 q 273 -44 297 -29 q 215 -58 249 -58 q 185 -43 205 -58 q 150 -2 165 -28 q 134 57 134 24 q 147 85 134 66 q 184 119 160 104 q 241 134 208 134 z "},"ड़":{"ha":801,"x_min":-35,"x_max":868,"o":"m 332 500 q 278 485 300 500 q 257 443 257 471 q 271 397 257 418 q 304 376 285 376 q 352 383 321 376 q 415 399 383 390 q 467 411 422 400 q 539 422 511 422 q 626 396 576 422 q 710 320 675 370 q 746 208 746 271 q 683 47 746 114 q 469 -20 621 -20 q 262 25 372 -20 q 52 149 153 69 l 100 227 q 286 133 220 156 q 437 110 351 110 q 555 143 508 110 q 602 235 602 176 q 592 264 602 252 q 568 277 583 277 q 469 254 539 277 q 370 232 397 232 q 240 264 303 232 q 137 354 176 297 q 97 478 97 411 q 151 613 97 574 q 332 653 205 653 l 475 653 l 475 745 l 0 745 l -35 848 l -21 890 l 802 890 l 836 786 l 822 745 l 633 745 l 633 545 l 591 500 l 332 500 m 785 564 q 815 549 794 564 q 852 507 836 534 q 868 448 868 481 q 854 420 868 438 q 816 387 840 401 q 758 372 791 372 q 728 388 749 372 q 692 429 708 403 q 676 488 676 454 q 689 516 676 497 q 727 550 703 535 q 785 564 751 564 z "},"ढ़":{"ha":814,"x_min":-41,"x_max":856,"o":"m 396 500 q 222 353 222 500 q 272 195 222 253 q 411 138 322 138 l 414 138 q 353 210 376 172 q 318 294 330 248 q 384 392 328 355 q 522 429 440 429 q 648 404 591 429 q 736 335 704 379 q 768 239 768 292 q 685 76 768 136 q 460 16 602 16 q 276 53 371 16 q 115 172 180 90 q 49 380 49 254 q 132 583 49 511 q 368 653 215 654 l 488 653 l 488 745 l -7 745 l -41 848 l -28 890 l 821 890 l 856 786 l 842 745 l 646 745 l 646 553 l 603 498 l 396 500 m 490 253 q 517 153 490 205 q 604 268 604 183 q 591 307 604 290 q 553 323 578 323 q 510 303 529 323 q 490 253 490 282 m 472 -35 q 503 -50 481 -35 q 539 -92 524 -65 q 555 -151 555 -118 q 542 -179 555 -161 q 503 -212 528 -197 q 446 -227 479 -227 q 416 -211 436 -227 q 379 -170 395 -196 q 363 -111 363 -144 q 377 -83 363 -102 q 414 -49 390 -64 q 472 -35 439 -35 z "},"फ़":{"ha":1171,"x_min":-41,"x_max":1198,"o":"m 708 589 q 854 623 780 622 q 1045 558 974 623 q 1117 385 1117 494 q 1070 208 1117 297 q 930 45 1023 119 l 817 135 l 817 191 q 943 302 900 253 q 986 400 986 351 q 962 465 986 441 q 899 488 939 488 q 805 453 854 488 q 708 358 757 418 l 708 256 l 728 -12 l 689 -47 l 526 -21 l 547 228 q 355 184 463 185 q 227 224 290 184 q 123 329 163 264 q 83 464 83 393 l 83 745 l -7 745 l -41 848 l -28 890 l 1164 890 l 1198 786 l 1185 745 l 708 745 l 708 589 m 250 745 l 250 404 q 269 333 250 357 q 332 310 288 310 q 458 349 411 310 q 550 458 505 387 l 550 745 l 250 745 m 325 98 q 355 82 334 98 q 392 41 376 67 q 408 -19 408 14 q 394 -47 408 -28 q 356 -80 380 -65 q 298 -94 332 -94 q 269 -79 289 -94 q 232 -38 248 -64 q 216 21 216 -12 q 230 50 216 31 q 267 83 243 68 q 325 98 292 98 z "},"य़":{"ha":865,"x_min":-41,"x_max":900,"o":"m 729 256 l 749 -12 l 710 -47 l 547 -21 l 567 203 q 387 147 477 147 q 234 186 307 147 q 111 293 161 225 q 45 444 60 361 l 71 497 q 179 535 146 508 q 212 611 212 562 q 132 745 212 676 l -7 745 l -41 848 l -28 890 l 865 890 l 900 786 l 882 745 l 729 745 l 729 256 m 273 745 q 350 654 326 697 q 374 564 374 611 q 325 455 374 508 q 196 374 275 403 q 248 315 205 336 q 351 293 290 293 q 474 324 416 293 q 571 412 532 355 l 571 745 l 273 745 m 199 96 q 229 81 208 96 q 266 39 250 66 q 282 -20 282 13 q 268 -48 282 -30 q 230 -81 254 -66 q 172 -96 205 -96 q 142 -80 163 -96 q 106 -39 122 -65 q 90 20 90 -14 q 103 48 90 29 q 141 82 117 67 q 199 96 165 96 z "},"ॠ":{"ha":1247,"x_min":-45,"x_max":1331,"o":"m 1331 -187 q 1239 -262 1286 -239 q 1140 -286 1193 -286 q 1029 -260 1086 -286 q 935 -192 972 -235 q 897 -103 897 -150 q 904 -49 897 -74 q 818 19 851 -22 q 785 104 785 60 q 819 214 785 171 q 918 296 852 257 q 888 353 907 314 q 672 281 791 308 l 672 256 l 692 -12 l 653 -47 l 490 -21 l 513 233 l 193 -7 l 86 142 q 501 371 317 257 q 399 458 443 432 q 313 485 355 485 q 240 463 275 485 q 139 378 204 441 l 28 522 q 152 606 86 576 q 288 636 218 636 q 407 599 354 636 q 514 496 460 562 l 514 745 l -9 745 l -45 848 l -31 890 l 1247 890 l 1282 786 l 1268 745 l 672 745 l 672 414 q 838 492 768 441 q 823 570 829 529 l 897 632 q 1107 511 1028 614 q 1003 416 1071 460 q 1118 286 1043 347 l 1118 232 l 1112 231 q 1005 179 1042 199 q 942 132 968 160 q 917 64 917 103 q 936 25 917 40 q 985 9 954 9 q 1044 29 1017 9 q 1120 104 1072 49 l 1217 20 q 1057 -77 1143 -64 q 1034 -139 1034 -110 q 1052 -181 1034 -165 q 1101 -197 1071 -197 q 1160 -179 1133 -197 q 1234 -103 1186 -160 l 1331 -187 z "},"ॡ":{"ha":1140,"x_min":-39,"x_max":1225,"o":"m 1225 -254 q 1134 -329 1181 -306 q 1035 -353 1088 -353 q 924 -327 981 -353 q 829 -259 867 -301 q 791 -170 791 -216 q 799 -115 791 -140 q 712 -48 746 -89 q 679 37 679 -7 q 721 158 679 113 q 844 248 762 203 l 846 257 l 846 490 q 786 503 810 503 q 648 437 690 503 q 606 275 606 371 l 444 317 q 472 486 444 415 q 386 503 423 503 q 260 458 298 503 q 222 349 222 414 q 274 209 222 278 q 431 93 326 139 l 383 8 q 150 172 239 75 q 61 390 61 269 q 127 575 61 513 q 319 636 193 636 q 525 567 419 636 q 720 636 593 636 q 846 603 782 636 l 846 745 l -4 745 l -39 848 l -25 890 l 1140 890 l 1175 786 l 1157 745 l 1004 745 l 1004 256 l 1011 165 q 902 114 939 134 q 838 65 864 94 q 811 -3 811 36 q 830 -42 811 -26 q 879 -57 848 -57 q 939 -38 911 -57 q 1014 37 966 -18 l 1111 -47 q 951 -143 1037 -131 q 928 -205 928 -176 q 946 -248 928 -232 q 996 -264 965 -264 q 1054 -245 1027 -264 q 1128 -170 1080 -227 l 1225 -254 z "},"ॢ":{"ha":0,"x_min":28,"x_max":786,"o":"m 786 -346 q 718 -401 753 -382 q 652 -421 684 -421 q 564 -402 606 -421 q 496 -353 522 -383 q 471 -290 471 -323 q 488 -234 471 -256 q 539 -186 505 -212 q 572 -156 562 -168 q 582 -131 582 -144 q 567 -95 582 -109 q 524 -82 551 -82 q 447 -119 475 -82 q 419 -224 419 -155 l 294 -199 q 314 -89 294 -136 q 267 -82 283 -82 q 198 -104 222 -82 q 174 -167 174 -126 q 206 -265 174 -220 q 300 -342 239 -310 l 269 -404 q 90 -286 153 -354 q 28 -142 28 -218 q 78 -26 28 -65 q 228 14 129 14 q 359 -26 293 14 q 493 14 408 14 q 654 -33 596 14 q 713 -154 713 -79 q 696 -199 713 -180 q 647 -240 679 -218 q 605 -275 618 -261 q 591 -309 591 -289 q 601 -330 591 -322 q 627 -338 610 -338 q 673 -322 649 -338 q 714 -278 697 -306 l 786 -346 z "},"ॣ":{"ha":0,"x_min":28,"x_max":876,"o":"m 876 -493 q 809 -550 844 -530 q 742 -570 774 -570 q 654 -549 699 -570 q 581 -498 610 -529 q 551 -437 551 -467 q 558 -400 551 -418 q 495 -351 519 -380 q 471 -290 471 -322 q 488 -234 471 -256 q 539 -186 505 -212 q 572 -156 562 -168 q 582 -131 582 -144 q 567 -95 582 -109 q 524 -82 551 -82 q 447 -119 475 -82 q 419 -224 419 -155 l 294 -199 q 314 -89 294 -136 q 267 -82 283 -82 q 198 -104 222 -82 q 174 -167 174 -126 q 206 -265 174 -220 q 300 -342 239 -310 l 269 -404 q 90 -286 153 -354 q 28 -142 28 -218 q 78 -26 28 -65 q 228 14 129 14 q 359 -26 293 14 q 493 14 408 14 q 654 -33 596 14 q 713 -154 713 -79 q 696 -199 713 -180 q 647 -240 679 -218 q 605 -275 618 -261 q 591 -309 591 -289 q 601 -330 591 -322 q 627 -338 610 -338 q 673 -322 649 -338 q 714 -278 697 -306 l 786 -346 q 669 -419 728 -411 q 661 -440 661 -430 q 676 -469 661 -458 q 721 -479 690 -479 q 765 -465 742 -479 q 804 -424 787 -450 l 876 -493 z "},"।":{"ha":431,"x_min":123,"x_max":310,"o":"m 296 612 l 296 157 l 310 -111 l 271 -146 l 123 -119 l 138 158 l 138 614 l 123 882 l 163 917 l 310 890 l 296 612 z "},"॥":{"ha":707,"x_min":123,"x_max":585,"o":"m 296 612 l 296 157 l 310 -111 l 271 -146 l 123 -119 l 138 158 l 138 614 l 123 882 l 163 917 l 310 890 l 296 612 m 571 612 l 571 157 l 585 -111 l 546 -146 l 399 -119 l 413 158 l 413 614 l 399 882 l 438 917 l 585 890 l 571 612 z "},"०":{"ha":758,"x_min":61,"x_max":697,"o":"m 366 802 q 531 758 454 802 q 652 639 607 714 q 697 475 697 564 q 657 322 697 390 q 549 216 618 254 q 393 178 479 178 q 228 221 304 178 q 106 338 151 264 q 61 501 61 412 q 101 655 61 587 q 210 763 140 724 q 366 802 279 802 m 433 668 q 329 631 375 668 q 256 538 282 595 q 229 427 229 482 q 254 342 229 375 q 329 310 279 310 q 434 347 387 310 q 507 439 481 383 q 533 551 533 496 q 508 635 533 603 q 433 668 484 668 z "},"१":{"ha":631,"x_min":39,"x_max":597,"o":"m 290 300 q 457 210 376 262 q 597 100 538 158 l 452 -31 q 262 162 343 92 q 79 272 182 232 l 79 374 q 354 710 355 547 q 336 780 354 750 q 283 810 318 810 q 238 788 254 810 q 222 733 222 766 q 234 681 222 707 q 265 636 245 654 l 205 571 q 89 666 134 612 q 39 766 45 720 q 116 888 57 846 q 253 930 175 930 q 445 861 372 930 q 517 672 517 791 q 459 476 517 564 q 290 300 401 389 z "},"२":{"ha":761,"x_min":14,"x_max":726,"o":"m 418 297 q 549 199 475 241 q 726 118 623 157 l 610 -39 q 424 93 498 20 q 282 273 349 167 q 133 319 201 273 q 43 425 65 364 l 64 494 q 117 521 89 514 q 179 528 144 528 q 253 515 210 528 q 296 453 260 507 q 440 529 394 475 q 486 657 486 582 q 446 755 486 722 q 336 789 406 789 q 225 759 279 789 q 127 686 171 729 l 14 840 q 140 907 66 883 q 282 930 214 930 q 464 887 384 930 q 590 769 545 844 q 635 602 635 694 q 608 485 635 545 q 531 374 581 425 q 418 297 482 323 z "},"३":{"ha":726,"x_min":39,"x_max":653,"o":"m 473 158 q 653 64 549 113 l 553 -79 q 294 150 429 -3 q 39 296 86 171 l 57 345 q 158 375 100 375 q 197 371 175 375 q 236 363 220 367 q 317 281 273 323 q 426 315 383 288 q 469 393 469 342 q 385 482 469 452 q 256 450 338 467 l 189 619 q 452 745 452 655 q 372 798 452 798 q 136 696 282 798 l 58 869 q 307 930 193 930 q 522 876 444 930 q 600 715 600 821 q 517 546 600 607 q 614 464 579 511 q 648 358 648 416 q 601 227 648 276 q 473 158 554 178 z "},"४":{"ha":682,"x_min":39,"x_max":624,"o":"m 457 452 q 583 245 583 340 q 521 96 583 151 q 363 41 458 41 q 245 71 300 41 q 155 151 189 100 q 121 264 121 201 q 153 372 121 318 q 240 482 186 427 l 192 522 q 88 624 125 578 q 39 732 50 669 q 79 844 48 797 q 171 930 110 892 l 267 796 q 218 714 218 753 q 239 647 218 678 q 318 570 260 615 l 326 562 q 366 597 368 600 q 436 675 414 644 q 457 746 457 707 q 343 937 457 846 l 400 1008 q 567 853 510 935 q 624 690 624 772 q 602 606 624 642 q 522 511 579 571 l 457 452 m 347 163 q 400 191 380 163 q 419 256 419 218 q 374 367 419 317 q 290 221 290 277 q 306 180 290 197 q 347 163 322 163 z "},"५":{"ha":762,"x_min":62,"x_max":699,"o":"m 510 -36 q 513 41 513 16 q 471 297 513 179 q 375 288 428 288 q 139 370 215 288 q 62 599 62 452 q 89 771 62 671 q 155 935 115 871 l 311 860 q 256 700 281 799 q 231 539 231 602 q 256 445 231 477 q 322 414 281 414 q 414 439 372 414 q 392 511 408 456 l 465 585 q 692 494 600 585 q 590 350 667 406 q 699 5 680 180 l 510 -36 z "},"६":{"ha":739,"x_min":68,"x_max":694,"o":"m 566 168 q 615 91 586 126 q 693 11 644 56 l 543 -74 q 436 135 464 40 q 370 132 395 132 q 141 199 214 132 q 68 367 68 267 q 99 472 68 422 q 192 559 131 522 q 100 643 132 595 q 68 746 68 690 q 142 887 68 843 q 326 932 216 932 q 485 909 411 932 l 550 772 l 525 741 q 345 765 412 766 q 268 746 294 765 q 241 699 241 728 q 262 653 241 676 q 319 615 283 631 q 518 643 407 642 l 587 478 q 337 443 429 478 q 245 332 245 407 q 322 260 245 260 q 418 290 370 260 q 427 368 419 325 l 509 410 q 694 265 629 387 q 566 168 637 200 z "},"७":{"ha":822,"x_min":74,"x_max":758,"o":"m 326 302 q 467 351 404 302 q 567 478 530 400 q 603 637 603 555 q 586 725 603 697 q 545 753 570 753 q 510 733 524 753 q 497 686 497 713 q 509 633 497 664 q 541 581 521 603 l 481 515 q 373 600 412 560 q 314 707 334 640 q 386 833 334 791 q 515 875 437 875 q 644 831 589 875 q 728 717 699 787 q 758 570 758 647 q 707 372 758 463 q 568 229 656 282 q 372 176 479 176 q 207 219 274 176 q 106 335 139 262 q 74 493 74 407 q 100 724 74 611 q 176 932 126 836 l 330 860 q 263 669 289 785 q 237 452 237 554 q 326 302 237 303 z "},"८":{"ha":665,"x_min":64,"x_max":633,"o":"m 463 847 q 357 717 412 798 q 265 551 302 636 q 228 404 228 465 q 247 330 228 358 q 304 302 265 302 q 415 334 360 302 q 519 421 471 366 l 633 294 q 499 206 575 237 q 353 175 424 175 q 214 207 281 175 q 105 298 147 239 q 64 436 64 358 q 139 704 64 558 q 322 964 215 850 l 463 847 z "},"९":{"ha":694,"x_min":41,"x_max":644,"o":"m 418 458 q 572 322 513 387 q 644 179 631 257 q 598 59 635 114 q 498 -35 561 4 l 403 100 q 465 210 465 154 q 400 314 465 252 q 229 458 335 376 q 204 478 212 472 q 81 603 121 543 q 41 728 41 663 q 107 878 41 823 q 277 932 174 932 q 406 899 345 932 q 503 808 467 865 q 539 682 539 750 q 418 458 539 588 m 289 807 q 236 778 254 807 q 218 708 218 749 q 282 568 218 631 q 343 652 325 617 q 361 718 361 688 q 342 782 361 757 q 289 807 323 807 z "},"॰":{"ha":669,"x_min":60,"x_max":610,"o":"m 351 129 q 207 161 273 129 q 100 252 140 193 q 60 390 60 311 q 126 575 60 513 q 318 636 192 636 q 463 604 396 636 q 569 513 529 572 q 610 375 610 454 q 544 190 610 252 q 351 129 478 129 m 368 507 q 286 484 321 507 q 233 426 252 461 q 215 353 215 390 q 237 286 215 313 q 301 258 260 258 q 383 281 349 258 q 436 340 418 304 q 454 412 454 375 q 432 480 454 452 q 368 507 410 507 z "},"ॱ":{"ha":313,"x_min":69,"x_max":244,"o":"m 168 904 q 196 890 178 904 q 230 852 215 876 q 244 798 244 828 q 232 772 244 789 q 197 743 220 755 q 144 730 174 730 q 117 744 135 730 q 84 781 98 757 q 69 835 69 804 q 81 860 69 843 q 115 891 93 878 q 168 904 138 904 z "},"ॲ":{"ha":1143,"x_min":35,"x_max":1218,"o":"m 1026 256 l 1046 -12 l 1007 -47 l 844 -21 l 868 257 l 868 317 q 782 300 825 300 q 681 315 734 300 q 685 281 685 298 q 646 153 685 207 q 543 70 607 98 q 400 41 478 41 q 204 87 298 41 q 35 221 110 134 l 97 289 q 227 199 159 229 q 354 168 294 168 q 469 205 425 168 q 513 310 513 243 q 490 372 513 343 q 422 418 467 401 q 260 379 357 394 l 220 496 l 240 551 q 488 697 488 585 q 408 764 488 764 q 303 740 358 764 q 196 672 248 717 l 142 697 l 94 836 q 343 897 229 897 q 556 833 475 897 q 636 661 636 768 q 536 473 636 543 q 736 436 653 436 q 868 471 808 436 l 868 745 l 730 745 l 696 848 l 710 890 l 1162 890 l 1197 786 l 1179 745 l 1026 745 l 1026 256 m 774 1164 q 920 1059 815 1059 q 1008 1083 972 1059 q 1064 1161 1043 1108 l 1218 1107 q 1111 978 1183 1023 q 953 932 1039 932 q 794 978 867 932 q 686 1109 721 1025 l 774 1164 z "},"ॳ":{"ha":1143,"x_min":35,"x_max":1197,"o":"m 1026 256 l 1046 -12 l 1007 -47 l 844 -21 l 868 257 l 868 317 q 782 300 825 300 q 681 315 734 300 q 685 281 685 298 q 646 153 685 207 q 543 70 607 98 q 400 41 478 41 q 204 87 298 41 q 35 221 110 134 l 97 289 q 227 199 159 229 q 354 168 294 168 q 469 205 425 168 q 513 310 513 243 q 490 372 513 343 q 422 418 467 401 q 260 379 357 394 l 220 496 l 240 551 q 488 697 488 585 q 408 764 488 764 q 303 740 358 764 q 196 672 248 717 l 142 697 l 94 836 q 343 897 229 897 q 556 833 475 897 q 636 661 636 768 q 536 473 636 543 q 736 436 653 436 q 868 471 808 436 l 868 745 l 730 745 l 696 848 l 710 890 l 868 890 l 868 1096 l 909 1109 l 1026 1071 l 1026 890 l 1162 890 l 1197 786 l 1179 745 l 1026 745 l 1026 256 z "},"ॴ":{"ha":1575,"x_min":35,"x_max":1610,"o":"m 1439 256 l 1458 -12 l 1419 -47 l 1257 -21 l 1280 257 l 1280 745 l 1026 745 l 1026 256 l 1046 -12 l 1007 -47 l 844 -21 l 868 257 l 868 317 q 782 300 825 300 q 681 315 734 300 q 685 281 685 298 q 646 153 685 207 q 543 70 607 98 q 400 41 478 41 q 204 87 298 41 q 35 221 110 134 l 97 289 q 227 199 159 229 q 354 168 294 168 q 469 205 425 168 q 513 310 513 243 q 490 372 513 343 q 422 418 467 401 q 260 379 357 394 l 220 496 l 240 551 q 488 697 488 585 q 408 764 488 764 q 303 740 358 764 q 196 672 248 717 l 142 697 l 94 836 q 343 897 229 897 q 556 833 475 897 q 636 661 636 768 q 536 473 636 543 q 736 436 653 436 q 868 471 808 436 l 868 745 l 730 745 l 696 848 l 710 890 l 1280 890 l 1280 1096 l 1322 1109 l 1439 1071 l 1439 890 l 1575 890 l 1610 786 l 1592 745 l 1439 745 l 1439 256 z "},"ॵ":{"ha":1575,"x_min":35,"x_max":1610,"o":"m 1439 256 l 1458 -12 l 1419 -47 l 1257 -21 l 1280 257 l 1280 745 l 1026 745 l 1026 256 l 1046 -12 l 1007 -47 l 844 -21 l 868 257 l 868 317 q 782 300 823 300 q 681 315 734 300 q 685 281 685 298 q 646 153 685 207 q 543 70 607 98 q 400 41 478 41 q 204 87 298 41 q 35 221 110 134 l 97 289 q 227 199 159 229 q 354 168 294 168 q 469 205 425 168 q 513 310 513 243 q 490 372 513 343 q 422 418 467 401 q 260 379 357 394 l 220 496 l 240 551 q 488 697 488 585 q 408 764 488 764 q 303 740 358 764 q 196 672 248 717 l 142 697 l 94 836 q 343 897 229 897 q 556 833 475 897 q 636 661 636 768 q 536 473 636 543 q 736 436 653 436 q 868 471 808 436 l 868 745 l 730 745 l 696 848 l 710 890 l 1307 890 q 1265 929 1290 917 q 1196 947 1240 942 l 964 971 q 839 1022 887 983 q 741 1122 790 1060 l 722 1145 l 772 1197 q 867 1125 815 1145 q 983 1099 920 1105 q 1154 1074 1026 1095 q 1333 987 1279 1054 q 1268 1068 1318 1042 l 1084 1164 q 979 1259 1013 1201 q 931 1365 946 1317 q 911 1426 916 1414 l 979 1455 q 1022 1371 998 1402 q 1067 1325 1047 1339 q 1135 1282 1088 1311 l 1318 1177 q 1394 1095 1377 1138 q 1414 981 1411 1051 q 1410 890 1414 941 l 1575 890 l 1610 786 l 1592 745 l 1439 745 l 1439 256 z "},"ॶ":{"ha":1143,"x_min":35,"x_max":1218,"o":"m 1026 256 l 1046 -12 l 1007 -47 l 844 -21 l 868 257 l 868 317 q 782 300 825 300 q 681 315 734 300 q 685 281 685 298 q 646 153 685 207 q 543 70 607 98 q 400 41 478 41 q 204 87 298 41 q 35 221 110 134 l 97 289 q 227 199 159 229 q 354 168 294 168 q 469 205 425 168 q 513 310 513 243 q 490 372 513 343 q 422 418 467 401 q 260 379 357 394 l 220 496 l 240 551 q 488 697 488 585 q 408 764 488 764 q 303 740 358 764 q 196 672 248 717 l 142 697 l 94 836 q 343 897 229 897 q 556 833 475 897 q 636 661 636 768 q 536 473 636 543 q 736 436 653 436 q 868 471 808 436 l 868 745 l 730 745 l 696 848 l 710 890 l 1162 890 l 1197 786 l 1179 745 l 1026 745 l 1026 256 m 774 -64 q 920 -170 815 -170 q 1008 -144 972 -170 q 1064 -66 1043 -119 l 1218 -121 q 1111 -250 1183 -204 q 953 -296 1039 -296 q 794 -249 867 -296 q 686 -118 721 -203 l 774 -64 z "},"ॷ":{"ha":1143,"x_min":35,"x_max":1232,"o":"m 1026 256 l 1046 -12 l 1007 -47 l 844 -21 l 868 257 l 868 317 q 782 300 825 300 q 681 315 734 300 q 685 281 685 298 q 646 153 685 207 q 543 70 607 98 q 400 41 478 41 q 204 87 298 41 q 35 221 110 134 l 97 289 q 227 199 159 229 q 354 168 294 168 q 469 205 425 168 q 513 310 513 243 q 490 372 513 343 q 422 418 467 401 q 260 379 357 394 l 220 496 l 240 551 q 488 697 488 585 q 408 764 488 764 q 303 740 358 764 q 196 672 248 717 l 142 697 l 94 836 q 343 897 229 897 q 556 833 475 897 q 636 661 636 768 q 536 473 636 543 q 736 436 653 436 q 868 471 808 436 l 868 745 l 730 745 l 696 848 l 710 890 l 1162 890 l 1197 786 l 1179 745 l 1026 745 l 1026 256 m 781 -64 q 926 -170 822 -170 q 1015 -144 979 -170 q 1071 -66 1050 -119 l 1225 -121 q 1118 -250 1190 -204 q 960 -296 1046 -296 q 801 -249 873 -296 q 693 -118 728 -203 l 781 -64 m 781 -282 q 844 -369 800 -342 q 939 -396 888 -396 q 1080 -300 1037 -396 l 1232 -363 q 1123 -482 1196 -441 q 968 -524 1051 -524 q 872 -508 926 -524 q 766 -449 818 -492 q 690 -332 715 -406 l 781 -282 z "},"ॹ":{"ha":1115,"x_min":-41,"x_max":1150,"o":"m 979 256 l 999 -12 l 960 -47 l 798 -21 l 821 257 l 821 468 q 581 460 690 465 q 662 381 633 428 q 690 278 690 334 q 635 149 690 196 q 486 102 581 102 q 225 213 342 102 q 40 529 109 323 l 135 557 q 263 325 188 408 q 416 241 338 241 q 492 264 465 241 q 518 329 518 288 q 480 414 518 380 q 366 465 443 447 l 334 570 l 371 608 q 821 593 578 606 l 821 745 l -7 745 l -41 848 l -28 890 l 1116 890 l 1150 786 l 1132 745 l 979 745 l 979 256 m 428 -47 q 416 -72 428 -56 q 382 -102 404 -89 q 330 -115 359 -115 q 303 -101 321 -115 q 272 -64 286 -87 q 258 -9 258 -40 q 270 16 258 -1 q 302 46 281 33 q 354 60 323 60 q 382 46 363 60 q 414 7 400 32 q 428 -47 428 -17 m 562 60 q 590 46 572 60 q 622 7 608 32 q 636 -47 636 -17 q 624 -72 636 -56 q 590 -102 612 -89 q 539 -115 568 -115 q 512 -101 530 -115 q 480 -64 494 -87 q 467 -9 467 -40 q 478 16 467 -1 q 510 46 489 33 q 562 60 532 60 m 461 -123 q 489 -137 471 -123 q 521 -176 507 -151 q 534 -231 534 -200 q 523 -255 534 -239 q 489 -285 511 -272 q 437 -298 467 -298 q 411 -284 428 -298 q 379 -247 393 -271 q 366 -193 366 -224 q 376 -168 366 -185 q 409 -137 387 -150 q 461 -123 431 -123 z "},"ॺ":{"ha":865,"x_min":-41,"x_max":900,"o":"m 729 256 l 749 -12 l 710 -47 l 547 -21 l 567 203 q 387 147 477 147 q 234 186 307 147 q 111 293 161 225 q 45 444 60 361 l 71 497 q 179 535 146 508 q 212 611 212 562 q 132 745 212 676 l -7 745 l -41 848 l -28 890 l 865 890 l 900 786 l 882 745 l 729 745 l 729 256 m 297 745 l 571 456 l 571 745 l 297 745 m 351 293 q 525 361 448 293 l 368 525 q 307 438 353 479 q 196 374 261 397 q 248 315 205 336 q 351 293 290 293 z "},"ॻ":{"ha":868,"x_min":-35,"x_max":930,"o":"m 760 256 l 779 -12 l 766 -24 l 768 -47 l 750 -89 l 114 -89 l 79 16 l 93 57 l 585 57 l 602 257 l 602 745 l 326 745 l 328 703 q 330 604 330 647 q 285 168 330 343 q 167 202 221 168 q 79 292 113 236 q 45 408 46 347 l 79 454 q 176 467 118 464 q 183 557 183 497 q 161 745 183 650 l 0 745 l -35 848 l -21 890 l 896 890 l 930 786 l 913 745 l 760 745 l 760 256 z "},"ॼ":{"ha":1087,"x_min":-41,"x_max":1150,"o":"m 1132 745 l 979 745 l 979 256 l 999 -12 l 997 -14 l 1004 -89 l 986 -131 l 114 -131 l 79 -26 l 93 16 l 800 16 l 821 257 l 821 468 q 581 460 690 465 q 662 381 633 428 q 690 278 690 334 q 635 149 690 196 q 486 102 581 102 q 225 213 342 102 q 40 529 109 323 l 135 557 q 263 325 188 408 q 416 241 338 241 q 492 264 465 241 q 518 329 518 288 q 480 414 518 380 q 366 465 443 447 l 334 570 l 371 608 q 821 593 578 606 l 821 745 l -7 745 l -41 848 l -28 890 l 1116 890 l 1150 786 l 1132 745 z "},"ॽ":{"ha":634,"x_min":5,"x_max":579,"o":"m 579 607 q 497 410 579 501 q 297 268 415 318 l 297 256 l 317 -12 l 278 -47 l 115 -21 l 139 257 l 139 382 l 187 431 q 322 471 265 439 q 409 547 379 503 q 439 635 439 591 q 403 727 439 696 q 311 758 367 758 q 215 732 260 758 q 117 653 171 705 l 61 675 l 5 811 q 256 888 122 888 q 431 847 357 888 q 542 741 504 806 q 579 607 579 676 z "},"ॾ":{"ha":801,"x_min":-35,"x_max":836,"o":"m 822 745 l 633 745 l 633 545 l 591 500 l 332 500 q 278 485 300 500 q 257 443 257 471 q 271 397 257 418 q 304 376 285 376 q 352 383 321 376 q 415 399 383 390 q 467 411 422 400 q 539 422 511 422 q 626 396 576 422 q 710 320 675 370 q 746 208 746 271 q 683 47 746 114 q 469 -20 621 -20 q 262 25 372 -20 q 52 149 153 69 l 100 227 q 286 133 220 156 q 437 110 351 110 q 555 143 508 110 q 602 235 602 176 q 592 264 602 252 q 568 277 583 277 q 469 254 539 277 q 370 232 397 232 q 240 264 303 232 q 137 354 176 297 q 97 478 97 411 q 151 613 97 574 q 332 653 205 653 l 475 653 l 475 745 l 0 745 l -35 848 l -21 890 l 802 890 l 836 786 l 822 745 m 768 -186 l 750 -228 l 114 -228 l 79 -123 l 93 -82 l 737 -82 l 768 -186 z "},"ॿ":{"ha":823,"x_min":-41,"x_max":873,"o":"m 856 745 l 703 745 l 703 256 l 728 -86 l 710 -127 l 100 -127 l 65 -24 l 79 18 l 524 18 l 536 163 q 371 129 465 130 q 212 163 283 129 q 99 257 140 197 q 58 390 58 317 q 130 573 58 511 q 338 636 201 636 q 545 578 439 636 l 545 745 l -7 745 l -41 848 l -28 890 l 839 890 l 873 786 l 856 745 m 404 503 q 345 497 368 503 l 507 339 q 545 385 534 368 l 545 475 q 404 503 461 503 m 252 449 q 220 363 220 414 q 252 283 220 311 q 339 254 285 254 q 431 278 387 254 l 252 449 z "},"‌":{"ha":0,"x_min":0,"x_max":158,"o":"m 0 -339 l 0 1050 l 158 1050 l 158 -339 l 0 -339 z "},"‍":{"ha":0,"x_min":0,"x_max":354,"o":"m 158 933 l 158 -339 l 0 -339 l 0 1050 l 354 1050 l 354 933 l 158 933 z "},"–":{"ha":700,"x_min":0,"x_max":700,"o":"m 693 286 l 3 286 l 0 418 l 700 418 l 693 286 z "},"—":{"ha":1397,"x_min":0,"x_max":1397,"o":"m 1390 286 l 3 286 l 0 418 l 1397 418 l 1390 286 z "},"‘":{"ha":317,"x_min":50,"x_max":271,"o":"m 172 929 q 205 989 180 966 q 264 1029 229 1013 l 252 1069 q 143 1031 189 1064 q 74 950 97 999 q 50 851 50 901 q 79 753 50 793 q 161 714 109 714 q 240 749 209 714 q 271 831 271 783 q 243 901 271 873 q 172 929 215 929 z "},"’":{"ha":317,"x_min":47,"x_max":268,"o":"m 146 854 q 113 794 138 817 q 54 754 89 771 l 66 714 q 175 752 129 720 q 244 833 221 785 q 268 932 268 882 q 239 1030 268 990 q 157 1069 210 1069 q 78 1035 109 1069 q 47 953 47 1000 q 75 882 47 910 q 146 854 103 854 z "},"‚":{"ha":304,"x_min":38,"x_max":258,"o":"m 136 -45 q 104 -106 128 -83 q 45 -146 79 -129 l 57 -186 q 165 -148 119 -180 q 235 -67 212 -115 q 258 32 258 -18 q 229 130 258 90 q 147 170 200 170 q 69 135 100 170 q 38 53 38 100 q 66 -18 38 10 q 136 -45 94 -45 z "},"“":{"ha":595,"x_min":50,"x_max":549,"o":"m 172 929 q 205 989 180 966 q 264 1029 229 1013 l 252 1069 q 143 1031 189 1064 q 74 950 97 999 q 50 851 50 901 q 79 753 50 793 q 161 714 109 714 q 240 749 209 714 q 271 831 271 783 q 243 901 271 873 q 172 929 215 929 m 450 929 q 483 989 458 966 q 542 1029 507 1013 l 530 1069 q 421 1031 467 1064 q 352 950 375 999 q 328 851 328 901 q 357 753 328 793 q 439 714 387 714 q 518 749 487 714 q 549 831 549 783 q 521 901 549 873 q 450 929 493 929 z "},"”":{"ha":597,"x_min":47,"x_max":547,"o":"m 146 848 q 113 787 138 810 q 54 747 89 764 l 66 707 q 175 745 129 713 q 244 826 221 778 q 268 925 268 875 q 239 1023 268 983 q 157 1063 210 1063 q 78 1028 109 1063 q 47 946 47 994 q 75 876 47 903 q 146 848 103 848 m 425 848 q 393 787 417 810 q 334 747 368 764 l 346 707 q 454 745 408 713 q 524 826 500 778 q 547 925 547 875 q 518 1023 547 983 q 436 1063 489 1063 q 358 1028 389 1063 q 327 946 327 994 q 355 876 327 903 q 425 848 382 848 z "},"„":{"ha":597,"x_min":47,"x_max":547,"o":"m 146 -45 q 113 -106 138 -83 q 54 -146 89 -129 l 66 -186 q 175 -148 129 -180 q 244 -67 221 -115 q 268 32 268 -18 q 239 130 268 90 q 157 170 210 170 q 78 135 109 170 q 47 53 47 100 q 75 -18 47 10 q 146 -45 103 -45 m 425 -45 q 393 -106 417 -83 q 334 -146 368 -129 l 346 -186 q 454 -148 408 -180 q 524 -67 500 -115 q 547 32 547 -18 q 518 130 547 90 q 436 170 489 170 q 358 135 389 170 q 327 53 327 100 q 355 -18 327 10 q 425 -45 382 -45 z "},"†":{"ha":739,"x_min":49,"x_max":690,"o":"m 314 714 q 295 863 314 732 q 268 1042 275 994 l 277 1050 l 440 1064 l 471 1039 q 445 878 464 999 q 425 714 425 757 l 314 714 m 432 707 q 545 719 454 708 q 668 733 636 729 l 676 725 l 690 600 l 665 574 q 564 584 642 576 q 432 595 486 591 l 432 707 m 307 595 q 194 583 285 593 q 71 568 103 572 l 62 576 l 49 701 l 74 728 q 175 718 98 725 q 307 707 253 710 l 307 595 m 425 587 q 445 280 425 571 q 471 -117 464 -11 l 463 -125 l 298 -139 l 268 -114 q 294 265 275 -14 q 314 587 314 545 l 425 587 z "},"‡":{"ha":739,"x_min":49,"x_max":690,"o":"m 314 714 q 295 863 314 732 q 268 1042 275 994 l 277 1050 l 440 1064 l 471 1039 q 445 878 464 999 q 425 714 425 757 l 314 714 m 432 707 q 545 719 454 708 q 668 733 636 729 l 676 725 l 690 600 l 665 574 q 564 584 642 576 q 432 595 486 591 l 432 707 m 307 595 q 194 583 285 593 q 71 568 103 572 l 62 576 l 49 701 l 74 728 q 175 718 98 725 q 307 707 253 710 l 307 595 m 425 587 l 314 587 l 314 435 l 425 435 l 425 587 m 432 432 q 528 444 454 433 q 627 458 602 454 l 635 450 l 648 325 l 624 298 q 546 309 606 301 q 432 319 486 317 l 432 432 m 307 319 q 211 308 285 318 q 113 293 138 297 l 104 301 l 90 427 l 115 453 q 193 443 134 450 q 307 432 253 435 l 307 319 m 425 310 q 445 119 425 293 q 471 -117 464 -54 l 463 -125 l 298 -139 l 268 -114 q 294 105 275 -57 q 314 310 314 267 l 425 310 z "},"•":{"ha":319,"x_min":28,"x_max":292,"o":"m 160 493 q 62 454 97 493 q 28 351 28 415 q 62 249 28 288 q 160 211 97 211 q 257 249 222 211 q 292 351 292 288 q 256 455 292 418 q 160 493 221 493 z "},"…":{"ha":879,"x_min":56,"x_max":817,"o":"m 161 196 q 83 165 111 196 q 56 82 56 134 q 83 0 56 31 q 161 -31 111 -31 q 239 0 212 -31 q 267 82 267 31 q 238 165 267 135 q 161 196 210 196 m 436 196 q 358 165 386 196 q 330 82 330 134 q 358 0 330 31 q 436 -31 386 -31 q 514 0 486 -31 q 542 82 542 31 q 513 165 542 135 q 436 196 485 196 m 711 196 q 633 165 661 196 q 606 82 606 134 q 633 0 606 31 q 711 -31 661 -31 q 789 0 762 -31 q 817 82 817 31 q 788 165 817 135 q 711 196 760 196 z "},"‰":{"ha":1822,"x_min":25,"x_max":1788,"o":"m 232 -5 l 822 1000 l 920 937 l 330 -68 l 232 -5 m 25 717 q 85 520 25 597 q 267 443 144 443 q 449 520 389 443 q 509 717 509 597 q 449 912 509 836 q 267 989 389 989 q 85 912 144 989 q 25 717 25 836 m 354 717 q 335 588 354 640 q 267 536 315 536 q 180 717 180 536 q 267 897 180 897 q 335 845 315 897 q 354 717 354 793 m 707 269 q 769 68 707 147 q 960 -11 831 -11 q 1151 68 1088 -11 q 1213 269 1213 147 q 1151 472 1213 393 q 960 551 1089 551 q 769 472 831 551 q 707 269 707 393 m 1282 269 q 1344 68 1282 147 q 1535 -11 1406 -11 q 1726 68 1664 -11 q 1788 269 1788 147 q 1726 472 1788 393 q 1535 551 1664 551 q 1344 472 1406 551 q 1282 269 1282 393 m 1051 269 q 960 85 1051 85 q 868 269 868 85 q 960 456 868 455 q 1051 269 1051 456 m 1626 269 q 1535 85 1626 85 q 1443 269 1443 85 q 1535 456 1443 455 q 1626 269 1626 456 z "},"‹":{"ha":374,"x_min":28,"x_max":334,"o":"m 334 77 l 240 14 l 28 336 l 240 659 l 334 596 l 187 336 l 334 77 z "},"›":{"ha":374,"x_min":41,"x_max":347,"o":"m 135 14 l 41 77 l 187 336 l 41 596 l 135 659 l 347 336 l 135 14 z "},"₨":{"ha":1447,"x_min":37,"x_max":1368,"o":"m 475 993 q 711 915 623 993 q 800 700 800 836 q 755 547 800 614 q 632 436 710 479 l 746 285 q 905 144 815 192 q 1101 96 996 96 q 1164 112 1139 96 q 1190 155 1190 127 q 1164 201 1190 184 q 1076 243 1137 218 q 965 296 1008 271 q 888 369 921 321 q 856 492 856 416 q 925 647 856 595 q 1116 699 994 699 q 1337 665 1232 699 l 1321 446 l 1227 453 l 1227 513 q 1221 535 1227 518 q 1208 566 1215 553 q 1111 587 1158 588 q 1043 572 1065 587 q 1021 534 1021 557 q 1048 491 1021 508 q 1136 452 1075 475 q 1253 399 1205 425 q 1334 326 1300 374 q 1368 203 1368 278 q 1294 42 1368 98 q 1096 -14 1221 -14 q 768 47 914 -14 q 551 215 623 109 l 439 385 l 418 385 q 357 389 394 385 l 357 268 q 370 107 357 194 l 460 98 l 453 -7 q 358 -3 433 -5 q 183 0 282 0 q 100 -3 143 0 q 45 -7 57 -5 l 37 90 l 129 107 q 136 160 130 115 q 142 227 142 205 l 142 711 q 129 865 142 787 l 39 882 l 46 986 q 102 982 58 985 q 189 979 146 979 q 266 982 218 979 q 336 986 314 985 q 475 993 422 993 m 366 878 q 357 753 357 794 l 357 501 l 390 501 q 532 550 487 501 q 576 697 576 599 q 532 834 576 789 q 395 879 488 879 l 366 878 z "},"₹":{"ha":700,"x_min":22,"x_max":677,"o":"m 677 590 l 660 549 l 533 549 q 469 392 529 465 q 300 271 410 318 q 604 61 415 147 l 498 -75 q 267 129 376 -5 q 104 406 158 262 l 201 503 l 279 465 q 359 549 331 494 l 57 549 l 22 653 l 36 694 l 351 694 q 292 771 333 729 l 57 771 l 22 875 l 36 917 l 643 917 l 677 812 l 660 771 l 432 771 q 496 694 475 732 l 643 694 l 677 590 z "},"™":{"ha":765,"x_min":4,"x_max":722,"o":"m 253 924 l 249 930 q 216 935 241 935 l 197 935 l 193 905 l 193 751 q 197 696 193 713 l 221 693 l 218 652 q 189 653 213 652 q 125 654 165 654 q 92 653 105 654 q 75 652 79 652 l 74 690 l 100 696 q 101 710 100 699 q 104 737 103 722 l 104 873 q 100 935 104 909 l 83 935 q 46 930 61 935 l 46 924 l 41 890 l 4 892 l 8 974 l 17 983 q 40 981 24 983 q 69 979 57 979 l 227 979 q 255 981 239 979 q 278 983 271 983 l 288 974 l 292 892 l 256 890 l 253 924 m 701 981 l 703 943 l 676 937 l 676 916 l 690 715 l 696 693 l 722 690 l 721 652 q 694 653 715 652 q 635 654 672 654 q 602 653 615 654 q 585 652 589 652 l 583 689 l 611 693 q 612 729 612 705 l 608 875 l 533 654 l 476 654 l 407 875 l 397 729 l 399 693 l 427 690 l 425 652 q 403 653 421 652 q 349 654 385 654 q 319 653 330 654 q 302 652 307 652 l 301 689 l 329 693 l 335 715 l 347 916 l 345 937 l 318 943 l 319 981 l 361 977 l 447 977 l 457 970 l 473 900 l 514 770 l 558 909 l 574 970 l 582 979 l 646 979 l 701 981 z "},"◌":{"ha":895,"x_min":43,"x_max":852,"o":"m 447 812 q 486 797 471 812 q 501 758 501 782 q 485 721 501 737 q 447 705 469 705 q 409 721 425 705 q 393 758 393 737 q 409 797 393 782 q 447 812 425 812 m 272 766 q 311 751 296 766 q 326 713 326 736 q 311 674 326 690 q 272 659 296 659 q 235 673 250 659 q 218 713 218 690 q 234 751 218 736 q 272 766 250 766 m 623 766 q 661 751 646 766 q 676 713 676 736 q 661 674 676 690 q 623 659 646 659 q 585 673 600 659 q 568 713 568 690 q 584 751 568 736 q 623 766 600 766 m 144 639 q 183 624 168 639 q 199 585 199 608 q 183 546 199 562 q 144 530 168 530 q 106 546 121 530 q 90 585 90 562 q 106 624 90 608 q 144 639 122 639 m 751 639 q 790 624 775 639 q 806 585 806 608 q 790 546 806 562 q 751 530 775 530 q 714 546 729 530 q 697 585 697 563 q 713 623 697 607 q 751 639 729 639 m 97 463 q 136 447 121 463 q 151 408 151 432 q 136 370 151 386 q 97 354 121 354 q 58 371 73 354 q 43 408 43 387 q 59 447 43 432 q 97 463 75 463 m 799 463 q 837 447 822 463 q 852 408 852 432 q 837 370 852 386 q 799 354 822 354 q 760 371 775 354 q 745 408 744 387 q 761 447 745 432 q 799 463 777 463 m 144 288 q 183 272 168 288 q 199 233 199 257 q 183 195 199 211 q 144 179 168 179 q 106 195 121 179 q 90 233 90 213 q 106 272 90 257 q 144 288 122 288 m 751 288 q 790 272 775 288 q 806 233 806 257 q 790 195 806 211 q 751 179 775 179 q 714 195 729 179 q 697 233 697 214 q 713 272 697 256 q 751 288 729 288 m 272 160 q 311 144 296 160 q 326 106 326 129 q 310 66 326 82 q 272 50 294 50 q 235 68 250 50 q 218 106 218 83 q 234 145 218 130 q 272 160 250 160 m 623 160 q 661 144 646 160 q 676 106 676 129 q 660 66 676 82 q 623 50 644 50 q 585 68 600 50 q 568 106 568 83 q 584 145 568 130 q 623 160 600 160 m 447 111 q 486 96 471 111 q 501 57 501 81 q 486 19 501 35 q 447 3 471 3 q 408 20 423 3 q 393 57 393 35 q 409 96 393 81 q 447 111 425 111 z "},"Ꞌ":{"ha":833,"x_min":0,"x_max":0,"o":""},"ꞌ":{"ha":833,"x_min":0,"x_max":237,"o":"m 237 8 l 201 -28 l 0 0 l 24 285 l 24 746 l 218 746 l 218 283 l 237 8 z "},"꣠":{"ha":344,"x_min":7,"x_max":338,"o":"m 158 1337 q 244 1312 203 1337 q 312 1246 286 1287 q 338 1161 338 1206 q 293 1056 338 1099 q 186 1013 249 1013 q 100 1038 141 1013 q 33 1104 58 1063 q 7 1189 7 1145 q 51 1294 7 1251 q 158 1337 96 1337 m 208 1246 q 143 1209 170 1246 q 117 1133 117 1173 q 140 1104 117 1104 q 205 1142 179 1104 q 232 1217 232 1181 q 208 1246 232 1246 z "},"꣡":{"ha":312,"x_min":7,"x_max":306,"o":"m 125 1402 q 231 1368 193 1402 q 268 1267 268 1333 q 240 1164 268 1208 q 158 1075 212 1120 q 234 1041 195 1061 q 281 1017 272 1021 l 306 1003 l 211 911 l 140 972 q 69 1031 93 1014 q 21 1053 45 1048 l 21 1128 q 115 1197 83 1166 q 154 1251 146 1227 q 163 1301 163 1274 q 143 1325 163 1325 q 128 1319 134 1325 q 122 1303 122 1312 q 142 1261 122 1280 l 103 1218 q 32 1266 56 1243 q 7 1314 8 1289 q 125 1402 35 1402 z "},"꣢":{"ha":406,"x_min":7,"x_max":399,"o":"m 136 1402 q 277 1355 221 1402 q 334 1232 334 1307 q 308 1144 334 1185 q 232 1079 282 1103 q 399 1004 278 1044 l 317 901 q 215 968 249 936 q 143 1064 182 1000 q 70 1092 100 1064 q 28 1158 39 1120 l 40 1202 q 66 1217 52 1214 q 102 1221 79 1221 q 134 1215 113 1221 q 151 1182 139 1210 q 215 1207 193 1186 q 237 1254 237 1227 q 219 1294 237 1278 q 171 1310 201 1310 q 123 1295 147 1310 q 81 1257 100 1280 l 7 1358 q 72 1394 36 1385 q 136 1402 109 1402 z "},"꣣":{"ha":358,"x_min":7,"x_max":351,"o":"m 157 1402 q 282 1374 240 1402 q 325 1283 325 1346 q 292 1198 325 1234 q 351 1108 351 1162 q 327 1037 351 1061 q 256 1004 302 1013 q 335 970 282 992 l 269 880 q 205 925 236 897 q 135 1000 174 953 q 48 1030 83 1008 q 7 1092 12 1053 l 17 1112 q 65 1131 39 1131 q 118 1124 83 1131 q 150 1084 123 1116 q 206 1097 182 1086 q 231 1131 231 1108 q 225 1145 231 1140 q 204 1156 220 1150 q 143 1145 184 1150 l 98 1258 q 200 1275 165 1261 q 235 1301 235 1289 q 227 1313 235 1311 q 213 1315 220 1315 q 204 1315 205 1315 q 64 1250 147 1315 l 11 1369 q 90 1394 51 1386 q 157 1402 129 1402 z "},"꣤":{"ha":334,"x_min":7,"x_max":321,"o":"m 204 1442 q 290 1361 258 1400 q 321 1283 321 1322 q 308 1237 321 1259 q 272 1190 296 1215 l 245 1168 q 310 1063 309 1111 q 274 977 310 1008 q 184 945 239 945 q 90 981 130 945 q 49 1071 49 1017 q 104 1186 49 1124 l 89 1198 q 61 1221 83 1202 q 25 1260 39 1239 q 7 1307 11 1282 q 30 1363 14 1343 q 82 1402 46 1383 l 143 1317 q 126 1289 126 1305 q 160 1240 126 1265 l 180 1255 q 209 1281 200 1269 q 218 1305 218 1293 q 165 1393 218 1354 l 204 1442 m 192 1131 q 164 1093 174 1116 q 154 1050 154 1071 q 160 1030 154 1038 q 178 1022 167 1022 q 198 1037 190 1022 q 205 1071 205 1053 q 192 1131 205 1112 z "},"꣥":{"ha":361,"x_min":7,"x_max":354,"o":"m 164 1356 q 133 1275 147 1326 q 119 1194 119 1223 q 155 1147 119 1147 q 182 1152 174 1147 l 178 1169 l 229 1223 q 293 1212 267 1223 q 354 1169 319 1200 q 297 1083 346 1115 q 349 930 334 996 l 231 904 q 229 951 231 935 q 215 1064 222 1031 q 176 1060 201 1060 q 52 1103 97 1060 q 7 1238 7 1146 q 22 1324 7 1272 q 61 1406 37 1377 l 164 1356 z "},"꣦":{"ha":374,"x_min":7,"x_max":368,"o":"m 157 1404 q 241 1396 210 1404 l 292 1304 l 273 1279 q 153 1293 224 1293 q 131 1288 139 1293 q 123 1275 123 1282 q 170 1249 123 1255 q 273 1258 216 1261 l 322 1149 q 269 1152 297 1152 q 174 1137 214 1152 q 134 1086 134 1122 q 154 1063 134 1063 q 185 1071 168 1063 q 211 1089 203 1079 l 218 1108 l 277 1133 q 330 1110 310 1126 q 368 1063 350 1093 q 301 1006 332 1021 q 367 936 319 974 l 269 885 q 214 982 224 947 q 194 983 203 983 q 178 982 184 982 q 40 1018 73 982 q 7 1111 7 1054 q 26 1166 7 1139 q 79 1215 46 1194 q 7 1312 7 1251 q 51 1385 7 1367 q 157 1404 94 1404 z "},"꣧":{"ha":397,"x_min":7,"x_max":390,"o":"m 172 1356 q 130 1263 146 1320 q 114 1165 114 1207 q 176 1095 114 1095 q 258 1146 224 1095 q 292 1263 292 1198 q 285 1288 292 1280 q 268 1296 278 1296 q 252 1289 260 1296 q 244 1270 244 1282 q 273 1217 244 1236 l 236 1183 q 210 1206 224 1196 q 176 1236 189 1223 q 154 1272 164 1250 q 195 1346 168 1322 q 264 1369 222 1369 q 356 1319 322 1369 q 390 1200 390 1268 q 336 1063 390 1115 q 199 1011 282 1011 q 56 1055 106 1011 q 7 1177 7 1099 q 71 1402 7 1292 l 172 1356 z "},"꣨":{"ha":322,"x_min":7,"x_max":315,"o":"m 233 1344 q 157 1244 195 1305 q 119 1140 119 1182 q 129 1105 119 1116 q 153 1093 138 1093 q 196 1112 172 1093 q 239 1162 220 1131 l 315 1076 q 242 1025 283 1040 q 160 1010 200 1010 q 89 1028 124 1010 q 30 1080 53 1046 q 7 1157 7 1114 q 45 1292 7 1221 q 140 1422 83 1364 l 233 1344 z "},"꣩":{"ha":333,"x_min":3,"x_max":325,"o":"m 134 1404 q 213 1385 176 1404 q 270 1335 249 1367 q 292 1271 292 1304 q 278 1214 292 1243 q 237 1146 264 1185 q 302 1070 279 1105 q 325 1004 325 1035 q 241 905 325 949 l 180 991 q 204 1034 204 1011 q 178 1081 204 1059 q 110 1131 153 1104 q 85 1147 94 1139 q 22 1214 42 1178 q 3 1286 3 1250 q 40 1372 3 1339 q 134 1404 77 1404 m 147 1322 q 129 1310 135 1322 q 123 1276 123 1297 q 129 1241 123 1258 q 143 1217 135 1223 q 170 1292 170 1261 q 163 1314 170 1305 q 147 1322 157 1322 z "},"꣪":{"ha":663,"x_min":7,"x_max":657,"o":"m 171 1413 q 295 1375 252 1413 q 339 1272 339 1337 q 327 1217 339 1243 q 290 1171 314 1190 q 379 1158 345 1158 q 463 1179 420 1158 l 463 1308 l 393 1308 l 370 1371 l 376 1406 l 633 1406 l 657 1343 l 646 1308 l 566 1308 l 566 1071 l 579 928 l 553 903 l 444 918 l 461 1076 q 403 1064 432 1064 q 366 1067 393 1064 q 311 978 360 1011 q 205 945 262 945 q 100 965 149 945 q 7 1031 52 985 l 41 1075 q 167 1025 106 1025 q 228 1045 203 1025 q 253 1100 253 1065 q 225 1136 253 1125 q 125 1116 191 1122 l 104 1187 l 119 1231 q 217 1253 186 1234 q 249 1297 249 1272 q 240 1320 249 1314 q 216 1325 232 1325 q 150 1309 183 1325 q 90 1260 117 1292 l 52 1280 l 25 1375 q 106 1402 64 1391 q 171 1413 149 1413 z "},"꣫":{"ha":435,"x_min":7,"x_max":428,"o":"m 416 1308 l 322 1308 q 342 1254 342 1282 q 307 1178 342 1215 q 368 1129 345 1156 q 392 1067 392 1103 q 347 975 392 1004 q 228 945 301 945 q 127 965 174 945 q 36 1031 81 985 l 71 1075 q 196 1025 136 1025 q 254 1045 229 1025 q 278 1100 278 1065 q 248 1141 278 1133 q 126 1111 193 1120 l 106 1182 l 121 1225 q 212 1246 175 1227 q 249 1292 249 1265 q 243 1308 249 1303 l 32 1308 l 7 1371 l 14 1406 l 404 1406 l 428 1343 l 416 1308 z "},"꣬":{"ha":694,"x_min":7,"x_max":688,"o":"m 681 1308 l 437 1308 l 437 1243 q 513 1261 468 1261 q 633 1224 581 1261 q 685 1120 685 1186 q 657 1028 685 1075 q 585 950 629 981 l 509 1004 l 509 1047 q 560 1085 541 1063 q 579 1129 579 1108 q 564 1158 579 1147 q 524 1169 549 1169 q 476 1155 497 1169 q 437 1111 456 1141 l 437 1071 l 452 928 l 425 903 l 317 918 l 328 1017 q 216 990 283 990 q 96 1030 142 990 q 50 1133 50 1069 q 192 1271 50 1271 q 259 1258 225 1271 q 335 1217 293 1244 l 335 1308 l 32 1308 l 7 1371 l 14 1406 l 664 1406 l 688 1343 l 681 1308 m 241 1181 q 177 1165 203 1181 q 151 1116 151 1149 q 163 1085 151 1097 q 195 1074 175 1074 q 266 1097 233 1074 q 322 1165 298 1121 q 241 1181 288 1181 z "},"꣭":{"ha":554,"x_min":7,"x_max":547,"o":"m 536 1308 l 456 1308 l 456 1071 l 469 928 l 443 903 l 334 918 l 351 1093 l 351 1108 q 229 1093 310 1107 q 213 1044 222 1067 q 197 1015 203 1021 q 113 1038 147 1015 q 62 1095 79 1061 q 45 1158 45 1128 l 68 1189 q 199 1197 118 1197 q 321 1194 240 1197 q 351 1193 332 1193 l 351 1308 l 32 1308 l 7 1371 l 14 1406 l 522 1406 l 547 1343 l 536 1308 z "},"꣮":{"ha":533,"x_min":7,"x_max":526,"o":"m 515 1308 l 435 1308 l 435 1071 l 449 928 l 422 903 l 314 918 l 329 1046 q 212 1022 279 1022 q 152 1046 186 1022 q 94 1105 118 1069 q 71 1175 71 1141 l 71 1308 l 32 1308 l 7 1371 l 14 1406 l 501 1406 l 526 1343 l 515 1308 m 179 1141 q 188 1113 179 1122 q 220 1104 196 1104 q 290 1129 267 1104 q 332 1197 313 1154 l 332 1308 l 179 1308 l 179 1141 z "},"꣯":{"ha":355,"x_min":7,"x_max":349,"o":"m 338 1308 l 236 1308 q 271 1214 271 1261 q 158 1060 271 1109 q 321 962 236 1004 l 248 879 q 126 990 184 918 q 37 1141 68 1063 l 97 1198 l 129 1182 q 164 1242 163 1203 q 147 1308 164 1271 l 32 1308 l 7 1371 l 14 1406 l 323 1406 l 349 1343 l 338 1308 z "},"꣰":{"ha":713,"x_min":28,"x_max":559,"o":"m 115 761 q 261 656 157 656 q 349 681 314 656 q 406 758 385 705 l 559 704 q 453 575 525 621 q 294 529 380 529 q 135 575 208 529 q 28 707 62 622 l 115 761 m 275 893 q 306 878 285 893 q 342 836 326 863 q 358 777 358 810 q 344 749 358 767 q 306 716 330 730 q 248 701 282 701 q 219 717 239 701 q 183 758 199 732 q 167 817 167 783 q 180 845 167 826 q 217 879 193 864 q 275 893 241 893 z "},"꣱":{"ha":373,"x_min":7,"x_max":367,"o":"m 325 1308 l 161 1308 q 143 1297 143 1308 q 162 1269 143 1282 q 222 1232 180 1255 q 329 1156 290 1192 q 367 1067 367 1120 q 318 975 367 1006 q 205 945 269 945 q 100 965 149 945 q 7 1031 52 985 l 41 1075 q 167 1025 106 1025 q 228 1042 203 1025 q 253 1086 253 1059 q 235 1123 253 1107 q 172 1165 216 1139 q 78 1235 111 1201 q 45 1324 45 1268 q 75 1382 45 1358 q 154 1406 106 1406 l 307 1406 l 332 1343 l 325 1308 z "},"ꣲ":{"ha":587,"x_min":28,"x_max":929,"o":"m 406 393 q 251 341 304 380 q 199 248 199 302 q 256 152 199 184 q 397 121 313 121 q 665 197 570 121 q 761 429 761 273 q 742 506 761 479 q 689 533 722 533 q 646 512 660 533 q 632 456 632 490 q 643 409 632 433 q 672 364 653 385 l 610 300 q 508 389 550 329 q 456 511 465 449 q 516 613 468 572 q 631 653 564 653 q 849 577 770 653 q 929 371 929 501 q 804 95 929 191 q 453 0 679 0 q 236 37 332 0 q 83 140 139 74 q 28 289 28 205 q 121 479 28 408 q 385 570 215 550 l 433 436 l 406 393 z "},"ꣳ":{"ha":0,"x_min":43,"x_max":574,"o":"m 72 380 q 121 393 90 387 q 172 399 151 399 q 294 365 235 399 q 406 282 354 332 q 537 147 458 233 l 468 93 q 329 211 397 165 q 211 257 261 257 q 156 249 184 257 q 122 239 127 240 l 66 336 l 72 380 m 130 761 q 276 656 172 656 q 364 681 329 656 q 420 758 399 705 l 574 704 q 468 575 540 621 q 309 529 395 529 q 150 575 223 529 q 43 707 77 622 l 130 761 m 290 893 q 321 878 300 893 q 358 836 342 863 q 374 777 374 810 q 360 749 374 767 q 322 716 346 730 q 264 701 298 701 q 234 717 254 701 q 198 758 214 732 q 182 817 182 783 q 195 845 182 826 q 233 879 208 864 q 290 893 257 893 z "},"ꣴ":{"ha":602,"x_min":39,"x_max":739,"o":"m 249 1600 q 442 1557 343 1600 q 665 1444 541 1515 l 640 1425 l 621 1429 q 454 1487 550 1462 q 298 1511 358 1511 q 229 1488 257 1511 q 200 1430 200 1466 l 199 1406 l 715 1406 l 739 1343 l 728 1308 l 647 1308 l 647 1071 l 661 928 l 635 903 l 526 918 l 536 1011 q 461 994 506 994 q 339 1031 393 994 q 285 1133 285 1068 q 325 1236 285 1201 q 439 1271 364 1271 q 545 1242 490 1271 l 545 1308 l 235 1308 l 235 1071 l 249 928 l 222 903 l 114 918 l 132 1093 l 132 1308 l 64 1308 l 39 1371 l 46 1406 l 147 1406 q 125 1495 125 1457 q 157 1571 125 1542 q 249 1600 189 1600 m 469 1177 q 387 1122 387 1177 q 402 1085 387 1097 q 441 1074 416 1074 q 496 1090 469 1074 q 545 1139 522 1107 l 545 1166 q 469 1177 503 1176 z "},"ꣵ":{"ha":553,"x_min":1,"x_max":596,"o":"m 249 893 q 279 878 258 893 q 316 836 300 863 q 332 777 332 810 q 318 749 332 767 q 280 716 304 730 q 222 701 256 701 q 193 716 213 701 q 156 758 172 732 q 140 817 140 783 q 154 845 140 826 q 191 879 167 864 q 249 893 215 893 m 89 761 q 235 656 130 656 q 323 681 288 656 q 379 758 358 705 l 533 704 q 426 575 498 621 q 268 529 354 529 q 109 576 182 529 q 1 707 36 623 l 89 761 m 229 505 q 374 471 311 505 q 470 379 436 437 q 504 249 504 321 q 478 147 504 210 q 368 47 452 83 q 596 -53 425 7 l 481 -196 q 375 -134 413 -161 q 307 -70 336 -106 q 235 32 278 -35 q 132 68 172 35 q 75 150 92 102 l 93 210 q 129 233 110 228 q 179 237 147 237 q 224 229 199 237 q 262 187 237 216 q 344 232 315 201 q 372 296 372 262 q 347 352 372 329 q 277 375 321 375 q 211 354 243 375 q 150 301 178 334 l 47 443 q 139 493 89 480 q 229 505 189 505 z "},"ꣶ":{"ha":562,"x_min":12,"x_max":545,"o":"m 260 893 q 290 878 269 893 q 327 836 311 863 q 343 777 343 810 q 329 749 343 767 q 291 716 315 730 q 233 701 267 701 q 203 716 224 701 q 167 758 183 732 q 151 817 151 783 q 164 845 151 826 q 202 879 178 864 q 260 893 227 893 m 100 761 q 245 656 141 656 q 334 681 298 656 q 390 758 370 705 l 545 704 q 438 575 510 621 q 279 529 366 529 q 120 576 193 529 q 12 707 47 623 l 100 761 m 245 504 q 418 465 361 504 q 476 338 476 425 q 432 222 476 271 q 514 93 514 170 q 481 -7 514 26 q 387 -53 449 -41 q 485 -103 439 -82 l 395 -228 q 308 -164 350 -204 q 215 -57 267 -125 q 98 -16 146 -46 q 41 68 50 14 l 56 98 q 121 123 85 123 q 193 113 154 123 l 236 60 q 310 77 277 62 q 343 122 343 92 q 321 160 343 150 q 231 142 282 149 l 170 267 q 272 288 231 271 q 332 327 313 306 q 351 363 351 347 q 341 379 351 376 q 323 382 332 382 q 313 382 315 382 q 222 365 268 382 q 119 318 176 347 l 47 457 q 157 492 103 479 q 245 504 211 504 z "},"ꣷ":{"ha":532,"x_min":4,"x_max":546,"o":"m 261 893 q 292 878 271 893 q 329 836 313 863 q 345 777 345 810 q 331 749 345 767 q 292 716 317 730 q 235 701 268 701 q 205 716 225 701 q 169 758 184 732 q 153 817 153 783 q 166 845 153 826 q 203 879 179 864 q 261 893 228 893 m 102 761 q 248 656 143 656 q 336 681 300 656 q 392 758 371 705 l 546 704 q 439 575 511 621 q 281 529 367 529 q 122 576 195 529 q 14 707 49 623 l 102 761 m 450 368 l 220 368 q 195 353 195 368 q 224 305 195 329 q 317 241 253 281 q 457 139 407 186 q 507 31 507 92 q 438 -97 507 -53 q 282 -140 370 -140 q 135 -112 203 -140 q 4 -20 66 -83 l 53 43 q 228 -28 143 -28 q 312 -2 277 -28 q 347 60 347 24 q 322 109 347 85 q 245 165 297 132 q 179 210 237 171 q 88 295 121 249 q 56 390 56 340 q 99 472 56 439 q 210 505 142 505 l 425 505 l 460 416 l 450 368 z "},"꣸":{"ha":979,"x_min":43,"x_max":694,"o":"m 681 745 l 78 745 l 43 856 l 57 897 l 660 897 l 694 786 l 681 745 z "},"꣹":{"ha":961,"x_min":25,"x_max":926,"o":"m 628 653 q 846 577 766 653 q 926 371 926 501 q 801 95 926 191 q 450 0 676 0 q 233 37 330 0 q 81 140 136 74 q 25 289 25 205 q 149 500 25 424 q 31 663 31 561 q 91 819 31 758 q 254 889 151 879 l 292 755 q 224 720 249 749 q 199 652 199 690 q 248 543 199 595 q 382 570 304 562 l 431 436 l 403 393 q 249 341 301 380 q 196 248 196 302 q 253 152 196 184 q 395 121 310 121 q 663 197 567 121 q 758 429 758 273 q 739 506 758 479 q 686 533 720 533 q 643 512 657 533 q 629 456 629 490 q 640 409 629 433 q 669 364 650 385 l 607 300 q 505 389 547 329 q 453 511 463 449 q 513 613 465 572 q 628 653 561 653 z "},"꣺":{"ha":656,"x_min":21,"x_max":1068,"o":"m 823 657 q 932 574 894 629 q 970 439 970 518 q 812 210 970 279 l 812 -175 l 832 -370 l 794 -403 l 633 -380 l 643 -289 q 507 -307 585 -307 q 359 -281 425 -307 q 255 -206 293 -254 q 216 -98 216 -158 q 282 50 216 0 q 472 100 347 100 q 660 49 565 100 l 660 168 q 517 160 595 160 q 320 191 408 160 q 180 275 232 222 q 129 392 129 328 q 240 571 129 515 q 136 694 136 618 q 143 746 136 721 l 56 746 l 21 847 l 35 890 l 1034 890 l 1068 787 l 1054 746 l 823 746 l 823 657 m 328 746 q 300 694 300 725 q 343 604 300 650 q 464 621 400 616 l 511 507 l 484 465 q 344 428 393 457 q 294 364 294 399 q 341 294 294 315 q 461 273 389 273 q 718 325 631 273 q 804 501 804 376 q 789 552 804 537 q 745 567 774 567 q 708 552 720 567 q 696 515 696 538 q 730 456 696 490 l 671 395 q 571 464 612 414 q 524 572 530 514 q 575 644 536 614 q 671 681 615 675 l 671 746 l 328 746 m 473 -195 q 573 -173 524 -195 q 660 -111 623 -151 l 660 -49 q 533 -18 578 -18 q 414 -44 458 -18 q 371 -117 371 -69 q 399 -176 371 -157 q 473 -195 427 -195 z "},"ꣻ":{"ha":568,"x_min":-41,"x_max":574,"o":"m -41 1169 l 86 1222 l 267 981 l 447 1222 l 574 1169 l 345 889 l 187 888 l -41 1169 z "}," ":{"ha":248,"x_min":0,"x_max":0,"o":""}}}
